<svg width="80" height="47" viewBox="0 0 80 47" fill="none" xmlns="http://www.w3.org/2000/svg">
<path fill-rule="evenodd" clip-rule="evenodd" d="M17.1193 46.2943V40.7871H18.7969L19.7882 44.5431L20.7681 40.7871H22.4494V46.2943H21.4143L21.4108 41.9587L20.3203 46.2943H19.2439L18.1586 41.9587L18.155 46.2943H17.1199H17.1193ZM24.3496 43.533L23.3919 43.3638C23.5 42.974 23.6865 42.6857 23.9506 42.4984C24.2146 42.3114 24.6073 42.2176 25.1275 42.2176C25.5999 42.2176 25.9525 42.2729 26.1843 42.3843C26.4149 42.4959 26.5784 42.6369 26.6723 42.8088C26.7662 42.9804 26.8139 43.2945 26.8139 43.7535L26.7984 44.9842C26.7984 45.334 26.8151 45.593 26.8486 45.7597C26.8822 45.9264 26.9452 46.1046 27.0379 46.2943H25.9873C25.9603 46.2251 25.9257 46.1225 25.8856 45.9866C25.8689 45.9239 25.856 45.8827 25.8482 45.8634C25.6681 46.0404 25.475 46.1724 25.269 46.261C25.063 46.3494 24.844 46.3941 24.6112 46.3941C24.2004 46.3941 23.8759 46.2827 23.6391 46.0597C23.4022 45.838 23.2837 45.5558 23.2837 45.2148C23.2837 44.9905 23.3377 44.7894 23.4459 44.6124C23.5541 44.4369 23.7048 44.3008 23.9004 44.2073C24.0949 44.1138 24.3754 44.0317 24.7425 43.9612C25.2369 43.8689 25.5805 43.7816 25.7711 43.7022V43.5958C25.7711 43.3906 25.7209 43.2445 25.6204 43.1561C25.5188 43.069 25.3282 43.0254 25.0487 43.0254C24.8595 43.0254 24.7128 43.0626 24.6073 43.1382C24.5003 43.2125 24.4155 43.3446 24.3496 43.533ZM25.7711 44.3867C25.6359 44.4317 25.421 44.4855 25.126 44.5483C24.8324 44.6111 24.6394 44.6726 24.5493 44.7316C24.4116 44.8302 24.342 44.9533 24.342 45.1033C24.342 45.252 24.3973 45.379 24.5082 45.4868C24.6188 45.5944 24.7592 45.6482 24.9303 45.6482C25.1209 45.6482 25.3037 45.5854 25.4775 45.4611C25.6051 45.3648 25.6899 45.2495 25.7298 45.111C25.7568 45.0214 25.7711 44.8496 25.7711 44.597V44.3867ZM31.5349 46.2943H30.554V45.7085C30.3905 45.9366 30.1961 46.1071 29.9733 46.2226C29.7506 46.3366 29.5252 46.3941 29.2988 46.3941C28.8366 46.3941 28.4413 46.2096 28.1116 45.8392C27.7834 45.4686 27.6186 44.9533 27.6186 44.2907C27.6186 43.6137 27.7783 43.0984 28.0988 42.7459C28.4194 42.3934 28.8236 42.2176 29.3128 42.2176C29.761 42.2176 30.1497 42.4037 30.4766 42.774V40.7871H31.5349V46.2943ZM28.7078 44.2214C28.7078 44.6484 28.767 44.9573 28.884 45.1482C29.0554 45.4251 29.2936 45.5636 29.6 45.5636C29.8433 45.5636 30.0506 45.4598 30.2204 45.252C30.3918 45.0444 30.4766 44.7355 30.4766 44.3225C30.4766 43.8624 30.3942 43.5316 30.2282 43.3292C30.0621 43.1265 29.851 43.0254 29.5923 43.0254C29.3411 43.0254 29.1314 43.1253 28.9613 43.3253C28.7926 43.5253 28.7078 43.8239 28.7078 44.2214ZM34.894 45.0329L35.9523 45.2096C35.8171 45.5957 35.6021 45.8892 35.31 46.0919C35.0162 46.293 34.6494 46.3941 34.2103 46.3941C33.5139 46.3941 32.9976 46.1674 32.6641 45.7136C32.4003 45.3494 32.2677 44.8905 32.2677 44.3355C32.2677 43.674 32.4413 43.1549 32.7877 42.7804C33.1341 42.4049 33.5731 42.2176 34.1034 42.2176C34.6984 42.2176 35.1682 42.4139 35.5133 42.8061C35.857 43.1985 36.0219 43.7997 36.0064 44.6099H33.3569C33.3649 44.9226 33.4495 45.1661 33.613 45.3406C33.7753 45.5148 33.9786 45.6021 34.2207 45.6021C34.3868 45.6021 34.5258 45.5572 34.6378 45.4674C34.7511 45.3778 34.836 45.2329 34.894 45.0329ZM34.9557 43.9637C34.9486 43.6572 34.8695 43.424 34.7189 43.2651C34.5683 43.1047 34.3854 43.0254 34.1693 43.0254C33.9387 43.0254 33.7482 43.1099 33.5975 43.2778C33.447 43.4458 33.3736 43.6753 33.3763 43.9637H34.9557ZM39.019 41.7639V40.7871H40.0773V41.7639H39.019ZM39.019 46.2943V42.3023H40.0773V46.2943H39.019ZM44.8113 46.2943H43.753V44.2599C43.753 43.8291 43.7296 43.551 43.6847 43.4254C43.6384 43.2984 43.5649 43.201 43.462 43.1304C43.359 43.06 43.2353 43.0254 43.0912 43.0254C42.9059 43.0254 42.7397 43.0754 42.5929 43.1753C42.4449 43.2753 42.3444 43.4087 42.2905 43.5727C42.235 43.738 42.208 44.0432 42.208 44.4893V46.2943H41.1498V42.3023H42.1307V42.8881C42.4823 42.4409 42.9238 42.2176 43.458 42.2176C43.6925 42.2176 43.9074 42.26 44.1018 42.3434C44.2975 42.428 44.4443 42.5344 44.5434 42.6639C44.6439 42.7946 44.7135 42.942 44.7521 43.1075C44.7919 43.2727 44.8113 43.5086 44.8113 43.8163V46.2943ZM47.999 46.2943V40.7871H49.1192V46.2943H47.999ZM53.8222 46.2943H52.7639V44.2599C52.7639 43.8291 52.7405 43.551 52.6956 43.4254C52.6493 43.2984 52.5758 43.201 52.4729 43.1304C52.3699 43.06 52.2462 43.0254 52.1021 43.0254C51.9168 43.0254 51.7506 43.0754 51.6038 43.1753C51.4558 43.2753 51.3553 43.4087 51.3014 43.5727C51.2459 43.738 51.2189 44.0432 51.2189 44.4893V46.2943H50.1607V42.3023H51.1416V42.8881C51.4932 42.4409 51.9347 42.2176 52.4689 42.2176C52.7034 42.2176 52.9183 42.26 53.1127 42.3434C53.3084 42.428 53.4552 42.5344 53.5543 42.6639C53.6548 42.7946 53.7244 42.942 53.763 43.1075C53.8028 43.2727 53.8222 43.5086 53.8222 43.8163V46.2943ZM58.5715 46.2943H57.5906V45.7085C57.4271 45.9366 57.2326 46.1071 57.0099 46.2226C56.7872 46.3366 56.5618 46.3941 56.3354 46.3941C55.8732 46.3941 55.478 46.2096 55.1483 45.8392C54.8201 45.4686 54.6552 44.9533 54.6552 44.2907C54.6552 43.6137 54.8149 43.0984 55.1355 42.7459C55.4561 42.3934 55.8602 42.2176 56.3494 42.2176C56.7976 42.2176 57.1863 42.4037 57.5132 42.774V40.7871H58.5715V46.2943ZM55.7445 44.2214C55.7445 44.6484 55.8036 44.9573 55.9207 45.1482C56.092 45.4251 56.3302 45.5636 56.6366 45.5636C56.8799 45.5636 57.0872 45.4598 57.2571 45.252C57.4284 45.0444 57.5132 44.7355 57.5132 44.3225C57.5132 43.8624 57.4309 43.5316 57.2649 43.3292C57.0987 43.1265 56.8876 43.0254 56.6289 43.0254C56.3777 43.0254 56.168 43.1253 55.9979 43.3253C55.8293 43.5253 55.7445 43.8239 55.7445 44.2214ZM59.6131 41.7639V40.7871H60.6715V41.7639H59.6131ZM59.6131 46.2943V42.3023H60.6715V46.2943H59.6131ZM62.5472 43.533L61.5895 43.3638C61.6976 42.974 61.8842 42.6857 62.1482 42.4984C62.4122 42.3114 62.8048 42.2176 63.325 42.2176C63.7975 42.2176 64.1501 42.2729 64.3819 42.3843C64.6125 42.4959 64.776 42.6369 64.8699 42.8088C64.9638 42.9804 65.0115 43.2945 65.0115 43.7535L64.996 44.9842C64.996 45.334 65.0127 45.593 65.0461 45.7597C65.0798 45.9264 65.1428 46.1046 65.2354 46.2943H64.185C64.1579 46.2251 64.1233 46.1225 64.0832 45.9866C64.0665 45.9239 64.0537 45.8827 64.0458 45.8634C63.8656 46.0404 63.6726 46.1724 63.4666 46.261C63.2606 46.3494 63.0416 46.3941 62.8087 46.3941C62.3979 46.3941 62.0735 46.2827 61.8368 46.0597C61.5997 45.838 61.4812 45.5558 61.4812 45.2148C61.4812 44.9905 61.5354 44.7894 61.6435 44.6124C61.7517 44.4369 61.9023 44.3008 62.0981 44.2073C62.2925 44.1138 62.573 44.0317 62.94 43.9612C63.4345 43.8689 63.7781 43.7816 63.9686 43.7022V43.5958C63.9686 43.3906 63.9185 43.2445 63.818 43.1561C63.7164 43.069 63.5259 43.0254 63.2464 43.0254C63.0571 43.0254 62.9103 43.0626 62.8048 43.1382C62.6979 43.2125 62.6131 43.3446 62.5472 43.533ZM63.9686 44.3867C63.8334 44.4317 63.6185 44.4855 63.3235 44.5483C63.0301 44.6111 62.837 44.6726 62.7468 44.7316C62.6091 44.8302 62.5395 44.9533 62.5395 45.1033C62.5395 45.252 62.5949 45.379 62.7057 45.4868C62.8164 45.5944 62.9567 45.6482 63.1279 45.6482C63.3184 45.6482 63.5013 45.5854 63.6751 45.4611C63.8027 45.3648 63.8875 45.2495 63.9274 45.111C63.9544 45.0214 63.9686 44.8496 63.9686 44.597V44.3867Z" fill="#244BA5"/>
<path fill-rule="evenodd" clip-rule="evenodd" d="M11.5879 25.2797C9.78724 25.6632 5.9766 26.2714 4.77391 24.3639C3.98022 23.1049 4.87485 23.6487 3.11043 22.5553C0.515551 20.9471 -0.0752237 17.9571 0.574185 15.3999C1.34776 12.3517 3.97017 10.6783 6.84783 9.75508C10.0735 8.72009 13.0955 8.76465 16.3892 8.55452C17.9674 8.45348 19.4441 8.23963 21.5498 7.61533C24.9534 6.60613 25.7979 5.99857 29.5807 6.03313C32.4762 6.05972 35.6697 6.39147 38.9264 6.42683C41.7157 6.45643 44.39 6.15524 47.1465 5.73302C48.7813 5.48255 50.4385 5.17814 52.1155 4.8231C53.3403 4.56439 54.2454 4.36426 54.9482 3.21937C55.6676 2.05027 56.794 1.50592 58.2383 1.4507C58.8601 1.42686 59.4851 1.56132 60.0864 1.59562C61.0916 1.65278 61.5068 1.3668 62.3522 0.901861C63.4045 0.323475 63.8728 0.361282 65.0279 0.32592C65.7537 0.303319 66.4789 0.283302 67.2165 0.185545C67.962 0.0864589 68.5654 -0.12712 69.3327 0.102781C70.5399 0.464826 70.1594 0.93719 70.5693 1.38379C70.9289 1.77464 71.6987 1.67288 72.2879 2.13348C73.4125 3.01152 72.8763 4.49766 73.5888 4.94373C74.0176 5.2128 74.528 4.75192 75.0233 4.01374C75.1719 4.41141 75.2381 4.88874 75.1251 5.30529C74.8891 6.1781 74.3983 5.65626 75.1233 6.37787C76.2701 7.51727 76.0885 8.3545 76.4169 9.01318C76.5644 9.30929 77.2001 9.92481 77.4622 10.2222C78.03 10.8663 78.5906 11.4648 79.1389 11.9936C79.8727 12.7014 80.1367 13.4594 79.0642 14.0353C78.5702 14.3016 78.8066 14.1623 78.4913 14.6158C78.2458 14.9681 77.9604 15.1744 77.6518 15.2956C77.0504 15.5318 76.0011 15.4894 75.3291 15.4801C74.8786 15.4739 73.8658 15.5197 73.4999 15.801C73.02 16.1708 73.3082 16.9326 74.0435 16.6743C74.6338 16.468 74.5386 16.116 75.3228 16.6074C75.7775 16.893 75.9299 17.3057 75.872 17.689C75.775 18.3334 75.4124 18.1211 75.427 19.0015C75.4394 19.7276 75.5247 20.6547 74.2997 20.7046C72.7943 20.7648 73.2018 20.8912 72.9638 19.9391C72.8623 19.5332 72.6473 19.3587 72.2799 19.4981C73.2537 21.8974 70.5545 21.1089 70.7653 23.1681C70.1248 22.85 69.6263 22.1273 69.2504 21.0566C68.4939 22.1955 67.5674 22.967 66.726 23.9224C66.6418 23.4028 66.5574 22.8833 66.4733 22.3637C66.1699 23.3421 65.9602 24.4295 64.8602 25.265C64.3596 25.6451 64.3808 25.3997 64.4931 26.0267C64.7046 27.2019 64.8101 28.4433 65.1606 29.3389C65.415 29.9898 65.7781 30.1954 66.0972 30.7486C66.5693 31.5662 66.4232 32.1702 66.9702 32.2773C67.5733 32.3959 68.0109 32.1998 68.6709 32.6141C69.0932 32.8785 69.479 33.7062 69.621 34.1811C69.7593 34.642 69.7059 34.9835 69.551 35.2277C69.131 35.8886 68.2033 35.7347 67.526 35.7166C66.934 35.7005 66.3414 35.6842 65.7496 35.668C65.166 35.6521 64.2831 35.7349 63.8271 35.3533C63.2328 34.8563 63.2796 33.8409 62.8198 33.3161C62.5086 32.9603 61.8813 32.942 61.4165 32.525C61.1891 32.3209 60.9821 32.0301 60.8303 31.5883C60.553 30.7824 60.6696 31.0534 60.0205 30.464C59.4128 29.9124 58.8439 29.2938 58.3783 28.6276C57.8415 27.8599 57.5861 26.7988 57.0694 26.2424C56.7405 25.8881 56.3906 25.8006 56.0338 25.767C55.3435 25.7016 54.6103 25.6897 53.9916 25.3432C53.4786 25.0556 53.0208 24.6138 52.6622 24.3062C52.1543 23.8699 52.145 23.9025 51.6988 24.4526C50.9308 25.4001 50.2355 27.0961 49.1565 28.5526C48.7528 29.0972 48.288 29.5322 47.9352 30.116C47.6691 30.5558 47.4901 30.9961 47.3724 31.4359C47.2219 31.9993 47.0179 32.341 47.5663 32.7186C47.7484 32.8442 47.9705 32.9834 48.1636 33.1746C48.4532 33.462 48.7519 33.5457 49.1157 33.6972C49.5838 33.892 50.0603 34.2059 50.053 34.6824C50.0386 35.6143 48.8193 35.8989 48.0941 35.9887C46.2141 36.2648 44.8808 36.1665 44.0392 35.6394C43.3087 35.1828 43.1946 34.6873 43.3666 34.0033C43.4758 33.5665 43.6516 33.5003 43.7415 33.2474C43.8445 32.9578 43.2772 33.0423 43.0679 32.4989C42.9126 32.0955 42.9325 31.5239 43.213 30.7025C43.7069 29.2542 43.7813 29.2281 44.0319 27.6736C44.079 27.3817 44.1364 27.0913 44.1996 26.8063C44.5489 25.2284 45.0767 23.7981 45.0139 23.0174C42.7484 23.2095 40.9195 23.2574 39.3419 22.761C38.5338 22.5064 37.6784 22.0737 36.8422 21.7728C35.2747 21.2094 34.6066 20.8981 33.8005 22.6914C33.3173 23.7626 33.3573 25.5642 32.5105 27.0708C32.2547 27.5269 31.8329 27.8664 31.685 28.3255C31.3755 29.2871 32.1517 30.1145 32.7799 30.7423C33.411 31.3736 34.178 31.9539 34.9181 32.1502C35.5934 32.3284 36.3738 32.1389 37.1426 32.3033C38.2024 32.5298 38.8441 33.7656 38.3072 34.6713C37.9783 35.2254 37.2879 35.2505 36.5342 35.2535C35.4892 35.258 34.7816 35.4924 33.8018 35.5523C33.0584 35.5977 32.5686 35.5215 32.2093 35.2879C31.7041 34.9589 31.1987 34.1884 30.4224 33.6606C29.1634 32.8047 28.2801 32.2683 27.0975 31.2606C26.459 30.716 25.9674 30.2549 25.6912 29.7481C25.217 28.8771 25.5937 27.8761 25.6592 26.9064C25.7629 25.3841 25.5731 24.2565 25.0191 23.6206C24.8146 23.3078 24.5842 23.1659 24.2616 23.6206C23.6222 24.2081 23.0582 24.2859 22.3229 24.236C20.4315 24.7307 20.3472 26.5691 18.2531 27.2406C16.698 27.3716 15.8685 29.4174 15.6411 31.3275C15.6039 31.6394 15.5815 31.9549 15.5769 32.269C15.7479 32.6318 15.8765 32.3026 16.2699 32.1931C17.5602 31.8315 19.3316 33.2185 19.1309 34.7473C19.0085 35.6805 18.0411 35.9343 16.0073 36.0145C15.1153 36.0416 14.4652 35.9954 13.9862 35.8791C12.4129 35.4964 12.7725 34.4938 12.5028 33.3838C12.1888 32.0918 11.22 31.7575 11.3697 30.2258C11.4613 29.2793 11.6937 28.8387 11.5829 27.7623C11.4814 26.7772 10.7753 25.9671 11.8977 25.2099C12.3159 24.9273 12.8755 24.7801 13.4007 24.5584C13.2048 23.7034 13.4743 22.5508 13.9887 21.2643C14.3637 20.3268 14.7396 19.448 15.1073 18.4987C15.495 17.4988 16.0329 16.6009 16.6718 15.6391C17.2232 14.8089 17.6329 14.1913 18.0806 13.2904C18.4506 12.5458 18.8011 11.8049 19.2126 11.0516C14.8721 11.0915 11.5963 11.0804 9.47654 11.2878C6.51619 11.5774 3.14951 13.2907 2.48871 16.4224C2.04554 18.5222 3.36633 21.0653 5.51981 21.5095C6.08182 21.6256 6.7607 21.6885 7.40789 21.8108C8.94925 22.1015 11.004 23.8132 11.5882 25.2797H11.5879Z" fill="#244BA5"/>
</svg>
