<svg width="400" height="400" viewBox="0 0 400 400" fill="none" xmlns="http://www.w3.org/2000/svg">
<path d="M400 305.92H0V306.12H400V305.92Z" fill="#E6E6E6"/>
<path d="M99.8559 318.024H73.3599V318.224H99.8559V318.024Z" fill="#E6E6E6"/>
<path d="M64.976 318.024H49.624V318.224H64.976V318.024Z" fill="#E6E6E6"/>
<path d="M168.44 320.968H153.088V321.168H168.44V320.968Z" fill="#E6E6E6"/>
<path d="M248.488 325.432H213.936V325.632H248.488V325.432Z" fill="#E6E6E6"/>
<path d="M206.816 325.432H201.752V325.632H206.816V325.432Z" fill="#E6E6E6"/>
<path d="M362.68 320.968H287.736V321.168H362.68V320.968Z" fill="#E6E6E6"/>
<path d="M189.6 270.24H35.1279C33.9177 270.238 32.7579 269.756 31.903 268.899C31.048 268.043 30.5679 266.882 30.5679 265.672V48.528C30.5784 47.3248 31.0632 46.1744 31.917 45.3266C32.7708 44.4788 33.9246 44.0021 35.1279 44H189.6C190.811 44 191.973 44.4813 192.83 45.3379C193.687 46.1946 194.168 47.3565 194.168 48.568V265.672C194.168 266.884 193.687 268.045 192.83 268.902C191.973 269.759 190.811 270.24 189.6 270.24ZM35.1279 44.16C33.9708 44.1621 32.8618 44.6233 32.0444 45.4422C31.227 46.2611 30.7679 47.3709 30.7679 48.528V265.672C30.7679 266.829 31.227 267.939 32.0444 268.758C32.8618 269.577 33.9708 270.038 35.1279 270.04H189.6C190.758 270.038 191.867 269.577 192.686 268.758C193.505 267.94 193.966 266.83 193.968 265.672V48.528C193.966 47.3702 193.505 46.2604 192.686 45.4417C191.867 44.623 190.758 44.1621 189.6 44.16H35.1279Z" fill="#E6E6E6"/>
<path d="M362.648 270.24H208.168C206.957 270.238 205.797 269.756 204.94 268.9C204.084 268.044 203.602 266.883 203.6 265.672V48.528C203.613 47.3241 204.099 46.1737 204.954 45.3261C205.809 44.4785 206.964 44.002 208.168 44H362.648C363.85 44.0042 365.002 44.4818 365.854 45.3294C366.706 46.177 367.19 47.3262 367.2 48.528V265.672C367.2 266.881 366.721 268.04 365.868 268.896C365.015 269.753 363.857 270.236 362.648 270.24ZM208.168 44.16C207.01 44.1621 205.9 44.623 205.082 45.4417C204.263 46.2604 203.802 47.3702 203.8 48.528V265.672C203.802 266.83 204.263 267.94 205.082 268.758C205.9 269.577 207.01 270.038 208.168 270.04H362.648C363.806 270.038 364.916 269.577 365.734 268.758C366.553 267.94 367.014 266.83 367.016 265.672V48.528C367.014 47.3702 366.553 46.2604 365.734 45.4417C364.916 44.623 363.806 44.1621 362.648 44.16H208.168Z" fill="#E6E6E6"/>
<path d="M213.92 237.584H196.328V307.368H213.92V237.584Z" fill="#E0E0E0"/>
<path d="M210.576 307.368H213.92V297.864H207.072L210.576 307.368Z" fill="#FAFAFA"/>
<path d="M136.832 237.584H119.24V307.368H136.832V237.584Z" fill="#E0E0E0"/>
<path d="M213.92 237.584H133.92V301.536H213.92V237.584Z" fill="#FAFAFA"/>
<path d="M211.016 240.728V257.648H136.8V240.728H210.992M211.304 240.416H136.512V257.952H211.328V240.416H211.304Z" fill="#E0E0E0"/>
<path d="M137.256 307.368H133.92V297.864H140.76L137.256 307.368Z" fill="#FAFAFA"/>
<path d="M172.152 249.184C172.152 249.534 172.256 249.876 172.45 250.166C172.644 250.457 172.92 250.684 173.243 250.817C173.566 250.951 173.922 250.986 174.265 250.918C174.608 250.85 174.923 250.681 175.17 250.434C175.417 250.187 175.586 249.872 175.654 249.529C175.722 249.186 175.687 248.83 175.553 248.507C175.419 248.184 175.193 247.908 174.902 247.714C174.611 247.52 174.27 247.416 173.92 247.416C173.451 247.416 173.001 247.602 172.67 247.934C172.338 248.265 172.152 248.715 172.152 249.184Z" fill="#E6E6E6"/>
<path d="M211.016 261.096V278.016H136.8V261.096H210.992M211.304 260.792H136.512V278.328H211.328V260.8L211.304 260.792Z" fill="#E0E0E0"/>
<path d="M172.152 269.6C172.152 269.95 172.256 270.291 172.45 270.582C172.644 270.873 172.92 271.1 173.243 271.233C173.566 271.367 173.922 271.402 174.265 271.334C174.608 271.266 174.923 271.097 175.17 270.85C175.417 270.603 175.586 270.288 175.654 269.945C175.722 269.602 175.687 269.246 175.553 268.923C175.419 268.6 175.193 268.324 174.902 268.13C174.611 267.936 174.27 267.832 173.92 267.832C173.451 267.832 173.001 268.018 172.67 268.35C172.338 268.681 172.152 269.131 172.152 269.6Z" fill="#E6E6E6"/>
<path d="M211.016 281.472V298.4H136.8V281.472H210.992M211.304 281.16H136.512V298.704H211.328V281.16H211.304Z" fill="#E0E0E0"/>
<path d="M172.152 289.936C172.153 290.285 172.258 290.626 172.454 290.916C172.649 291.206 172.926 291.431 173.249 291.564C173.572 291.696 173.927 291.73 174.27 291.661C174.612 291.592 174.926 291.423 175.173 291.175C175.419 290.928 175.587 290.613 175.654 290.27C175.722 289.927 175.687 289.572 175.553 289.25C175.418 288.927 175.192 288.651 174.901 288.457C174.611 288.263 174.269 288.16 173.92 288.16C173.687 288.16 173.456 288.206 173.241 288.295C173.026 288.385 172.831 288.516 172.667 288.681C172.503 288.846 172.373 289.042 172.284 289.257C172.196 289.472 172.151 289.703 172.152 289.936Z" fill="#E6E6E6"/>
<path d="M126.088 197.056H108.496V307.376H126.088V197.056Z" fill="#E0E0E0"/>
<path d="M122.744 307.368H126.088V297.864H119.248L122.744 307.368Z" fill="#FAFAFA"/>
<path d="M60.344 197.056H42.752V307.376H60.344V197.056Z" fill="#E0E0E0"/>
<path d="M126.088 197.056H57.4238V301.544H126.088V197.056Z" fill="#FAFAFA"/>
<path d="M123.128 200V223.656H60.384V200H123.128ZM123.496 199.64H60V224H123.48V199.648L123.496 199.64Z" fill="#E0E0E0"/>
<path d="M123.128 226.544V289.288H93.2399V226.544H123.128ZM123.496 226.176H92.8799V289.656H123.496V226.176Z" fill="#E0E0E0"/>
<path d="M90.272 226.544V289.288H60.384V226.544H90.272ZM90.632 226.176H60V289.656H90.616V226.176H90.632Z" fill="#E0E0E0"/>
<path d="M60.7678 307.368H57.4238V297.864H64.2718L60.7678 307.368Z" fill="#FAFAFA"/>
<path d="M89.9839 211.84C89.9823 212.192 90.0851 212.536 90.2793 212.829C90.4735 213.122 90.7503 213.351 91.0747 213.486C91.3991 213.622 91.7564 213.658 92.1015 213.591C92.4465 213.523 92.7637 213.355 93.0129 213.107C93.262 212.859 93.432 212.542 93.5012 212.197C93.5703 211.853 93.5356 211.495 93.4015 211.17C93.2673 210.845 93.0397 210.567 92.7474 210.372C92.4552 210.176 92.1115 210.072 91.7599 210.072C91.2903 210.072 90.8397 210.258 90.5069 210.589C90.1741 210.921 89.986 211.37 89.9839 211.84Z" fill="#E6E6E6"/>
<path d="M96.3198 256.424C96.3198 256.776 96.4242 257.119 96.6197 257.412C96.8152 257.704 97.0931 257.931 97.4181 258.066C97.743 258.2 98.1005 258.234 98.4453 258.165C98.79 258.096 99.1064 257.926 99.3545 257.677C99.6025 257.428 99.7711 257.111 99.8387 256.766C99.9063 256.421 99.87 256.063 99.7343 255.739C99.5987 255.414 99.3698 255.138 99.0767 254.943C98.7836 254.749 98.4394 254.646 98.0878 254.648C97.855 254.648 97.6244 254.694 97.4094 254.783C97.1944 254.873 96.9991 255.004 96.8348 255.169C96.6706 255.334 96.5405 255.53 96.4521 255.745C96.3637 255.96 96.3188 256.191 96.3198 256.424Z" fill="#E6E6E6"/>
<path d="M83.6558 256.424C83.6574 256.773 83.7624 257.114 83.9576 257.404C84.1529 257.694 84.4295 257.919 84.7527 258.052C85.0759 258.184 85.4311 258.218 85.7736 258.149C86.116 258.08 86.4303 257.911 86.6767 257.663C86.9232 257.416 87.0908 257.101 87.1584 256.758C87.2259 256.415 87.1905 256.06 87.0564 255.738C86.9224 255.415 86.6958 255.139 86.4052 254.945C86.1146 254.751 85.7731 254.648 85.4238 254.648C85.1909 254.648 84.9604 254.694 84.7453 254.783C84.5303 254.873 84.3351 255.004 84.1708 255.169C84.0065 255.334 83.8764 255.53 83.7881 255.745C83.6997 255.96 83.6547 256.191 83.6558 256.424Z" fill="#E6E6E6"/>
<path d="M81.656 166.296H74.24C74.9234 169.893 75.3538 173.534 75.528 177.192C75.528 181.192 69.88 197.056 77.928 197.056C85.976 197.056 80.328 181.232 80.328 177.192C80.5154 173.533 80.9592 169.892 81.656 166.296Z" fill="#E0E0E0"/>
<path d="M53.4399 182.52V187.32C53.4484 189.893 54.4743 192.359 56.2938 194.178C58.1134 195.998 60.5788 197.024 63.1519 197.032H67.9519C70.5251 197.024 72.9905 195.998 74.81 194.178C76.6296 192.359 77.6555 189.893 77.6639 187.32V182.52H53.4399Z" fill="#F5F5F5"/>
<path d="M156.536 227.408C156.536 233.008 162.8 237.584 170.456 237.584H177.368C185.024 237.584 191.288 233.008 191.288 227.408H156.536Z" fill="#E0E0E0"/>
<path d="M339.688 219.2C335.496 222.624 329.704 228.888 324.408 237.704C320.872 243.576 318.744 249.704 317.808 257.848C317.808 248.648 317.864 238.768 317.896 229.44C318.96 227.04 321.392 221.504 323.136 217.136C328.952 202.552 331.136 198.96 336.36 186.384C343.344 169.584 350.496 149.696 348.448 151.288C344.272 154.528 328.272 184.488 326.544 188.776C321.834 200.219 318.922 212.322 317.912 224.656C317.912 215.856 317.976 207.856 318.008 201.648C318.12 181.4 318.464 174.864 318.632 172.848C319.28 171.824 320.04 170.632 320.488 169.992C324.248 164.552 325.696 159.928 329.232 151.816C334.256 140.336 338.576 119.944 337.312 120.968C332.048 125.256 327.904 134.456 322.448 146.192C316.992 157.928 318.552 164.672 317.472 174.688C317.248 176.656 317.072 184.08 316.944 194.36C315.536 183.4 312.88 176.184 308.04 169.624C302.088 161.552 296.328 156.104 292.104 153.256C287.88 150.408 299.4 170.232 304.904 178.856C309.808 186.568 314.328 193.36 316.904 200.056C316.768 214 316.704 231.648 316.704 248.056C315.44 240.584 313.376 232.528 310.624 226.296C307.312 218.808 302.224 207.32 298.168 203.424C297.2 202.488 302.408 224.832 305.752 230.768C309.096 236.704 311.552 242.312 313.656 245.68C314.144 246.48 315.776 249.496 316.704 251.24C316.704 271.296 316.816 288.992 316.992 295.016H317.856C317.8 293.464 317.784 283.256 317.808 269.752C319.896 262.424 324.664 254.056 328.6 246.424C332.888 238.16 343.88 215.8 339.688 219.2Z" fill="#E0E0E0"/>
<path d="M329.952 307.368H304.88L302.984 282.792H331.848L329.952 307.368Z" fill="#F0F0F0"/>
<path d="M333.712 285.656H301.112L300.184 277.36H334.648L333.712 285.656Z" fill="#F5F5F5"/>
<path d="M99.4079 60.4H54.5679V109.64H99.4079V60.4Z" fill="#E0E0E0"/>
<path d="M104.264 60.4H57.9438V109.64H104.264V60.4Z" fill="#F5F5F5"/>
<path d="M100.384 105.76V64.28H61.8238V105.76H100.384Z" fill="white"/>
<path d="M91.0322 95.696V74.328H71.1682V95.696H91.0322Z" fill="#F5F5F5"/>
<path d="M328.04 66.136H286.384V111.88H328.04V66.136Z" fill="#E0E0E0"/>
<path d="M332.552 66.136H289.528V111.88H332.552V66.136Z" fill="#F5F5F5"/>
<path d="M328.952 108.272V69.744H293.136V108.272H328.952Z" fill="white"/>
<path d="M311.04 100.184C317.212 100.184 322.216 95.1803 322.216 89.008C322.216 82.8357 317.212 77.832 311.04 77.832C304.867 77.832 299.864 82.8357 299.864 89.008C299.864 95.1803 304.867 100.184 311.04 100.184Z" fill="#F5F5F5"/>
<path d="M145.992 89.76H112.728V126.288H145.992V89.76Z" fill="#E0E0E0"/>
<path d="M149.592 89.76H115.232V126.288H149.592V89.76Z" fill="#F5F5F5"/>
<path d="M146.712 123.408V92.64H118.112V123.408H146.712Z" fill="white"/>
<path d="M132.416 100.24L124.592 113.792H140.24L132.416 100.24Z" fill="#F5F5F5"/>
<path d="M200 342.048C285.666 342.048 355.112 337.993 355.112 332.992C355.112 327.99 285.666 323.936 200 323.936C114.334 323.936 44.8882 327.99 44.8882 332.992C44.8882 337.993 114.334 342.048 200 342.048Z" fill="#F5F5F5"/>
<path d="M279.4 130.744L271.464 127.544C271.464 127.544 260.992 146.64 257.992 147.608C253.912 148.92 245.464 152.568 240.456 153.208C239.776 154.008 238.664 156.496 238.768 157.4C245.496 159.648 260.28 156.664 263.448 154.312C270.656 148.976 279.4 130.744 279.4 130.744Z" fill="#E58A7B"/>
<path d="M281.84 126.4C283.32 131.864 275.304 142.856 275.304 142.856L264.8 136.968C264.8 136.968 266.768 132.448 269.168 127.848C273.016 120.416 280.152 120.168 281.84 126.4Z" fill="#244BA5"/>
<path opacity="0.2" d="M281.84 126.4C283.32 131.864 275.304 142.856 275.304 142.856L264.8 136.968C264.8 136.968 266.768 132.448 269.168 127.848C273.016 120.416 280.152 120.168 281.84 126.4Z" fill="black"/>
<path opacity="0.2" d="M268.968 139.32L273.104 141.64L273.832 128.944C271.424 130.792 269.728 136.36 268.968 139.32Z" fill="black"/>
<path d="M274.928 122.288C274.928 122.288 266.752 140.48 271.52 174.352H303.736C304.248 169.408 302.552 145.28 308.688 121.984C305.154 121.293 301.578 120.836 297.984 120.616C293.425 120.352 288.855 120.352 284.296 120.616C281.136 120.937 278.004 121.496 274.928 122.288Z" fill="#244BA5"/>
<path opacity="0.2" d="M274.928 122.288C274.928 122.288 266.752 140.48 271.52 174.352H303.736C304.248 169.408 302.552 145.28 308.688 121.984C305.154 121.293 301.578 120.836 297.984 120.616C293.425 120.352 288.855 120.352 284.296 120.616C281.136 120.937 278.004 121.496 274.928 122.288Z" fill="black"/>
<g style="mix-blend-mode:multiply">
<path d="M267.456 333.712C267.408 334.576 279.624 335.272 294.736 335.272C309.848 335.272 322.152 334.576 322.2 333.712C322.248 332.848 310.04 332.16 294.92 332.16C279.8 332.16 267.512 332.856 267.456 333.712Z" fill="#E8ECF1"/>
</g>
<path d="M288.96 311.01L283.247 313.222L288.169 325.937L293.882 323.725L288.96 311.01Z" fill="#E58A7B"/>
<path d="M314.44 327.56H308.416L306.208 313.616H312.232L314.44 327.56Z" fill="#E58A7B"/>
<path d="M308 326.864H314.768C314.885 326.864 314.999 326.906 315.088 326.983C315.178 327.059 315.237 327.164 315.256 327.28L316.128 332.632C316.146 332.766 316.136 332.903 316.097 333.033C316.057 333.162 315.991 333.282 315.901 333.384C315.812 333.486 315.701 333.567 315.577 333.622C315.454 333.677 315.32 333.705 315.184 333.704C312.824 333.664 311.688 333.52 308.712 333.52C306.88 333.52 303.112 333.712 300.568 333.712C298.024 333.712 297.856 331.216 298.904 330.984C303.608 329.968 305.432 328.584 307 327.24C307.276 326.997 307.632 326.863 308 326.864Z" fill="#263238"/>
<path d="M288 324.8L294.4 322.928C294.514 322.896 294.636 322.904 294.745 322.95C294.854 322.997 294.944 323.079 295 323.184L297.4 327.984C297.455 328.106 297.484 328.238 297.483 328.372C297.482 328.506 297.452 328.638 297.395 328.759C297.338 328.881 297.255 328.988 297.152 329.074C297.049 329.159 296.929 329.222 296.8 329.256C294.472 329.896 292.912 330.288 290 331.136C287.992 331.72 285.944 332.672 283.96 333.304C282.584 333.744 279.352 333.76 277.68 333.76C275.208 333.76 274.656 331.152 275.72 331.032C278.4 330.736 278.76 330.872 280.24 330.128C282.661 329.069 284.856 327.554 286.704 325.664C287.052 325.267 287.499 324.969 288 324.8Z" fill="#263238"/>
<path d="M241.464 153.176L234.84 150.4L232.112 157.744C234.827 158.158 237.589 158.158 240.304 157.744L241.464 153.176Z" fill="#E58A7B"/>
<path d="M229.912 150.208L229.736 155.088L232.112 157.728L234.84 150.384L229.912 150.208Z" fill="#E58A7B"/>
<path d="M289.744 312.09L284.013 314.303L286.551 320.878L292.283 318.665L289.744 312.09Z" fill="#CF6F64"/>
<path d="M312.232 313.616H306.208L307.352 320.808H313.376L312.232 313.616Z" fill="#CF6F64"/>
<path opacity="0.2" d="M270.496 165.192C270.616 166.64 270.752 168.12 270.928 169.64L294.88 161.864C298.62 160.755 301.871 158.405 304.096 155.2C304.192 153.064 304.312 150.816 304.496 148.472C304.576 147.336 304.672 146.168 304.776 144.984C304.88 143.8 305.024 142.488 305.176 141.224L270.496 165.192Z" fill="black"/>
<path d="M278.32 138.952L277.52 138.856C277.992 134.856 280.976 131.704 284.12 131.784V132.584C281.368 132.528 278.744 135.368 278.32 138.952Z" fill="white"/>
<path d="M282.584 146.336H282.448V145.536C285.2 145.64 287.784 142.768 288.208 139.192L289.008 139.288C288.584 143.2 285.696 146.336 282.584 146.336Z" fill="white"/>
<path d="M297.536 105.2C296.408 109.608 295.08 117.68 297.984 120.616C297.984 120.616 295.952 125.088 287.768 125.088C280.288 125.088 284.296 120.616 284.296 120.616C289.272 119.448 289.36 115.816 288.704 112.376L297.536 105.2Z" fill="#E58A7B"/>
<path d="M293.936 108.128L288.712 112.376C288.874 113.166 288.968 113.969 288.992 114.776C290.52 116.296 293.584 112.448 293.896 110.48C294.054 109.705 294.068 108.908 293.936 108.128Z" fill="#CF6F64"/>
<path d="M279.728 105.144C280.092 105.774 280.581 106.322 281.166 106.755C281.751 107.187 282.419 107.494 283.128 107.656C285.048 108.08 286.008 106.312 285.48 104.536C285.008 102.936 283.432 100.784 281.48 101.152C281.062 101.238 280.671 101.423 280.339 101.692C280.007 101.96 279.744 102.304 279.572 102.695C279.401 103.086 279.325 103.512 279.353 103.939C279.38 104.365 279.508 104.778 279.728 105.144Z" fill="#CF6F64"/>
<path d="M282.904 91.04C279.912 92.408 278.856 104.296 282.616 106.056C286.376 107.816 288.568 88.44 282.904 91.04Z" fill="#263238"/>
<path d="M298.448 98.568C297.728 104.536 297.648 108.048 294.448 111.104C293.456 112.118 292.204 112.839 290.829 113.186C289.453 113.533 288.009 113.493 286.655 113.071C285.301 112.649 284.09 111.861 283.155 110.794C282.221 109.726 281.6 108.422 281.36 107.024C280.392 101.664 281.728 92.808 287.712 90.432C288.969 89.8774 290.352 89.6692 291.717 89.829C293.082 89.9888 294.379 90.5107 295.474 91.3407C296.569 92.1707 297.423 93.2785 297.945 94.5493C298.468 95.8201 298.642 97.2076 298.448 98.568Z" fill="#E58A7B"/>
<path d="M288.616 94.128C293.048 93 296.304 92.232 295.136 95.92C293.592 100.848 291.736 105.616 294.224 105.832C295.744 105.968 302.464 103.12 301.608 100.232C300.864 97.72 304.008 97.032 304.568 95.76C306.64 91.152 300.712 91.76 301.768 88.96C302.824 86.16 296.968 81.648 293.768 83.896C288.56 87.528 279.624 87.472 284.32 81.496C287.688 77.232 281.68 78.104 281.68 78.104C281.68 78.104 285.312 80.256 279.2 83.584C272.736 87.136 278.664 96.68 288.616 94.128Z" fill="#263238"/>
<path d="M300.8 105.144C299.925 106.41 298.61 107.305 297.112 107.656C295.136 108.08 294.376 106.312 295.12 104.536C295.784 102.936 297.608 100.784 299.496 101.152C301.384 101.52 301.816 103.576 300.8 105.144Z" fill="#E58A7B"/>
<path d="M271.52 174.352C271.52 174.352 266.112 222.752 265.688 241.12C265.256 260.224 284.016 319.832 284.016 319.832L293.616 315.832C293.616 315.832 282.416 261.368 284.016 242.608C285.712 222.152 292.72 174.384 292.72 174.384L271.52 174.352Z" fill="#244BA5"/>
<path opacity="0.2" d="M284.96 187.64C280.648 196.584 283.552 214.272 285.888 224.752C286.776 217.352 287.832 209.32 288.832 201.888C288.736 190.464 287.848 181.64 284.96 187.64Z" fill="black"/>
<path d="M293.192 312.664C293.24 312.664 294.328 315.72 294.328 315.72L283.256 320.376L281.512 317.128L293.192 312.664Z" fill="#244BA5"/>
<path d="M282.952 174.352C282.952 174.352 287.088 220.384 289.824 237.624C292.832 256.512 304.624 319.416 304.624 319.416H315.656C315.656 319.416 309.048 258.04 307.8 239.336C306.44 219.048 303.736 174.352 303.736 174.352H282.952Z" fill="#244BA5"/>
<path d="M315.824 316.544C315.872 316.544 316.192 319.624 316.192 319.624H304.064L303.2 316.088L315.824 316.544Z" fill="#244BA5"/>
<path opacity="0.2" d="M311.6 312.896C311.575 312.896 311.551 312.888 311.532 312.871C311.512 312.855 311.5 312.833 311.496 312.808C311.432 312.248 305.472 256.808 304.352 240.008C303.136 221.784 300.688 181.36 300.664 180.952C300.663 180.939 300.664 180.925 300.669 180.913C300.673 180.9 300.68 180.889 300.689 180.879C300.698 180.869 300.709 180.861 300.721 180.856C300.733 180.851 300.747 180.848 300.76 180.848C300.786 180.848 300.811 180.858 300.831 180.876C300.85 180.893 300.862 180.918 300.864 180.944C300.864 181.352 303.336 221.744 304.552 240C305.672 256.8 311.632 312.2 311.688 312.8C311.69 312.813 311.69 312.827 311.686 312.84C311.683 312.853 311.677 312.865 311.669 312.876C311.66 312.886 311.65 312.895 311.638 312.901C311.626 312.907 311.613 312.911 311.6 312.912V312.896Z" fill="black"/>
<path d="M289.296 100.232C289.296 100.72 288.992 101.112 288.672 101.112C288.352 101.112 288.12 100.72 288.152 100.232C288.184 99.744 288.456 99.352 288.776 99.352C289.096 99.352 289.328 99.752 289.296 100.232Z" fill="#263238"/>
<path d="M283.808 100.232C283.808 100.72 283.496 101.112 283.184 101.112C282.872 101.112 282.632 100.72 282.656 100.232C282.68 99.744 282.968 99.352 283.288 99.352C283.608 99.352 283.84 99.752 283.808 100.232Z" fill="#263238"/>
<path d="M285.536 100.48C284.868 101.97 284.008 103.366 282.976 104.632C283.776 105.432 285.272 105.064 285.272 105.064L285.536 100.48Z" fill="#DF5753"/>
<path d="M285.68 107.104C285.661 107.104 285.643 107.1 285.626 107.093C285.609 107.086 285.593 107.075 285.581 107.061C285.568 107.048 285.558 107.032 285.552 107.015C285.545 106.997 285.543 106.979 285.544 106.96C285.546 106.921 285.563 106.884 285.591 106.858C285.619 106.831 285.657 106.816 285.696 106.816C286.308 106.82 286.913 106.687 287.466 106.427C288.02 106.167 288.509 105.786 288.896 105.312C288.923 105.288 288.959 105.274 288.996 105.274C289.032 105.274 289.068 105.288 289.096 105.312C289.122 105.339 289.136 105.375 289.136 105.412C289.136 105.449 289.122 105.485 289.096 105.512C288.681 106.016 288.159 106.42 287.568 106.695C286.977 106.971 286.332 107.11 285.68 107.104Z" fill="#263238"/>
<path d="M290.272 98.76C290.234 98.7797 290.191 98.7899 290.148 98.7899C290.105 98.7899 290.062 98.7797 290.024 98.76C289.725 98.5665 289.384 98.4462 289.03 98.4087C288.675 98.3711 288.317 98.4175 287.984 98.544C287.952 98.5602 287.916 98.5698 287.88 98.5721C287.844 98.5745 287.807 98.5695 287.773 98.5576C287.739 98.5457 287.707 98.527 287.68 98.5027C287.653 98.4784 287.631 98.4489 287.616 98.416C287.586 98.3448 287.586 98.2648 287.614 98.1931C287.642 98.1214 287.698 98.0636 287.768 98.032C288.186 97.8612 288.64 97.7938 289.089 97.8356C289.539 97.8774 289.972 98.0271 290.352 98.272C290.383 98.2928 290.409 98.3196 290.429 98.3506C290.449 98.3817 290.463 98.4165 290.47 98.4529C290.477 98.4894 290.476 98.5269 290.468 98.5631C290.46 98.5993 290.445 98.6336 290.424 98.664C290.384 98.7099 290.331 98.7432 290.272 98.76Z" fill="#263238"/>
<path d="M281.688 97.16C281.645 97.1497 281.606 97.1275 281.576 97.096C281.549 97.0699 281.528 97.0388 281.514 97.0045C281.499 96.9701 281.492 96.9333 281.492 96.896C281.492 96.8588 281.499 96.8219 281.514 96.7875C281.528 96.7532 281.549 96.7221 281.576 96.696C281.882 96.3521 282.264 96.0837 282.692 95.9116C283.119 95.7395 283.58 95.6685 284.04 95.704C284.077 95.7097 284.112 95.7229 284.143 95.7427C284.175 95.7626 284.202 95.7887 284.223 95.8194C284.244 95.8502 284.258 95.8849 284.265 95.9215C284.272 95.958 284.272 95.9957 284.264 96.032C284.247 96.1061 284.203 96.1713 284.141 96.2155C284.079 96.2597 284.003 96.2798 283.928 96.272C283.564 96.2491 283.2 96.3092 282.863 96.4478C282.527 96.5864 282.226 96.7999 281.984 97.072C281.947 97.1125 281.9 97.1421 281.848 97.1577C281.796 97.1732 281.74 97.174 281.688 97.16Z" fill="#263238"/>
<path d="M311.784 129.856L303.464 127.64C303.464 127.64 295.304 147.728 292.416 149.032C288.496 150.824 278.568 157.032 274.344 159.968C274.112 160.968 274.296 163.616 274.824 164.344C282.024 163.032 295.808 157.728 298.688 155.032C305.256 148.88 311.784 129.856 311.784 129.856Z" fill="#E58A7B"/>
<path d="M305.976 327.92C305.57 327.952 305.165 327.842 304.832 327.608C304.729 327.515 304.652 327.397 304.608 327.265C304.565 327.133 304.556 326.992 304.584 326.856C304.589 326.771 304.617 326.689 304.665 326.619C304.712 326.548 304.778 326.492 304.856 326.456C305.528 326.112 307.408 327.304 307.624 327.44C307.647 327.455 307.666 327.477 307.676 327.503C307.686 327.529 307.687 327.557 307.68 327.584C307.673 327.612 307.659 327.638 307.639 327.659C307.62 327.68 307.595 327.695 307.568 327.704C307.046 327.832 306.513 327.905 305.976 327.92ZM305.176 326.672C305.115 326.659 305.052 326.659 304.992 326.672C304.961 326.688 304.936 326.712 304.919 326.742C304.901 326.771 304.894 326.806 304.896 326.84C304.874 326.933 304.878 327.03 304.906 327.121C304.934 327.213 304.986 327.295 305.056 327.36C305.368 327.64 306.152 327.672 307.184 327.472C306.569 327.067 305.877 326.795 305.152 326.672H305.176Z" fill="#244BA5"/>
<path d="M307.528 327.704C307.507 327.711 307.484 327.711 307.464 327.704C306.864 327.368 305.736 326.048 305.904 325.376C305.929 325.269 305.989 325.174 306.074 325.106C306.16 325.038 306.266 325.001 306.376 325C306.483 324.986 306.592 324.995 306.696 325.026C306.799 325.058 306.895 325.112 306.976 325.184C307.64 325.752 307.68 327.496 307.68 327.584C307.683 327.61 307.678 327.637 307.665 327.66C307.652 327.683 307.632 327.702 307.608 327.712C307.581 327.717 307.553 327.715 307.528 327.704ZM306.456 325.264H306.4C306.216 325.264 306.192 325.368 306.184 325.408C306.088 325.8 306.8 326.8 307.392 327.272C307.389 326.596 307.18 325.937 306.792 325.384C306.699 325.303 306.579 325.26 306.456 325.264Z" fill="#244BA5"/>
<path d="M284.736 326.92C284.246 327.091 283.713 327.091 283.224 326.92C283.113 326.86 283.019 326.773 282.95 326.666C282.881 326.56 282.841 326.438 282.832 326.312C282.822 326.233 282.832 326.153 282.861 326.078C282.891 326.004 282.938 325.939 283 325.888C283.64 325.312 286.256 325.888 286.552 326C286.58 326.007 286.605 326.024 286.622 326.047C286.64 326.07 286.649 326.099 286.648 326.128C286.649 326.158 286.641 326.188 286.626 326.213C286.61 326.239 286.587 326.259 286.56 326.272C285.971 326.538 285.361 326.755 284.736 326.92ZM283.432 325.968C283.34 325.986 283.255 326.028 283.184 326.088C283.158 326.107 283.139 326.133 283.128 326.163C283.116 326.192 283.114 326.225 283.12 326.256C283.125 326.34 283.151 326.421 283.196 326.493C283.241 326.564 283.303 326.623 283.376 326.664C283.8 326.888 284.784 326.712 286.056 326.176C285.199 325.96 284.312 325.89 283.432 325.968Z" fill="#244BA5"/>
<path d="M286.536 326.272H286.472C285.672 326.128 284.072 325.208 284.024 324.52C284.024 324.36 284.096 324.136 284.48 324.008C284.61 323.962 284.747 323.942 284.885 323.951C285.022 323.959 285.157 323.995 285.28 324.056C286.144 324.48 286.6 326.016 286.624 326.088C286.63 326.112 286.629 326.137 286.622 326.161C286.615 326.185 286.602 326.207 286.584 326.224C286.572 326.244 286.556 326.26 286.536 326.272ZM284.64 324.248H284.56C284.312 324.336 284.312 324.44 284.312 324.472C284.312 324.888 285.472 325.648 286.28 325.904C286.094 325.261 285.7 324.699 285.16 324.304C284.999 324.222 284.814 324.202 284.64 324.248Z" fill="#244BA5"/>
<path d="M275.024 159.496L266.68 163.336L265.712 165.736L268.792 167.808C268.792 167.808 274.552 167.184 276.192 163.48L275.024 159.496Z" fill="#E58A7B"/>
<path d="M275.376 164.48C275.189 162.877 274.66 161.333 273.824 159.952L275.144 158.96C276.137 160.551 276.77 162.339 277 164.2L275.376 164.48Z" fill="#263238"/>
<path d="M276.8 160.632C276.976 160.909 277.063 161.234 277.048 161.563C277.033 161.891 276.917 162.207 276.717 162.468C276.516 162.728 276.24 162.92 275.926 163.018C275.612 163.116 275.276 163.115 274.962 163.015C274.649 162.914 274.375 162.72 274.176 162.458C273.977 162.197 273.863 161.88 273.851 161.551C273.838 161.223 273.927 160.899 274.106 160.622C274.284 160.346 274.543 160.132 274.848 160.008C275.19 159.834 275.587 159.802 275.952 159.918C276.318 160.035 276.622 160.292 276.8 160.632Z" fill="#263238"/>
<path d="M261.04 166.44L262.152 167.56L269.64 164.36L266.68 163.336L261.04 166.44Z" fill="#E58A7B"/>
<path opacity="0.2" d="M293.192 312.664C293.24 312.664 294.328 315.72 294.328 315.72L283.256 320.376L281.512 317.128L293.192 312.664Z" fill="black"/>
<path opacity="0.2" d="M315.824 316.544C315.872 316.544 316.192 319.624 316.192 319.624H304.064L303.2 316.088L315.824 316.544Z" fill="black"/>
<path d="M313.952 127.552C316.152 134.648 307.552 144.352 307.552 144.352L295.672 139.504C297.08 135.403 298.704 131.378 300.536 127.448C304.184 119.584 311.728 120.392 313.952 127.552Z" fill="#244BA5"/>
<path opacity="0.2" d="M313.952 127.552C316.152 134.648 307.552 144.352 307.552 144.352L295.672 139.504C297.08 135.403 298.704 131.378 300.536 127.448C304.184 119.584 311.728 120.392 313.952 127.552Z" fill="black"/>
<path d="M195.904 56.456H190.792V57.28H195.904V56.456Z" fill="#244BA5"/>
<path d="M262.079 89.0692L261.46 102.799L262.283 102.836L262.902 89.1063L262.079 89.0692Z" fill="#244BA5"/>
<path d="M260.488 60.152H166.088L157.304 256.728H251.704L260.488 60.152Z" fill="#244BA5"/>
<path opacity="0.56" d="M257.672 62.856H163.272L154.488 259.432H248.888L257.672 62.856Z" fill="#FAFAFA"/>
<path opacity="0.07" d="M254.856 65.552H160.456L151.664 262.128H246.064L254.856 65.552Z" fill="#244BA5"/>
<path d="M244.112 151.288H163.536L162.864 166.328H243.44L244.112 151.288Z" fill="white"/>
<path d="M207.848 140.312H164.024L163.728 147.04H207.552L207.848 140.312Z" fill="#244BA5"/>
<path d="M242.296 191.88H161.72L161.048 206.92H241.624L242.296 191.88Z" fill="white"/>
<path opacity="0.47" d="M227.52 227.232H173.336L172.528 245.256H226.712L227.52 227.232Z" fill="#244BA5"/>
<path d="M223.896 248.056H169.712C169.689 248.062 169.664 248.062 169.64 248.056C169.632 248.033 169.632 248.007 169.64 247.984L170.44 229.952C170.44 229.94 170.443 229.928 170.448 229.916C170.453 229.905 170.46 229.895 170.469 229.887C170.478 229.878 170.488 229.872 170.5 229.868C170.512 229.864 170.524 229.863 170.536 229.864H224.72C224.73 229.859 224.741 229.856 224.752 229.856C224.763 229.856 224.774 229.859 224.784 229.864C224.79 229.874 224.793 229.885 224.793 229.896C224.793 229.907 224.79 229.918 224.784 229.928L224 248C223.991 248.019 223.976 248.034 223.957 248.044C223.938 248.054 223.917 248.058 223.896 248.056ZM169.808 247.864H223.8L224.6 230.024H170.608L169.808 247.864Z" fill="white"/>
<path d="M198.384 180.904H162.208L161.912 187.64H198.08L198.384 180.904Z" fill="#244BA5"/>
<path d="M226.488 102.704C226.281 107.081 224.725 111.287 222.032 114.744C220.039 117.355 217.474 119.475 214.534 120.941C211.594 122.407 208.357 123.18 205.072 123.2C202.417 123.22 199.787 122.697 197.342 121.662C194.897 120.627 192.69 119.102 190.857 117.182C189.024 115.262 187.603 112.987 186.682 110.497C185.762 108.007 185.361 105.355 185.504 102.704C185.785 97.2032 188.157 92.0177 192.135 88.2079C196.113 84.3981 201.396 82.2518 206.904 82.208C209.561 82.1832 212.194 82.7035 214.642 83.7367C217.089 84.7698 219.299 86.2939 221.135 88.2148C222.97 90.1357 224.392 92.4125 225.313 94.9046C226.234 97.3968 226.633 100.051 226.488 102.704Z" fill="white"/>
<path d="M228.416 86.496C228.364 87.6599 227.95 88.7785 227.232 89.696C226.701 90.3896 226.018 90.9526 225.236 91.3422C224.454 91.7318 223.594 91.9376 222.72 91.944C221.873 91.9491 221.039 91.7469 220.288 91.3551C219.538 90.9632 218.895 90.3936 218.416 89.696C217.781 88.7533 217.467 87.6312 217.52 86.496C217.597 85.0355 218.229 83.6596 219.286 82.6487C220.343 81.6378 221.745 81.0682 223.208 81.056C223.913 81.0496 224.613 81.1877 225.263 81.4618C225.913 81.7359 226.5 82.1403 226.988 82.6499C227.476 83.1596 227.854 83.7638 228.1 84.4252C228.346 85.0867 228.453 85.7914 228.416 86.496Z" fill="#244BA5"/>
<path d="M172.216 158.808C172.177 159.453 171.896 160.059 171.428 160.504C170.961 160.95 170.342 161.201 169.696 161.208C169.384 161.212 169.075 161.151 168.787 161.031C168.5 160.91 168.24 160.732 168.024 160.507C167.808 160.282 167.64 160.015 167.532 159.723C167.423 159.431 167.375 159.119 167.392 158.808C167.427 158.162 167.707 157.554 168.175 157.108C168.644 156.661 169.265 156.411 169.912 156.408C170.223 156.405 170.532 156.467 170.819 156.587C171.106 156.708 171.365 156.887 171.581 157.111C171.797 157.336 171.964 157.602 172.074 157.894C172.183 158.186 172.231 158.497 172.216 158.808Z" fill="#263238"/>
<path d="M183 158.808C182.963 159.453 182.682 160.061 182.214 160.506C181.746 160.952 181.126 161.203 180.48 161.208C180.169 161.211 179.86 161.15 179.574 161.028C179.287 160.907 179.028 160.729 178.813 160.504C178.598 160.279 178.431 160.013 178.323 159.721C178.215 159.429 178.167 159.119 178.184 158.808C178.218 158.163 178.498 157.556 178.964 157.11C179.431 156.664 180.05 156.413 180.696 156.408C181.008 156.404 181.317 156.465 181.604 156.585C181.892 156.706 182.152 156.884 182.368 157.109C182.584 157.334 182.751 157.601 182.86 157.893C182.969 158.185 183.016 158.497 183 158.808Z" fill="#263238"/>
<path d="M193.792 158.808C193.756 159.453 193.475 160.061 193.007 160.506C192.539 160.952 191.918 161.203 191.272 161.208C190.961 161.211 190.652 161.149 190.365 161.029C190.078 160.908 189.819 160.729 189.603 160.505C189.387 160.28 189.22 160.014 189.11 159.722C189.001 159.43 188.953 159.119 188.968 158.808C189.005 158.163 189.285 157.555 189.754 157.11C190.222 156.664 190.842 156.413 191.488 156.408C191.8 156.404 192.109 156.465 192.397 156.585C192.684 156.706 192.944 156.884 193.16 157.109C193.376 157.334 193.543 157.601 193.652 157.893C193.761 158.185 193.809 158.497 193.792 158.808Z" fill="#263238"/>
<path d="M170.4 199.4C170.362 200.045 170.08 200.651 169.613 201.096C169.145 201.542 168.526 201.793 167.88 201.8C167.569 201.803 167.26 201.741 166.973 201.621C166.686 201.5 166.426 201.321 166.211 201.097C165.995 200.872 165.827 200.606 165.718 200.314C165.609 200.022 165.561 199.711 165.576 199.4C165.613 198.755 165.893 198.147 166.361 197.702C166.829 197.256 167.45 197.005 168.096 197C168.407 196.997 168.716 197.059 169.003 197.179C169.29 197.3 169.55 197.479 169.765 197.703C169.981 197.928 170.149 198.194 170.258 198.486C170.367 198.778 170.415 199.089 170.4 199.4Z" fill="#263238"/>
<path d="M181.184 199.4C181.147 200.044 180.868 200.65 180.401 201.096C179.935 201.541 179.317 201.793 178.672 201.8C178.36 201.804 178.051 201.743 177.763 201.623C177.476 201.502 177.216 201.324 177 201.099C176.784 200.874 176.617 200.607 176.508 200.315C176.399 200.023 176.351 199.711 176.368 199.4C176.404 198.755 176.685 198.147 177.153 197.702C177.621 197.256 178.242 197.005 178.888 197C179.199 196.997 179.507 197.058 179.794 197.18C180.081 197.301 180.339 197.479 180.555 197.704C180.77 197.929 180.936 198.195 181.045 198.487C181.153 198.779 181.2 199.089 181.184 199.4Z" fill="#263238"/>
<path d="M192 199.4C191.964 200.045 191.683 200.653 191.215 201.098C190.747 201.544 190.127 201.795 189.48 201.8C189.169 201.801 188.861 201.74 188.574 201.618C188.288 201.497 188.029 201.319 187.814 201.094C187.598 200.87 187.43 200.604 187.321 200.313C187.211 200.021 187.162 199.711 187.176 199.4C187.215 198.755 187.496 198.149 187.964 197.704C188.431 197.258 189.05 197.007 189.696 197C190.008 196.996 190.317 197.057 190.605 197.177C190.892 197.298 191.152 197.476 191.368 197.701C191.584 197.926 191.752 198.193 191.86 198.485C191.969 198.777 192.017 199.089 192 199.4Z" fill="#263238"/>
<path d="M202.768 199.4C202.73 200.045 202.448 200.651 201.981 201.096C201.513 201.542 200.894 201.793 200.248 201.8C199.937 201.801 199.629 201.74 199.342 201.618C199.056 201.497 198.797 201.319 198.582 201.094C198.366 200.87 198.199 200.604 198.089 200.312C197.979 200.021 197.93 199.711 197.944 199.4C197.983 198.755 198.264 198.149 198.732 197.704C199.199 197.258 199.818 197.007 200.464 197C200.776 196.997 201.084 197.059 201.371 197.179C201.659 197.3 201.918 197.479 202.134 197.703C202.349 197.928 202.517 198.194 202.626 198.486C202.735 198.778 202.784 199.089 202.768 199.4Z" fill="#263238"/>
<path d="M213.6 199.4C213.562 200.045 213.28 200.651 212.813 201.096C212.345 201.542 211.726 201.793 211.08 201.8C210.768 201.804 210.459 201.743 210.172 201.623C209.884 201.502 209.624 201.324 209.408 201.099C209.192 200.874 209.025 200.607 208.916 200.315C208.807 200.023 208.76 199.711 208.776 199.4C208.813 198.755 209.094 198.147 209.562 197.702C210.03 197.256 210.65 197.005 211.296 197C211.608 196.997 211.916 197.059 212.203 197.179C212.49 197.3 212.75 197.479 212.965 197.703C213.181 197.928 213.349 198.194 213.458 198.486C213.567 198.778 213.615 199.089 213.6 199.4Z" fill="#263238"/>
<path d="M211.963 101.637C215.311 98.3621 215.489 93.1135 212.36 89.9136C209.23 86.7136 203.979 86.774 200.631 90.0484C197.282 93.3229 197.105 98.5714 200.234 101.771C203.363 104.971 208.614 104.911 211.963 101.637Z" fill="#244BA5"/>
<path d="M222.032 114.744C220.039 117.355 217.474 119.475 214.534 120.941C211.594 122.407 208.357 123.18 205.072 123.2C201.886 123.227 198.743 122.47 195.919 120.995C193.096 119.52 190.678 117.374 188.88 114.744C192.768 110.872 198.92 108.344 205.736 108.344C212.552 108.344 218.488 110.872 222.032 114.744Z" fill="#244BA5"/>
<path opacity="0.1" d="M211.963 101.637C215.311 98.3621 215.489 93.1135 212.36 89.9136C209.23 86.7136 203.979 86.774 200.631 90.0484C197.282 93.3229 197.105 98.5714 200.234 101.771C203.363 104.971 208.614 104.911 211.963 101.637Z" fill="white"/>
<path opacity="0.1" d="M222.032 114.744C220.039 117.355 217.474 119.475 214.534 120.941C211.594 122.407 208.357 123.18 205.072 123.2C201.886 123.227 198.743 122.47 195.919 120.995C193.096 119.52 190.678 117.374 188.88 114.744C192.768 110.872 198.92 108.344 205.736 108.344C212.552 108.344 218.488 110.872 222.032 114.744Z" fill="white"/>
<path d="M104.328 169.952C103.568 171.616 102.768 173.448 102.072 175.224C101.376 177 100.664 178.832 100.048 180.656C98.79 184.251 97.832 187.943 97.1837 191.696L97.0077 192.872C96.9909 193.074 97.0099 193.277 97.0637 193.472C97.2525 194.135 97.5499 194.762 97.9437 195.328C98.9711 196.793 100.163 198.135 101.496 199.328C102.901 200.635 104.375 201.866 105.912 203.016C107.448 204.2 109.064 205.352 110.656 206.44L109.16 209.248C105.358 207.592 101.75 205.523 98.3997 203.08C96.6123 201.776 94.9992 200.249 93.5997 198.536C92.7702 197.516 92.1233 196.36 91.6877 195.12C91.4344 194.345 91.3049 193.535 91.3037 192.72C91.3037 192.528 91.3037 192.248 91.3037 192.112V191.72L91.3837 190.92C91.8423 186.752 92.7187 182.641 93.9997 178.648C94.6237 176.68 95.2877 174.72 96.0477 172.808C96.8077 170.896 97.5917 169.024 98.5597 167.08L104.328 169.952Z" fill="#E58A7B"/>
<path d="M109.528 205.944L115.184 203.08L113.72 209.288C113.72 209.288 109.84 210.376 108.04 208.488L109.528 205.944Z" fill="#E58A7B"/>
<path d="M120.36 204.096L118.856 209.232L113.72 209.288L115.184 203.08L120.36 204.096Z" fill="#E58A7B"/>
<path d="M128.344 140C128.646 141.109 129.067 142.182 129.6 143.2C129.444 143.376 129.244 143.507 129.02 143.579C128.796 143.651 128.557 143.661 128.328 143.608L128.344 140Z" fill="#DF5753"/>
<path d="M128.176 140.048C128.507 140.048 128.776 139.636 128.776 139.128C128.776 138.62 128.507 138.208 128.176 138.208C127.844 138.208 127.576 138.62 127.576 139.128C127.576 139.636 127.844 140.048 128.176 140.048Z" fill="#263238"/>
<path d="M128 138.24L129.216 137.896C129.216 137.896 128.624 138.84 128 138.24Z" fill="#263238"/>
<path d="M112.72 145.872C113.448 149.592 114.176 156.416 111.568 158.904C111.568 158.904 112.592 162.68 119.512 162.68C127.12 162.68 123.144 158.904 123.144 158.904C118.992 157.912 119.096 154.832 119.824 151.936L112.72 145.872Z" fill="#E58A7B"/>
<path d="M110.696 137.392C111.08 143.608 111.112 146.248 114.248 149.44C118.976 154.24 126.528 152.416 128.008 146.24C129.344 140.64 128.496 131.424 122.408 128.952C121.072 128.401 119.617 128.201 118.181 128.369C116.746 128.538 115.377 129.07 114.205 129.915C113.032 130.76 112.095 131.89 111.481 133.198C110.867 134.507 110.596 135.95 110.696 137.392Z" fill="#E58A7B"/>
<path d="M111.312 130.4C108.192 131.536 104.032 130.688 105.664 140.312C107.392 150.504 104.736 153.856 104.736 153.856C104.736 153.856 116.568 156.376 128.648 153.704C128.648 153.704 124.96 147.256 125.992 142.504C127.312 136.504 126.272 134.288 126.272 134.288C126.272 134.288 115.696 128.8 111.312 130.4Z" fill="#263238"/>
<path d="M124.512 140.632C124.515 141.814 124.853 142.971 125.488 143.968C126.336 145.264 127.336 144.768 127.584 143.392C127.808 142.184 127.64 140.048 126.56 139.216C125.48 138.384 124.528 139.2 124.512 140.632Z" fill="#E58A7B"/>
<path d="M108.6 131.448C107.704 128.928 111.976 125.048 121.016 126.648C130.056 128.248 130.448 135.776 130.448 135.776L128.624 133.6L128.704 135.888L119.416 137.672L108.6 131.448Z" fill="#263238"/>
<path d="M109.368 159.328C109.315 158.963 109.406 158.591 109.623 158.292C109.839 157.993 110.164 157.791 110.528 157.728C113.344 157.264 119.744 156.32 122.96 156.768C125.36 157.104 125.984 158.496 126.088 159.64C126.104 159.84 126.077 160.042 126.009 160.231C125.941 160.42 125.834 160.592 125.693 160.736C125.553 160.88 125.384 160.993 125.196 161.066C125.009 161.139 124.809 161.171 124.608 161.16L110.704 160.536C110.376 160.519 110.064 160.39 109.821 160.17C109.577 159.95 109.417 159.652 109.368 159.328Z" fill="#244BA5"/>
<path opacity="0.6" d="M109.368 159.328C109.315 158.963 109.406 158.591 109.623 158.292C109.839 157.993 110.164 157.791 110.528 157.728C113.344 157.264 119.744 156.32 122.96 156.768C125.36 157.104 125.984 158.496 126.088 159.64C126.104 159.84 126.077 160.042 126.009 160.231C125.941 160.42 125.834 160.592 125.693 160.736C125.553 160.88 125.384 160.993 125.196 161.066C125.009 161.139 124.809 161.171 124.608 161.16L110.704 160.536C110.376 160.519 110.064 160.39 109.821 160.17C109.577 159.95 109.417 159.652 109.368 159.328Z" fill="black"/>
<path d="M117.408 299.088L122.568 302.672L131.2 290.968L126.04 287.392L117.408 299.088Z" fill="#E58A7B"/>
<path d="M105.376 298.856L110.824 301.96L118.464 289.584L113.016 286.48L105.376 298.856Z" fill="#E58A7B"/>
<path d="M131.192 290.968L126.744 297L121.584 293.424L126.032 287.392L131.192 290.968Z" fill="#CF6F64"/>
<path d="M113.008 286.48L118.464 289.592L114.528 295.968L109.072 292.856L113.008 286.48Z" fill="#CF6F64"/>
<path d="M121.76 198.4C121.76 198.4 141.904 223.784 138.12 248.064C135.072 267.672 117.392 294.224 117.392 294.224L109.08 290.096C114.939 278.356 119.938 266.207 124.04 253.744C125.305 249.875 125.674 245.769 125.119 241.736C124.565 237.703 123.102 233.849 120.84 230.464C110.632 215.56 94.2797 224.432 105.28 198.4H121.76Z" fill="#244BA5"/>
<path opacity="0.6" d="M121.76 198.4C121.76 198.4 141.904 223.784 138.12 248.064C135.072 267.672 117.392 294.224 117.392 294.224L109.08 290.096C114.939 278.356 119.938 266.207 124.04 253.744C125.305 249.875 125.674 245.769 125.119 241.736C124.565 237.703 123.102 233.849 120.84 230.464C110.632 215.56 94.2797 224.432 105.28 198.4H121.76Z" fill="black"/>
<path opacity="0.4" d="M131.64 214.704L128.712 211.792C128.712 212.024 134.384 247.04 135.976 256.88C136.915 254.005 137.635 251.064 138.128 248.08C140 236.168 136.088 224 131.64 214.704Z" fill="black"/>
<path d="M130.752 198.4C130.752 198.4 155.008 230.304 155.696 249.432C156.264 265.432 129.296 296.432 129.296 296.432L121.456 291.36C121.456 291.36 137.24 269.344 141.216 251.36C139.68 233.536 107.2 198.4 107.2 198.4H130.752Z" fill="#244BA5"/>
<path opacity="0.6" d="M130.752 198.4C130.752 198.4 155.008 230.304 155.696 249.432C156.264 265.432 129.296 296.432 129.296 296.432L121.456 291.36C121.456 291.36 137.24 269.344 141.216 251.36C139.68 233.536 107.2 198.4 107.2 198.4H130.752Z" fill="black"/>
<path d="M100.744 160.328C98.1516 160.944 95.6636 170.368 95.6636 170.368L105.8 177.136C105.8 177.136 109.176 169.68 107.992 166.416C106.768 163.016 104 159.552 100.744 160.328Z" fill="#244BA5"/>
<path opacity="0.2" d="M102.728 166.4L102.024 174.616L105.792 177.144C106.832 174.802 107.603 172.349 108.088 169.832L102.728 166.4Z" fill="black"/>
<path d="M133.752 160.512C133.752 160.512 136.744 161.56 130.752 198.392H105.264C105.696 187.992 105.704 181.592 100.744 160.328C104.313 159.593 107.93 159.117 111.568 158.904C115.421 158.628 119.29 158.628 123.144 158.904C128.12 159.36 133.752 160.512 133.752 160.512Z" fill="#244BA5"/>
<path d="M136.344 166.4C136.92 168 137.528 169.72 138.168 171.376C138.808 173.032 139.416 174.736 140.064 176.416L142.024 181.44L142.52 182.696L142.776 183.32L142.896 183.632C142.896 183.688 142.896 183.688 142.896 183.68C142.75 183.474 142.558 183.304 142.336 183.184C142.019 182.998 141.663 182.891 141.296 182.872C140.991 182.862 140.688 182.92 140.408 183.04C140.04 183.208 140.04 183.28 140.048 183.272C140.114 183.219 140.173 183.157 140.224 183.088C140.667 182.507 141.05 181.882 141.368 181.224C141.744 180.488 142.104 179.704 142.464 178.912C143.168 177.312 143.816 175.656 144.464 173.984C145.112 172.312 145.728 170.624 146.328 168.92L148.152 163.816L151.232 164.616C150.624 168.264 149.84 171.816 148.896 175.432C148.44 177.232 147.904 179.016 147.296 180.816C146.992 181.72 146.656 182.616 146.272 183.536C145.872 184.534 145.379 185.493 144.8 186.4C144.587 186.705 144.352 186.994 144.096 187.264C143.687 187.705 143.191 188.057 142.64 188.296C142.15 188.506 141.62 188.605 141.088 188.584C140.491 188.562 139.911 188.388 139.4 188.08C138.797 187.704 138.297 187.184 137.944 186.568C137.824 186.36 137.72 186.152 137.648 186L137.496 185.696L137.192 185.072L136.584 183.832C135.784 182.168 134.984 180.488 134.288 178.8C133.592 177.112 132.856 175.4 132.168 173.68C131.48 171.96 130.864 170.24 130.28 168.384L136.344 166.4Z" fill="#E58A7B"/>
<path d="M133.752 160.512C136.816 161.24 140.264 170.296 140.264 170.296L131.152 178.048C131.152 178.048 125.256 168.176 126.448 164.92C127.688 161.528 129.752 159.56 133.752 160.512Z" fill="#244BA5"/>
<path d="M149.6 160.952L152.8 158.28L155.024 161.744L153.384 164.632C153.384 164.632 150.776 167.032 148.472 165.808C148.106 164.986 148.018 164.067 148.222 163.191C148.426 162.315 148.909 161.529 149.6 160.952Z" fill="#E58A7B"/>
<path d="M158.576 158.288L158.336 159.16L153.272 160.008L152.776 158.28L158.576 158.288Z" fill="#E58A7B"/>
<path d="M129.92 296.84L120.784 290.936L122.424 288.088L132.688 294.4L129.92 296.84Z" fill="#244BA5"/>
<path d="M114.4 301.544C113.598 301.446 112.828 301.173 112.144 300.744C112.116 300.734 112.091 300.716 112.074 300.691C112.057 300.667 112.047 300.638 112.047 300.608C112.047 300.578 112.057 300.549 112.074 300.525C112.091 300.5 112.116 300.482 112.144 300.472C112.392 300.392 114.544 299.728 115.168 300.24C115.238 300.298 115.291 300.374 115.322 300.46C115.353 300.546 115.361 300.638 115.344 300.728C115.333 300.872 115.285 301.011 115.205 301.131C115.126 301.252 115.016 301.35 114.888 301.416C114.738 301.498 114.571 301.542 114.4 301.544ZM112.6 300.664C113.6 301.176 114.4 301.36 114.784 301.168C114.868 301.122 114.938 301.055 114.988 300.974C115.039 300.892 115.068 300.8 115.072 300.704C115.072 300.576 115.072 300.52 115 300.488C114.664 300.216 113.464 300.424 112.584 300.664H112.6Z" fill="#263238"/>
<path d="M112.2 300.8C112.158 300.799 112.118 300.782 112.088 300.752C112.076 300.73 112.07 300.705 112.07 300.68C112.07 300.655 112.076 300.63 112.088 300.608C112.088 300.536 112.608 298.8 113.424 298.408C113.528 298.36 113.641 298.336 113.756 298.336C113.871 298.336 113.984 298.36 114.088 298.408C114.2 298.443 114.298 298.516 114.364 298.613C114.431 298.71 114.463 298.826 114.456 298.944C114.4 299.664 112.936 300.656 112.264 300.824L112.2 300.8ZM113.752 298.616C113.674 298.618 113.598 298.638 113.528 298.672C113.032 298.912 112.624 299.848 112.424 300.416C113.128 300.12 114.096 299.336 114.128 298.896C114.128 298.824 114.128 298.736 113.944 298.656C113.884 298.624 113.819 298.602 113.752 298.592V298.616Z" fill="#263238"/>
<path d="M125.816 305C124.912 305 123.656 303.84 122.968 303.128C122.95 303.104 122.941 303.074 122.941 303.044C122.941 303.014 122.95 302.985 122.968 302.96C122.984 302.934 123.006 302.913 123.033 302.899C123.06 302.885 123.09 302.878 123.12 302.88C123.44 302.88 126.216 303.296 126.608 304.08C126.649 304.15 126.671 304.23 126.671 304.312C126.671 304.394 126.649 304.474 126.608 304.544C126.549 304.666 126.46 304.771 126.35 304.85C126.239 304.928 126.111 304.977 125.976 304.992L125.816 305ZM123.496 303.24C124.504 304.216 125.392 304.76 125.896 304.696C125.984 304.684 126.068 304.651 126.141 304.6C126.213 304.548 126.272 304.48 126.312 304.4C126.33 304.373 126.339 304.341 126.339 304.308C126.339 304.275 126.33 304.243 126.312 304.216C126.104 303.784 124.624 303.416 123.496 303.24Z" fill="#263238"/>
<path d="M123.584 303.2C123.404 303.205 123.224 303.192 123.048 303.16C123.023 303.156 123 303.146 122.98 303.131C122.96 303.115 122.945 303.095 122.936 303.072C122.924 303.048 122.917 303.022 122.917 302.996C122.917 302.97 122.924 302.944 122.936 302.92C122.984 302.864 124.064 301.56 125.088 301.472C125.378 301.449 125.665 301.541 125.888 301.728C126.2 302 126.184 302.24 126.104 302.392C125.904 302.936 124.52 303.2 123.584 303.2ZM123.376 302.904C124.272 302.952 125.704 302.656 125.888 302.264C125.888 302.264 125.952 302.136 125.744 301.96C125.661 301.888 125.564 301.834 125.46 301.801C125.355 301.768 125.245 301.757 125.136 301.768C124.446 301.961 123.832 302.36 123.376 302.912V302.904Z" fill="#263238"/>
<path d="M112.416 299.936L105.632 298.016C105.515 297.981 105.389 297.99 105.278 298.041C105.167 298.093 105.08 298.184 105.032 298.296L102.744 303.44C102.69 303.572 102.665 303.713 102.67 303.856C102.674 303.998 102.709 304.137 102.772 304.265C102.835 304.393 102.924 304.506 103.033 304.597C103.143 304.687 103.27 304.754 103.408 304.792C105.808 305.416 106.96 305.592 109.944 306.448C111.784 306.96 114.408 307.912 116.944 308.632C119.48 309.352 120.328 306.88 119.344 306.352C114.896 304 114.544 302.352 113.328 300.592C113.11 300.273 112.787 300.041 112.416 299.936Z" fill="#244BA5"/>
<path d="M123.152 302.192L117.36 298.192C117.262 298.12 117.141 298.087 117.02 298.099C116.899 298.111 116.786 298.167 116.704 298.256L112.864 302.384C112.77 302.491 112.701 302.616 112.659 302.752C112.618 302.888 112.606 303.031 112.624 303.171C112.642 303.312 112.69 303.447 112.764 303.568C112.839 303.689 112.938 303.793 113.056 303.872C115.096 305.24 116.152 305.792 118.704 307.56C120.304 308.648 123.4 311.064 125.56 312.568C127.72 314.072 129.328 312.008 128.56 311.192C125.12 307.52 124.368 305.216 123.8 303.128C123.701 302.749 123.472 302.418 123.152 302.192Z" fill="#244BA5"/>
<path d="M118.456 294.752L108.016 289.56L109.096 286.728L120.248 292.2L118.456 294.752Z" fill="#244BA5"/>
<path d="M104.88 196.896L104 199.2C103.912 199.376 104.12 199.56 104.416 199.56H130.88C131.112 199.56 131.304 199.448 131.32 199.304L131.544 197.016C131.544 196.864 131.36 196.728 131.112 196.728H105.296C105.218 196.721 105.14 196.732 105.067 196.761C104.995 196.791 104.931 196.837 104.88 196.896Z" fill="#244BA5"/>
<path opacity="0.4" d="M104.88 196.896L104 199.2C103.912 199.376 104.12 199.56 104.416 199.56H130.88C131.112 199.56 131.304 199.448 131.32 199.304L131.544 197.016C131.544 196.864 131.36 196.728 131.112 196.728H105.296C105.218 196.721 105.14 196.732 105.067 196.761C104.995 196.791 104.931 196.837 104.88 196.896Z" fill="white"/>
<path d="M109.048 199.784H108.352C108.216 199.784 108.112 199.712 108.12 199.624L108.448 196.656C108.448 196.576 108.576 196.504 108.712 196.504H109.408C109.544 196.504 109.648 196.576 109.64 196.656L109.312 199.624C109.304 199.712 109.184 199.784 109.048 199.784Z" fill="#244BA5"/>
<path d="M125.368 199.784H124.68C124.544 199.784 124.44 199.712 124.448 199.624L124.768 196.656C124.768 196.576 124.904 196.504 125.04 196.504H125.728C125.864 196.504 125.976 196.576 125.96 196.656L125.64 199.624C125.6 199.712 125.512 199.784 125.368 199.784Z" fill="#244BA5"/>
<g style="mix-blend-mode:multiply">
<path d="M108.44 335.264C120.276 335.264 129.872 334.569 129.872 333.712C129.872 332.855 120.276 332.16 108.44 332.16C96.6032 332.16 87.0078 332.855 87.0078 333.712C87.0078 334.569 96.6032 335.264 108.44 335.264Z" fill="#F5F5F5"/>
</g>
<path d="M121.496 331.52C117.704 330.416 113.496 329 110.952 327.52C110.88 327.472 110.8 327.448 110.728 327.408V310.24H118.4C118.982 310.206 119.53 309.95 119.93 309.525C120.33 309.101 120.553 308.539 120.553 307.956C120.553 307.373 120.33 306.811 119.93 306.387C119.53 305.962 118.982 305.706 118.4 305.672H110.768V227.416H106.16V305.672H98.536C98.2247 305.654 97.9129 305.699 97.6198 305.805C97.3267 305.912 97.0584 306.077 96.8315 306.291C96.6045 306.505 96.4237 306.763 96.3001 307.049C96.1766 307.336 96.1128 307.644 96.1128 307.956C96.1128 308.268 96.1766 308.576 96.3001 308.863C96.4237 309.149 96.6045 309.407 96.8315 309.621C97.0584 309.835 97.3267 310 97.6198 310.107C97.9129 310.213 98.2247 310.258 98.536 310.24H106.16V327.384C106.088 327.384 106.016 327.448 105.944 327.496C103.36 329 99.184 330.416 95.392 331.496C95.1359 331.573 94.9159 331.74 94.772 331.966C94.6281 332.191 94.5697 332.461 94.6074 332.726C94.6451 332.991 94.7764 333.234 94.9776 333.41C95.1787 333.586 95.4364 333.685 95.704 333.688H121.184C121.44 333.671 121.682 333.566 121.87 333.392C122.058 333.217 122.18 332.984 122.216 332.73C122.253 332.476 122.201 332.218 122.07 331.998C121.939 331.777 121.736 331.609 121.496 331.52Z" fill="#E0E0E0"/>
<path d="M122.672 219.448H94.2236C91.9349 219.448 90.0796 221.303 90.0796 223.592V232.048C90.0796 234.337 91.9349 236.192 94.2236 236.192H122.672C124.96 236.192 126.816 234.337 126.816 232.048V223.592C126.816 221.303 124.96 219.448 122.672 219.448Z" fill="#244BA5"/>
<path d="M93.96 236.2V237.656C93.96 238.856 95.264 239.832 96.864 239.832H120.064C121.664 239.832 122.968 238.856 122.968 237.656V236.2H93.96Z" fill="#244BA5"/>
<path opacity="0.3" d="M93.96 236.2V237.656C93.96 238.856 95.264 239.832 96.864 239.832H120.064C121.664 239.832 122.968 238.856 122.968 237.656V236.2H93.96Z" fill="white"/>
</svg>
