<svg width="400" height="400" viewBox="0 0 400 400" fill="none" xmlns="http://www.w3.org/2000/svg">
<path d="M400 305.92H0V306.12H400V305.92Z" fill="#EBEBEB"/>
<path d="M189.6 270.24H35.1279C33.9177 270.238 32.7579 269.756 31.903 268.899C31.048 268.043 30.5679 266.882 30.5679 265.672V48.528C30.5784 47.3248 31.0632 46.1744 31.917 45.3266C32.7708 44.4788 33.9246 44.0021 35.1279 44H189.6C190.811 44 191.973 44.4813 192.83 45.3379C193.687 46.1946 194.168 47.3565 194.168 48.568V265.672C194.168 266.884 193.687 268.045 192.83 268.902C191.973 269.759 190.811 270.24 189.6 270.24ZM35.1279 44.16C33.9708 44.1621 32.8618 44.6233 32.0444 45.4422C31.227 46.2611 30.7679 47.3709 30.7679 48.528V265.672C30.7679 266.829 31.227 267.939 32.0444 268.758C32.8618 269.577 33.9708 270.038 35.1279 270.04H189.6C190.758 270.038 191.867 269.577 192.686 268.758C193.505 267.94 193.966 266.83 193.968 265.672V48.528C193.966 47.3702 193.505 46.2604 192.686 45.4417C191.867 44.623 190.758 44.1621 189.6 44.16H35.1279Z" fill="#EBEBEB"/>
<path d="M362.648 270.24H208.168C206.957 270.238 205.797 269.756 204.94 268.9C204.084 268.044 203.602 266.883 203.6 265.672V48.528C203.613 47.3241 204.099 46.1737 204.954 45.3261C205.809 44.4785 206.964 44.002 208.168 44H362.648C363.85 44.0042 365.002 44.4818 365.854 45.3294C366.706 46.177 367.19 47.3262 367.2 48.528V265.672C367.2 266.881 366.721 268.04 365.868 268.896C365.015 269.753 363.857 270.236 362.648 270.24ZM208.168 44.16C207.01 44.1621 205.9 44.623 205.082 45.4417C204.263 46.2604 203.802 47.3702 203.8 48.528V265.672C203.802 266.83 204.263 267.94 205.082 268.758C205.9 269.577 207.01 270.038 208.168 270.04H362.648C363.806 270.038 364.916 269.577 365.734 268.758C366.553 267.94 367.014 266.83 367.016 265.672V48.528C367.014 47.3702 366.553 46.2604 365.734 45.4417C364.916 44.623 363.806 44.1621 362.648 44.16H208.168Z" fill="#EBEBEB"/>
<path d="M359.92 313.536H334.664V313.736H359.92V313.536Z" fill="#EBEBEB"/>
<path d="M268.272 311.368H241.544V311.568H268.272V311.368Z" fill="#EBEBEB"/>
<path d="M367.216 320.968H317.272V321.168H367.216V320.968Z" fill="#EBEBEB"/>
<path d="M57.3518 319.624H41.9678V319.824H57.3518V319.624Z" fill="#EBEBEB"/>
<path d="M88.712 319.624H64.48V319.824H88.712V319.624Z" fill="#EBEBEB"/>
<path d="M195.312 316.248H151.664V316.448H195.312V316.248Z" fill="#EBEBEB"/>
<path d="M221.8 198.264L340.504 198.264V73L221.8 73V198.264Z" fill="#E6E6E6"/>
<path d="M209.08 68.944H348.192C348.347 68.944 348.501 68.9747 348.644 69.0343C348.787 69.0939 348.917 69.1812 349.026 69.2913C349.136 69.4013 349.222 69.5319 349.281 69.6755C349.339 69.8191 349.369 69.9729 349.368 70.128C349.368 70.4399 349.244 70.739 349.024 70.9596C348.803 71.1801 348.504 71.304 348.192 71.304H209.08C208.925 71.3051 208.771 71.2754 208.628 71.2168C208.484 71.1582 208.353 71.0717 208.243 70.9624C208.133 70.8531 208.046 70.7231 207.986 70.5799C207.927 70.4367 207.896 70.2831 207.896 70.128C207.896 69.814 208.021 69.5128 208.243 69.2908C208.465 69.0687 208.766 68.944 209.08 68.944Z" fill="#E6E6E6"/>
<path d="M216.76 198.264L338.152 198.264V73L216.76 73V198.264Z" fill="#F0F0F0"/>
<path d="M221.8 202.944L340.504 202.944V198.264H221.8V202.944Z" fill="#E6E6E6"/>
<path d="M208.368 202.944L329.76 202.944V198.264L208.368 198.264V202.944Z" fill="#F0F0F0"/>
<path d="M331.096 191.216V80.056H223.808V191.216H331.096Z" fill="#FAFAFA"/>
<path d="M306.744 191.216L265.36 80.048H245.816L287.208 191.216H306.744Z" fill="white"/>
<path d="M283.008 191.216L241.624 80.048H234.008L275.392 191.216H283.008Z" fill="white"/>
<path d="M224.712 191.216V80.056H223.816V191.216H224.712Z" fill="#E6E6E6"/>
<g opacity="0.6">
<path d="M251.696 180.144H211.296L213.592 66.68H253.992L251.696 180.144Z" fill="#F0F0F0"/>
<path d="M267.432 180.144H235.96L238.256 66.68H269.728L267.432 180.144Z" fill="#E6E6E6"/>
<path d="M292.096 180.144H251.696L253.992 66.68H294.392L292.096 180.144Z" fill="#F0F0F0"/>
<path d="M307.832 180.144H276.36L278.656 66.68L310.128 66.672L307.832 180.144Z" fill="#E6E6E6"/>
<path d="M332.496 180.144H292.096L294.392 66.68L334.792 66.672L332.496 180.144Z" fill="#F0F0F0"/>
</g>
<path d="M176.504 180.832V60.296L68.5039 60.296L68.5039 180.832H176.504Z" fill="#EBEBEB"/>
<path d="M177.48 180.832V60.296H176.504V180.832H177.48Z" fill="#E0E0E0"/>
<path d="M76.5122 172.824H168.512V68.288L76.5122 68.288L76.5122 172.824Z" fill="#F5F5F5"/>
<path d="M125.904 176.296H151.816V140.032H125.904V176.296Z" fill="white"/>
<path d="M94.7358 179.464H120.64L122.504 143.192H96.5998L94.7358 179.464Z" fill="white"/>
<path d="M72.168 134.552H98.072L99.936 98.28H74.032L72.168 134.552Z" fill="white"/>
<path d="M151.447 101.498L171.372 102.372L172.594 74.4867L152.669 73.6133L151.447 101.498Z" fill="white"/>
<path d="M72.1684 90.2961L92.0933 91.1695L93.3156 63.2843L73.3908 62.4108L72.1684 90.2961Z" fill="white"/>
<path d="M172.179 106.744L152.237 106.48L151.867 134.389L171.809 134.654L172.179 106.744Z" fill="white"/>
<path d="M105.647 133.146L147.886 131.922L146.172 72.7948L103.934 74.0189L105.647 133.146Z" fill="white"/>
<path d="M94.376 305.92V195.2H49.968L49.968 305.92H94.376Z" fill="#F0F0F0"/>
<path d="M91.936 230.568V197.976H52.4V230.568H91.936Z" fill="#E6E6E6"/>
<path d="M91.936 266.088V233.496H52.4V266.088H91.936Z" fill="#E6E6E6"/>
<path d="M91.936 301.608V269.016H52.4V301.608H91.936Z" fill="#E6E6E6"/>
<path d="M67.9521 230.568V197.976H52.4001V230.568H67.9521Z" fill="#E0E0E0"/>
<path d="M67.9521 266.088V233.496H52.4001V266.088H67.9521Z" fill="#E0E0E0"/>
<path d="M67.9438 301.608V269.016H52.3919V301.608H67.9438Z" fill="#E0E0E0"/>
<path d="M106.432 305.92V195.2H94.3761V305.92H106.432Z" fill="#F5F5F5"/>
<path d="M141.856 305.92V195.2H97.4479V305.92H141.856Z" fill="#F0F0F0"/>
<path d="M139.416 230.568V197.976H99.88V230.568H139.416Z" fill="#E6E6E6"/>
<path d="M139.416 266.088V233.496H99.88V266.088H139.416Z" fill="#E6E6E6"/>
<path d="M139.424 301.6V269.008H99.8878V301.6H139.424Z" fill="#E6E6E6"/>
<path d="M115.432 230.568V197.976H99.8801V230.568H115.432Z" fill="#E0E0E0"/>
<path d="M115.432 266.088V233.496H99.8801V266.088H115.432Z" fill="#E0E0E0"/>
<path d="M115.424 301.608V269.016H99.8719V301.608H115.424Z" fill="#E0E0E0"/>
<path d="M153.912 305.92V195.2H141.856V305.92H153.912Z" fill="#F5F5F5"/>
<path d="M84.7999 259.68C84.7999 263.216 80.2239 266.08 74.5839 266.08C68.9439 266.08 64.3999 263.2 64.3999 259.68H84.7999Z" fill="#F0F0F0"/>
<path d="M84.8 254.896C84.8 258.432 80.224 261.296 74.584 261.296C68.944 261.296 64.376 258.432 64.376 254.896H84.8Z" fill="#F0F0F0"/>
<path d="M133.6 224.168C133.6 227.704 127.88 230.568 120.8 230.568C113.72 230.568 108 227.704 108 224.168H133.6Z" fill="#FAFAFA"/>
<path d="M133.6 219.376C133.6 222.912 127.88 225.776 120.8 225.776C113.72 225.776 108 222.904 108 219.376H133.6Z" fill="#FAFAFA"/>
<path d="M102.568 301.6H134.672V273.704H102.568V301.6Z" fill="#F0F0F0"/>
<path d="M139.416 273.712H134.664V301.608H139.416V273.712Z" fill="#E0E0E0"/>
<path d="M55.0879 230.568H87.1919V202.672H55.0879V230.568Z" fill="#F0F0F0"/>
<path d="M91.9361 202.672H87.1841V230.568H91.9361V202.672Z" fill="#E0E0E0"/>
<path d="M214.096 305.92H220.328V247.312H214.096V305.92Z" fill="#E6E6E6"/>
<path d="M212.424 305.92H216.096V247.312H212.424V305.92Z" fill="#F0F0F0"/>
<path d="M299.752 247.312H211.296V253.8H299.752V247.312Z" fill="#F0F0F0"/>
<path d="M339.304 305.92H345.536V247.312H339.304V305.92Z" fill="#E6E6E6"/>
<path d="M338.136 305.92H341.808V247.312H338.136V305.92Z" fill="#F0F0F0"/>
<path d="M346.648 247.312H302.416V253.8H346.648V247.312Z" fill="#E6E6E6"/>
<path d="M300.28 305.92H306.512V247.312H300.28V305.92Z" fill="#E6E6E6"/>
<path d="M298.616 305.92H302.288V247.312H298.616V305.92Z" fill="#F0F0F0"/>
<path d="M200 342.048C285.666 342.048 355.112 337.993 355.112 332.992C355.112 327.99 285.666 323.936 200 323.936C114.334 323.936 44.8882 327.99 44.8882 332.992C44.8882 337.993 114.334 342.048 200 342.048Z" fill="#F5F5F5"/>
<path d="M239.048 324.512L227.736 323.2V258.312H218.04V323.2L206.728 324.512L205.744 327.728H240.032L239.048 324.512Z" fill="#263238"/>
<path opacity="0.4" d="M239.048 324.512L227.736 323.2V258.312H218.04V323.2L206.728 324.512L205.744 327.728H240.032L239.048 324.512Z" fill="#244BA5"/>
<path d="M220 171H270.4C261.866 197.67 257.479 225.494 257.392 253.496H206.992C207.079 225.494 211.466 197.67 220 171Z" fill="#244BA5"/>
<path opacity="0.3" d="M220 171H270.4C261.866 197.67 257.479 225.494 257.392 253.496H206.992C207.079 225.494 211.466 197.67 220 171Z" fill="black"/>
<path d="M216.936 171H267.336C258.8 197.67 254.41 225.493 254.32 253.496H203.92C204.006 225.493 208.396 197.669 216.936 171Z" fill="#244BA5"/>
<path d="M245.816 261.24H174.472C177.472 254.712 182.928 250.712 188.816 250.712H240.984L245.816 261.24Z" fill="#244BA5"/>
<path d="M260.312 261.24H225.864C228.856 254.712 234.312 250.712 240.208 250.712H252.4C258.288 250.712 261.2 254.112 260.312 261.24Z" fill="#244BA5"/>
<path opacity="0.3" d="M260.312 261.24H225.864C228.856 254.712 234.312 250.712 240.208 250.712H252.4C258.288 250.712 261.2 254.112 260.312 261.24Z" fill="black"/>
<path d="M189.96 321.048L183.504 321.896L179.304 307.272L185.76 306.424L189.96 321.048Z" fill="#FFC3BD"/>
<path d="M182.696 320.208L189.896 319.256C190.017 319.237 190.14 319.266 190.24 319.336C190.34 319.406 190.409 319.512 190.432 319.632L191.536 325.32C191.577 325.621 191.498 325.926 191.315 326.169C191.132 326.412 190.861 326.572 190.56 326.616C188.032 326.904 186.808 326.912 183.624 327.336C181.664 327.592 174.92 328.528 172.192 328.544C169.464 328.56 169.6 325.864 170.72 325.6C175.896 324.48 180 322.4 181.632 320.744C181.918 320.453 182.292 320.264 182.696 320.208Z" fill="#263238"/>
<path opacity="0.2" d="M185.76 306.432L179.304 307.28L181.472 314.816L187.928 313.968L185.76 306.432Z" fill="black"/>
<path d="M211.136 227.28C211.136 227.28 160.536 230.904 162.576 249.44C165.512 276.088 176.976 311.08 176.976 311.08L188.712 309.064C188.712 309.064 183.8 276.8 181.192 256C193.816 250.768 228.056 255.784 232.072 244.88C234.042 239.232 234.562 233.181 233.584 227.28H211.136Z" fill="#263238"/>
<path opacity="0.3" d="M186.48 242.712C186.48 242.712 187.712 248.224 188.552 254.208H188.44L187.144 254.408L186.48 254.536L185.736 254.672C184.72 254.885 183.716 255.152 182.728 255.472L182.048 255.696C181.752 255.792 181.464 255.912 181.192 256.024C181.488 258.424 182.512 261.552 182.52 264.288C171.264 250.976 180.544 242.712 186.48 242.712Z" fill="black"/>
<path d="M190.552 311.728L176.784 313.536L174.928 308.584L188.712 305.496L190.552 311.728Z" fill="#244BA5"/>
<path d="M180.552 321.6C181.129 321.509 181.695 321.356 182.24 321.144C182.267 321.134 182.292 321.117 182.31 321.094C182.328 321.072 182.34 321.045 182.344 321.016C182.345 320.986 182.338 320.956 182.322 320.931C182.306 320.905 182.283 320.885 182.256 320.872C182.032 320.752 180.048 319.744 179.296 320.16C179.212 320.208 179.141 320.277 179.089 320.359C179.038 320.441 179.007 320.535 179 320.632C178.969 320.78 178.98 320.933 179.033 321.075C179.085 321.216 179.176 321.34 179.296 321.432C179.679 321.642 180.127 321.702 180.552 321.6ZM181.8 320.984C180.68 321.36 179.824 321.44 179.48 321.176C179.407 321.113 179.351 321.032 179.321 320.94C179.29 320.849 179.284 320.751 179.304 320.656C179.305 320.609 179.318 320.563 179.341 320.522C179.365 320.481 179.399 320.448 179.44 320.424C179.848 320.232 180.992 320.632 181.8 321.016V320.984Z" fill="#244BA5"/>
<path d="M182.208 321.184C182.229 321.192 182.251 321.192 182.272 321.184C182.295 321.169 182.313 321.149 182.326 321.125C182.338 321.101 182.344 321.075 182.344 321.048C182.344 320.976 182.24 319.096 181.504 318.56C181.412 318.487 181.303 318.438 181.188 318.415C181.072 318.393 180.953 318.399 180.84 318.432C180.711 318.453 180.594 318.516 180.505 318.612C180.417 318.708 180.363 318.83 180.352 318.96C180.296 319.68 181.44 320.904 182.128 321.2C182.156 321.203 182.184 321.197 182.208 321.184ZM180.984 318.688C181.106 318.672 181.229 318.704 181.328 318.776C181.763 319.35 182.004 320.048 182.016 320.768C181.392 320.368 180.616 319.432 180.656 318.96C180.656 318.864 180.696 318.752 180.912 318.704L180.984 318.688Z" fill="#244BA5"/>
<path d="M218.144 177.24C217.584 179.752 216.904 182.088 216.224 184.488C215.544 186.888 214.776 189.232 213.944 191.576C213.112 193.92 212.24 196.264 211.288 198.592C210.336 200.92 209.272 203.216 208.128 205.496L207.92 205.904L207.84 206.024C207.147 207.008 206.292 207.868 205.312 208.568C204.56 209.115 203.772 209.609 202.952 210.048C201.484 210.809 199.963 211.462 198.4 212C196.888 212.528 195.376 212.968 193.864 213.344C192.342 213.722 190.801 214.021 189.248 214.24L187.752 209.6L191.552 207.472C192.808 206.752 194.048 206.04 195.232 205.304C196.375 204.615 197.481 203.864 198.544 203.056C198.998 202.718 199.424 202.344 199.816 201.936C200.144 201.592 200.384 201.256 200.336 201.224L200.048 201.752C200.92 199.624 201.72 197.44 202.496 195.232C203.272 193.024 203.976 190.784 204.672 188.52C205.368 186.256 206.032 183.992 206.68 181.712C207.328 179.432 207.96 177.112 208.56 174.912L218.144 177.24Z" fill="#FFC3BD"/>
<path d="M207.568 175.504C202.28 181.576 198.768 190.072 198.768 190.072L212.608 198.4C216.608 193.528 221.584 180.656 221.784 176.312C222.096 169.64 213.264 168.968 207.568 175.504Z" fill="#244BA5"/>
<path opacity="0.5" d="M207.568 175.504C202.28 181.576 198.768 190.072 198.768 190.072L212.608 198.4C216.608 193.528 221.584 180.656 221.784 176.312C222.096 169.64 213.264 168.968 207.568 175.504Z" fill="white"/>
<path opacity="0.5" d="M212.44 181.696C209.424 184.232 207.28 189.504 206.344 194.624L212.608 198.392C214.584 195.992 216.8 191.632 218.56 187.296C217.152 183 215.104 179.456 212.44 181.696Z" fill="#244BA5"/>
<path d="M210.488 324.944H203.984L201 309.88H207.504L210.488 324.944Z" fill="#FFC3BD"/>
<path d="M203.776 323.36H211.088C211.21 323.356 211.329 323.399 211.418 323.482C211.508 323.564 211.562 323.678 211.568 323.8L211.92 329.584C211.922 329.888 211.804 330.181 211.591 330.398C211.379 330.615 211.088 330.74 210.784 330.744C208.24 330.696 207.024 330.552 203.808 330.552C201.832 330.552 195.128 330.752 192.4 330.752C189.672 330.752 189.744 328.056 190.904 327.808C196.088 326.712 200.824 325.2 202.656 323.76C202.975 323.506 203.369 323.365 203.776 323.36Z" fill="#263238"/>
<path opacity="0.2" d="M207.504 309.88H201L202.544 317.648H209.048L207.504 309.88Z" fill="black"/>
<path d="M223.88 227.28C223.88 227.28 181 230.904 182.056 249.528C183.208 269.92 199.72 315.776 199.72 315.776H211.632C211.632 315.776 206.24 274.288 203.632 253.52C215.72 253.52 240.8 255.8 244.816 244.896C246.779 239.351 247.174 233.372 245.96 227.616L223.88 227.28Z" fill="#263238"/>
<path d="M212.312 315.96L198.024 316.608L196.92 310.472L211.872 310.52L212.312 315.96Z" fill="#244BA5"/>
<path d="M201.472 324.496C202.057 324.478 202.639 324.401 203.208 324.264C203.236 324.257 203.262 324.242 203.282 324.22C203.302 324.199 203.315 324.173 203.32 324.144C203.326 324.115 203.324 324.085 203.312 324.058C203.301 324.031 203.281 324.008 203.256 323.992C203.048 323.848 201.208 322.584 200.416 322.896C200.326 322.932 200.246 322.991 200.184 323.067C200.123 323.142 200.081 323.232 200.064 323.328C200.021 323.466 200.016 323.614 200.049 323.755C200.083 323.895 200.155 324.025 200.256 324.128C200.6 324.4 201.035 324.531 201.472 324.496ZM202.792 324.04C201.624 324.272 200.768 324.24 200.464 323.936C200.401 323.862 200.358 323.773 200.34 323.678C200.322 323.582 200.329 323.484 200.36 323.392C200.367 323.345 200.387 323.3 200.416 323.262C200.445 323.224 200.484 323.195 200.528 323.176C200.952 323.016 202.032 323.56 202.792 324.04Z" fill="#244BA5"/>
<path d="M203.2 324.264H203.264C203.287 324.253 203.306 324.236 203.32 324.215C203.334 324.194 203.342 324.169 203.344 324.144C203.344 324.064 203.496 322.192 202.84 321.56C202.756 321.48 202.654 321.418 202.544 321.381C202.433 321.344 202.316 321.331 202.2 321.344C202.07 321.35 201.945 321.398 201.845 321.482C201.745 321.566 201.676 321.681 201.648 321.808C201.504 322.512 202.448 323.872 203.12 324.256C203.145 324.267 203.173 324.269 203.2 324.264ZM202.304 321.624C202.365 321.624 202.425 321.635 202.482 321.659C202.538 321.682 202.589 321.717 202.632 321.76C202.993 322.384 203.144 323.108 203.064 323.824C202.496 323.352 201.848 322.32 201.944 321.856C201.944 321.768 202.016 321.656 202.24 321.632L202.304 321.624Z" fill="#244BA5"/>
<path d="M190.832 209.776L183.56 207.952L184.072 215.728C184.072 215.728 191.272 215.728 191.88 213.608L190.832 209.776Z" fill="#FFC3BD"/>
<path d="M178.032 211.744L179.744 216.624L184.072 215.728L183.56 207.952L178.032 211.744Z" fill="#FFC3BD"/>
<path d="M211.2 227.616H245.984C246.232 224.512 245.512 214.4 246.048 201.528C246.378 191.99 247.535 182.498 249.504 173.16C249.664 172.456 249.824 171.768 249.992 171.064C249.992 171.064 248.224 170.704 245.696 170.336C243.6 170.024 240.968 169.712 238.392 169.592C233.468 169.308 228.532 169.308 223.608 169.592C221.336 169.8 219.112 170.176 217.344 170.52C215.08 170.976 213.744 171.368 213.744 171.368C213.744 171.368 205.152 191.04 211.2 227.616Z" fill="#244BA5"/>
<path opacity="0.5" d="M211.2 227.616H245.984C246.232 224.512 245.512 214.4 246.048 201.528C246.378 191.99 247.535 182.498 249.504 173.16C249.664 172.456 249.824 171.768 249.992 171.064C249.992 171.064 248.224 170.704 245.696 170.336C243.6 170.024 240.968 169.712 238.392 169.592C233.468 169.308 228.532 169.308 223.608 169.592C221.336 169.8 219.112 170.176 217.344 170.52C215.08 170.976 213.744 171.368 213.744 171.368C213.744 171.368 205.152 191.04 211.2 227.616Z" fill="white"/>
<path opacity="0.5" d="M246.024 201.536C246.355 191.995 247.511 182.501 249.48 173.16C247.16 172.96 243.184 173.16 242.528 176.944C241.816 180.976 241.76 190.4 246.024 201.536Z" fill="#244BA5"/>
<path d="M252.176 175.568C252.512 176.184 252.744 176.648 252.976 177.168C253.208 177.688 253.464 178.208 253.696 178.768C254.16 179.808 254.6 180.856 255.016 181.912C255.849 184.04 256.568 186.211 257.168 188.416C257.787 190.651 258.265 192.922 258.6 195.216C258.949 197.583 259.088 199.976 259.016 202.368V202.6V203.056C258.99 203.376 258.945 203.694 258.88 204.008C258.757 204.605 258.564 205.185 258.304 205.736C257.867 206.655 257.275 207.491 256.552 208.208C255.477 209.255 254.243 210.124 252.896 210.784C250.721 211.843 248.431 212.649 246.072 213.184C243.883 213.706 241.666 214.104 239.432 214.376C237.223 214.653 235.002 214.813 232.776 214.856L232.12 210.016C236.079 208.906 239.98 207.597 243.808 206.096C245.546 205.424 247.215 204.585 248.792 203.592C249.341 203.252 249.828 202.822 250.232 202.32C250.336 202.168 250.336 202.088 250.28 202.16C250.236 202.223 250.203 202.293 250.184 202.368C250.166 202.42 250.153 202.474 250.144 202.528C250.144 202.528 250.144 202.608 250.144 202.576V202.408C249.841 198.576 249.07 194.796 247.848 191.152C247.24 189.275 246.563 187.408 245.816 185.552C245.456 184.624 245.072 183.696 244.672 182.784L244.056 181.432L243.472 180.176L252.176 175.568Z" fill="#FFC3BD"/>
<path d="M249.968 171.064C243.632 169.064 239.568 174.128 241.328 182.904C243.088 191.68 245.328 194.952 245.328 194.952L260.144 192.856C258.936 184.248 256.448 173.112 249.968 171.064Z" fill="#244BA5"/>
<path opacity="0.5" d="M249.968 171.064C243.632 169.064 239.568 174.128 241.328 182.904C243.088 191.68 245.328 194.952 245.328 194.952L260.144 192.856C258.936 184.248 256.448 173.112 249.968 171.064Z" fill="white"/>
<path d="M238.048 153.008L234.096 156.288L228.704 160.8C228.864 161.518 228.978 162.244 229.048 162.976C229.336 165.904 228.584 168.576 224.288 169.576C224.288 169.576 220.056 173.528 228.512 173.648C236.968 173.768 238.912 169.648 238.912 169.648C235.72 166.448 236.952 157.768 238.048 153.008Z" fill="#FFC3BD"/>
<path d="M238.336 167.256C238.336 167.256 233.92 171.872 228.096 173.608C229.142 173.816 230.086 174.371 230.777 175.182C231.468 175.994 231.865 177.015 231.904 178.08C236.088 176.832 241.056 170.544 240.92 169.376C240.016 168.723 239.153 168.015 238.336 167.256Z" fill="white"/>
<path d="M226.216 168.56C226.216 168.56 222.264 171.872 228.096 173.608C227.025 173.737 226.018 174.188 225.209 174.903C224.401 175.617 223.828 176.561 223.568 177.608C222.533 176.458 221.908 174.997 221.793 173.453C221.677 171.91 222.076 170.372 222.928 169.08C224.034 168.978 225.133 168.804 226.216 168.56Z" fill="white"/>
<path opacity="0.2" d="M228.704 160.8C228.864 161.518 228.979 162.244 229.048 162.976C231.056 162.576 233.744 160.432 234.024 158.384C234.12 157.703 234.144 157.014 234.096 156.328L228.704 160.8Z" fill="black"/>
<path d="M223.544 138.4C220.888 140.6 221.368 149.112 223.92 148.328C226.472 147.544 227.928 134.784 223.544 138.4Z" fill="#263238"/>
<path d="M239.68 146.16C238.304 152.48 237.824 156.24 234.08 159.128C232.876 160.075 231.437 160.675 229.916 160.864C228.396 161.053 226.854 160.824 225.454 160.201C224.055 159.578 222.852 158.585 221.976 157.328C221.099 156.072 220.582 154.6 220.48 153.072C219.992 147.184 222.328 137.832 228.976 136.04C230.407 135.616 231.924 135.575 233.375 135.922C234.826 136.268 236.16 136.99 237.245 138.015C238.329 139.04 239.125 140.332 239.552 141.762C239.98 143.191 240.024 144.708 239.68 146.16Z" fill="#FFC3BD"/>
<path d="M237.6 150.496C236.576 149.232 236.504 146.016 237.232 144.992C236.136 144.12 235.04 141.304 235.888 140.192C233.744 140.048 222.648 142.712 220.44 134.744C221.589 134.94 222.763 134.94 223.912 134.744C223.912 134.744 221.656 130.992 225.656 129.872C226.24 131.768 231.064 131.96 233.456 131.872C238.36 131.672 243.952 133.712 241.688 137.52C245.272 139.096 245.856 146.056 237.6 150.496Z" fill="#263238"/>
<path d="M240.8 137.28C240.8 137.28 243.248 137.792 242.776 134.672C244.8 136.384 243.504 139.512 240.8 137.28Z" fill="#263238"/>
<path d="M240.712 152C239.855 153.114 238.62 153.877 237.24 154.144C235.448 154.464 234.904 152.816 235.696 151.224C236.408 149.784 238.2 147.888 239.848 148.296C241.496 148.704 241.776 150.624 240.712 152Z" fill="#FFC3BD"/>
<path d="M237.024 148.264C236.358 150.593 235.274 152.78 233.824 154.72C233.069 155.72 232.077 156.515 230.937 157.033C229.797 157.552 228.545 157.777 227.296 157.688C225 157.648 225.352 154.488 225.352 154.488L224.224 154.232C224.224 154.232 224.344 158.144 222.104 156.488C221.507 155.795 221.077 154.974 220.848 154.088C220.614 153.396 220.48 152.674 220.448 151.944C219.904 152.808 219.704 156.64 220.536 158.464C221.323 159.833 222.606 160.847 224.12 161.296C226.884 162.08 229.825 161.977 232.528 161C236.608 159.4 237.2 155.464 237.328 153.224C237.481 151.565 237.749 149.918 238.128 148.296L237.024 148.264Z" fill="#263238"/>
<path d="M228.848 146.736C228.768 147.256 228.432 147.64 228.088 147.6C227.744 147.56 227.536 147.104 227.616 146.592C227.696 146.08 228.04 145.68 228.416 145.72C228.792 145.76 228.928 146.216 228.848 146.736Z" fill="#263238"/>
<path d="M222.96 146.032C222.88 146.552 222.544 146.944 222.2 146.904C221.856 146.864 221.648 146.408 221.728 145.888C221.808 145.368 222.152 144.984 222.488 145.024C222.824 145.064 223.04 145.512 222.96 146.032Z" fill="#263238"/>
<path d="M224.8 146.24C224.147 147.578 223.318 148.824 222.336 149.944C222.627 150.177 222.966 150.343 223.328 150.431C223.69 150.518 224.068 150.524 224.432 150.448L224.8 146.24Z" fill="#ED847E"/>
<path d="M224.4 153.008C225.003 153.1 225.618 153.069 226.208 152.917C226.798 152.764 227.35 152.493 227.832 152.12C227.848 152.107 227.86 152.091 227.869 152.073C227.878 152.055 227.884 152.035 227.885 152.015C227.887 151.995 227.884 151.975 227.878 151.956C227.871 151.937 227.861 151.919 227.848 151.904C227.835 151.889 227.819 151.876 227.801 151.867C227.783 151.858 227.764 151.853 227.744 151.851C227.724 151.85 227.703 151.852 227.684 151.859C227.665 151.865 227.648 151.875 227.632 151.888C227.103 152.285 226.489 152.555 225.838 152.677C225.188 152.799 224.518 152.77 223.88 152.592C223.861 152.587 223.841 152.586 223.821 152.589C223.801 152.592 223.782 152.599 223.765 152.61C223.748 152.62 223.733 152.634 223.721 152.65C223.709 152.666 223.701 152.685 223.696 152.704C223.69 152.723 223.688 152.743 223.69 152.763C223.692 152.782 223.698 152.801 223.708 152.819C223.718 152.836 223.731 152.851 223.747 152.863C223.763 152.875 223.781 152.883 223.8 152.888C223.997 152.942 224.198 152.982 224.4 153.008Z" fill="#263238"/>
<path d="M232.192 143.52C232.244 143.511 232.291 143.485 232.328 143.448C232.357 143.42 232.379 143.386 232.395 143.349C232.41 143.312 232.418 143.272 232.418 143.232C232.418 143.192 232.41 143.152 232.395 143.115C232.379 143.078 232.357 143.044 232.328 143.016C232.015 142.647 231.615 142.361 231.164 142.183C230.713 142.006 230.225 141.943 229.744 142C229.704 142.006 229.666 142.02 229.631 142.041C229.596 142.062 229.566 142.089 229.542 142.122C229.518 142.155 229.501 142.192 229.492 142.232C229.483 142.271 229.481 142.312 229.488 142.352C229.504 142.432 229.55 142.503 229.618 142.55C229.685 142.596 229.768 142.614 229.848 142.6C230.225 142.564 230.604 142.618 230.956 142.757C231.308 142.896 231.622 143.117 231.872 143.4C231.907 143.451 231.956 143.489 232.013 143.511C232.07 143.532 232.133 143.536 232.192 143.52Z" fill="#263238"/>
<path d="M221.024 142.256C221.072 142.273 221.123 142.276 221.172 142.266C221.221 142.257 221.267 142.234 221.304 142.2C221.599 141.938 221.95 141.749 222.331 141.646C222.711 141.543 223.11 141.53 223.496 141.608C223.576 141.628 223.66 141.617 223.731 141.577C223.803 141.536 223.856 141.47 223.88 141.392C223.902 141.312 223.892 141.227 223.852 141.155C223.811 141.083 223.744 141.03 223.664 141.008C223.181 140.908 222.681 140.92 222.204 141.045C221.727 141.17 221.284 141.404 220.912 141.728C220.88 141.753 220.853 141.784 220.834 141.82C220.814 141.855 220.802 141.895 220.798 141.935C220.794 141.976 220.799 142.017 220.812 142.055C220.825 142.094 220.845 142.13 220.872 142.16C220.912 142.206 220.965 142.24 221.024 142.256Z" fill="#263238"/>
<path d="M233.344 209.728H227.336L230.248 216.128C230.248 216.128 236.152 216.04 235.848 213L233.344 209.728Z" fill="#FFC3BD"/>
<path d="M221.608 213.848L224.688 218L230.248 216.12L227.336 209.72L221.608 213.848Z" fill="#FFC3BD"/>
<path d="M277.88 331.912H280.8V220.504H277.88V331.912Z" fill="#244BA5"/>
<path d="M295.128 331.912H298.048V220.504H295.128V331.912Z" fill="#244BA5"/>
<path opacity="0.2" d="M295.128 331.912H298.048V220.504H295.128V331.912Z" fill="black"/>
<path d="M111.96 331.912H114.88L114.88 220.504H111.96L111.96 331.912Z" fill="#244BA5"/>
<path opacity="0.2" d="M111.96 220.504H114.88V295.36L111.96 288.824V220.504Z" fill="black"/>
<path d="M94.7201 331.912H97.6401L97.6401 220.504H94.7201L94.7201 331.912Z" fill="#244BA5"/>
<path d="M94.7201 285.672H280.808V220.504L94.7201 220.504V285.672Z" fill="#244BA5"/>
<path d="M92.8561 220.504L280.808 220.504V215.744L92.8561 215.744V220.504Z" fill="#244BA5"/>
<path d="M298.04 220.504H280.8V285.672H298.04V220.504Z" fill="#244BA5"/>
<path opacity="0.2" d="M298.04 220.504H280.8V285.672H298.04V220.504Z" fill="black"/>
<path d="M299.904 215.752H280.8V220.512H299.904V215.752Z" fill="#244BA5"/>
<path opacity="0.2" d="M299.904 215.752H280.8V220.512H299.904V215.752Z" fill="black"/>
<path opacity="0.2" d="M94.7204 223.824L298.048 223.824V220.512L94.7204 220.512V223.824Z" fill="black"/>
<path d="M211.104 202.96H141.944C140.657 202.944 139.423 202.439 138.493 201.548C137.564 200.657 137.007 199.446 136.936 198.16L135.112 157.968C135.078 157.348 135.172 156.728 135.386 156.146C135.601 155.564 135.932 155.031 136.36 154.582C136.788 154.132 137.303 153.775 137.874 153.532C138.445 153.289 139.06 153.165 139.68 153.168H208.84C210.127 153.186 211.358 153.692 212.286 154.583C213.214 155.474 213.769 156.684 213.84 157.968L215.672 198.16C215.707 198.78 215.615 199.4 215.401 199.983C215.186 200.566 214.855 201.099 214.427 201.549C213.999 201.998 213.483 202.356 212.912 202.598C212.34 202.841 211.725 202.964 211.104 202.96Z" fill="#244BA5"/>
<path d="M210.176 202.96H141.016C139.728 202.944 138.495 202.439 137.565 201.548C136.635 200.657 136.079 199.446 136.008 198.16L134.184 157.968C134.15 157.348 134.243 156.728 134.458 156.146C134.673 155.564 135.004 155.031 135.432 154.582C135.86 154.132 136.375 153.775 136.946 153.532C137.517 153.289 138.131 153.165 138.752 153.168H207.912C209.198 153.186 210.43 153.692 211.358 154.583C212.286 155.474 212.841 156.684 212.912 157.968L214.744 198.16C214.779 198.78 214.687 199.4 214.472 199.983C214.258 200.566 213.927 201.099 213.499 201.549C213.071 201.998 212.555 202.356 211.984 202.598C211.412 202.841 210.797 202.964 210.176 202.96Z" fill="#244BA5"/>
<path opacity="0.2" d="M210.176 202.96H141.016C139.728 202.944 138.495 202.439 137.565 201.548C136.635 200.657 136.079 199.446 136.008 198.16L134.184 157.968C134.15 157.348 134.243 156.728 134.458 156.146C134.673 155.564 135.004 155.031 135.432 154.582C135.86 154.132 136.375 153.775 136.946 153.532C137.517 153.289 138.131 153.165 138.752 153.168H207.912C209.198 153.186 210.43 153.692 211.358 154.583C212.286 155.474 212.841 156.684 212.912 157.968L214.744 198.16C214.779 198.78 214.687 199.4 214.472 199.983C214.258 200.566 213.927 201.099 213.499 201.549C213.071 201.998 212.555 202.356 211.984 202.598C211.412 202.841 210.797 202.964 210.176 202.96Z" fill="white"/>
<path d="M181.808 178.672H168.6V202.96H181.808V178.672Z" fill="#244BA5"/>
<path d="M168.184 176.08L162.352 215.736H176.64L182.472 176.08H168.184ZM176.576 188.68L175.632 195.08C175.563 195.555 175.325 195.989 174.963 196.304C174.6 196.618 174.136 196.791 173.656 196.792H171.504C171.216 196.792 170.932 196.729 170.67 196.609C170.409 196.489 170.176 196.315 169.988 196.097C169.8 195.879 169.661 195.624 169.58 195.347C169.499 195.071 169.479 194.781 169.52 194.496L170.464 188.096C170.533 187.621 170.771 187.187 171.134 186.872C171.496 186.558 171.96 186.385 172.44 186.384H174.592C174.88 186.384 175.164 186.447 175.426 186.567C175.687 186.687 175.92 186.861 176.108 187.079C176.296 187.297 176.435 187.552 176.516 187.829C176.597 188.105 176.617 188.395 176.576 188.68Z" fill="#244BA5"/>
<path opacity="0.2" d="M168.184 176.08L162.352 215.736H176.64L182.472 176.08H168.184ZM176.576 188.68L175.632 195.08C175.563 195.555 175.325 195.989 174.963 196.304C174.6 196.618 174.136 196.791 173.656 196.792H171.504C171.216 196.792 170.932 196.729 170.67 196.609C170.409 196.489 170.176 196.315 169.988 196.097C169.8 195.879 169.661 195.624 169.58 195.347C169.499 195.071 169.479 194.781 169.52 194.496L170.464 188.096C170.533 187.621 170.771 187.187 171.134 186.872C171.496 186.558 171.96 186.385 172.44 186.384H174.592C174.88 186.384 175.164 186.447 175.426 186.567C175.687 186.687 175.92 186.861 176.108 187.079C176.296 187.297 176.435 187.552 176.516 187.829C176.597 188.105 176.617 188.395 176.576 188.68Z" fill="white"/>
<path d="M184.784 212.84H159.776L156.704 215.752H191.432L184.784 212.84Z" fill="#244BA5"/>
<path opacity="0.2" d="M184.784 212.84H159.776L156.704 215.752H191.432L184.784 212.84Z" fill="white"/>
<path d="M110.928 206.856C109.52 206.056 110 198.36 110.616 193.96C111.368 188.64 113.608 179.224 120.728 174.008C124.12 171.52 127.36 169.408 127.928 166.728C128.968 169.128 134.88 186.12 126.448 193.76C119.312 200.216 114.024 198.776 110.928 206.856Z" fill="#244BA5"/>
<g opacity="0.2">
<path d="M110.928 206.856C109.52 206.056 110 198.36 110.616 193.96C111.368 188.64 113.608 179.224 120.728 174.008C124.12 171.52 127.36 169.408 127.928 166.728C128.968 169.128 134.88 186.12 126.448 193.76C119.312 200.216 114.024 198.776 110.928 206.856Z" fill="black"/>
</g>
<path d="M112.8 202.488C114.44 201.568 112.56 192.6 111.056 187.496C109.24 181.32 104.872 170.408 95.0562 164.44C90.4002 161.6 85.9762 159.2 84.8002 156.072C83.8882 158.848 80.9602 180.712 92.8002 189.48C102.856 196.896 107.56 193.144 112.8 202.488Z" fill="#244BA5"/>
<path d="M112 200.488C111.952 200.487 111.905 200.471 111.866 200.442C111.828 200.414 111.799 200.374 111.784 200.328C109.356 192.769 106.283 185.433 102.6 178.4C96.6 166.6 88.528 164.68 88.448 164.664C88.42 164.657 88.3936 164.645 88.3704 164.628C88.3471 164.612 88.3274 164.59 88.3125 164.566C88.2976 164.541 88.2878 164.514 88.2836 164.485C88.2794 164.457 88.2809 164.428 88.288 164.4C88.2937 164.372 88.3049 164.346 88.3209 164.322C88.3369 164.299 88.3573 164.278 88.3811 164.263C88.4049 164.247 88.4315 164.236 88.4595 164.231C88.4875 164.226 88.5162 164.226 88.544 164.232C88.632 164.232 96.888 166.2 102.992 178.208C106.676 185.267 109.746 192.631 112.168 200.216C112.183 200.272 112.175 200.332 112.147 200.383C112.119 200.434 112.072 200.471 112.016 200.488H112Z" fill="white"/>
<path d="M86.4804 172.408C86.4526 172.409 86.4248 172.405 86.3987 172.395C86.3726 172.386 86.3487 172.371 86.3284 172.352C86.2878 172.31 86.2651 172.254 86.2651 172.196C86.2651 172.138 86.2878 172.082 86.3284 172.04C87.809 170.624 89.6945 169.705 91.7221 169.411C93.7497 169.117 95.8185 169.463 97.6404 170.4C97.6662 170.412 97.6894 170.429 97.7084 170.45C97.7274 170.471 97.7418 170.496 97.7508 170.523C97.7598 170.55 97.7632 170.579 97.7607 170.607C97.7582 170.635 97.7499 170.663 97.7364 170.688C97.7253 170.715 97.7087 170.738 97.6879 170.758C97.667 170.778 97.6423 170.793 97.6152 170.803C97.5881 170.813 97.5593 170.817 97.5306 170.815C97.5019 170.813 97.4739 170.805 97.4484 170.792C95.7045 169.9 93.7258 169.575 91.7883 169.862C89.8509 170.149 88.0512 171.033 86.6404 172.392C86.5905 172.416 86.534 172.421 86.4804 172.408Z" fill="white"/>
<path d="M94.9364 187.008C94.8999 187.019 94.861 187.019 94.8244 187.008C94.7997 186.994 94.7779 186.975 94.7605 186.952C94.7431 186.93 94.7302 186.904 94.7228 186.877C94.7154 186.849 94.7135 186.82 94.7172 186.792C94.7209 186.764 94.7302 186.737 94.7444 186.712C94.7444 186.64 98.7444 180.04 104.608 181.656C104.664 181.673 104.711 181.71 104.739 181.761C104.768 181.812 104.775 181.872 104.76 181.928C104.744 181.984 104.706 182.031 104.655 182.059C104.604 182.087 104.545 182.095 104.488 182.08C98.9604 180.552 95.1604 186.88 95.1284 186.936C95.1041 186.962 95.0741 186.982 95.0408 186.994C95.0075 187.007 94.9718 187.012 94.9364 187.008Z" fill="white"/>
<path d="M101.28 175.792C101.232 175.791 101.185 175.775 101.147 175.746C101.108 175.718 101.079 175.678 101.064 175.632C100.862 174.874 100.935 174.069 101.272 173.36C101.4 173.159 101.568 172.988 101.767 172.857C101.966 172.726 102.19 172.638 102.424 172.6C102.452 172.593 102.481 172.592 102.51 172.597C102.538 172.601 102.565 172.612 102.589 172.628C102.613 172.644 102.634 172.664 102.649 172.688C102.665 172.712 102.676 172.74 102.68 172.768C102.692 172.825 102.681 172.885 102.65 172.934C102.619 172.984 102.569 173.019 102.512 173.032C102.336 173.055 102.166 173.117 102.017 173.214C101.867 173.311 101.741 173.44 101.648 173.592C101.377 174.198 101.321 174.878 101.488 175.52C101.497 175.547 101.499 175.576 101.496 175.604C101.493 175.633 101.484 175.66 101.47 175.685C101.455 175.71 101.436 175.731 101.413 175.748C101.39 175.765 101.364 175.778 101.336 175.784L101.28 175.792Z" fill="white"/>
<path d="M123.544 198.392H103.296L105.16 215.728H121.68L123.544 198.392Z" fill="#244BA5"/>
<path opacity="0.7" d="M123.544 198.392H103.296L105.16 215.728H121.68L123.544 198.392Z" fill="white"/>
<path d="M284 200V198.92C284 198.689 283.908 198.467 283.745 198.303C283.581 198.14 283.359 198.048 283.128 198.048H272.368C272.137 198.048 271.915 198.14 271.751 198.303C271.588 198.467 271.496 198.689 271.496 198.92V215.72H284V213.768C286.72 213.768 288.856 210.744 288.856 206.88C288.856 203.016 286.728 200 284 200ZM284 212V201.776C285.68 201.776 287.104 204.128 287.104 206.912C287.104 209.696 285.688 212.048 284 212.048V212Z" fill="#244BA5"/>
<path opacity="0.2" d="M284 200V198.92C284 198.689 283.908 198.467 283.745 198.303C283.581 198.14 283.359 198.048 283.128 198.048H272.368C272.137 198.048 271.915 198.14 271.751 198.303C271.588 198.467 271.496 198.689 271.496 198.92V215.72H284V213.768C286.72 213.768 288.856 210.744 288.856 206.88C288.856 203.016 286.728 200 284 200ZM284 212V201.776C285.68 201.776 287.104 204.128 287.104 206.912C287.104 209.696 285.688 212.048 284 212.048V212Z" fill="white"/>
<path opacity="0.3" d="M284.008 201.776H282.584L284.008 205.72V201.776Z" fill="black"/>
<path opacity="0.3" d="M284.008 213.8H282.584L284.008 214.456V213.8Z" fill="black"/>
</svg>
