<svg width="137" height="11" viewBox="0 0 137 11" fill="none" xmlns="http://www.w3.org/2000/svg">
<path d="M0.25293 0.851269H0.713L4.34638 10.0074L7.97975 0.851269H8.43392L4.57641 10.5771H4.11634L0.25293 0.851269ZM4.64129 8.4628L4.39946 9.00313L1.16717 0.851269H1.62134L4.64129 8.4628ZM5.09547 7.3058L4.87133 7.88724L2.08141 0.851269H2.54148L5.09547 7.3058ZM5.54374 6.13118L5.3196 6.72437L2.99566 0.851269H3.44983L5.54374 6.13118ZM10.7166 0.851269H11.1767L7.31324 10.5771H6.85907L10.7166 0.851269ZM9.80824 0.851269H10.2624L6.399 10.5771H5.94483L9.80824 0.851269ZM8.8881 0.851269H9.34817L5.48476 10.5771H5.03058L8.8881 0.851269Z" fill="#F7811F"/>
<path d="M14.7687 4.06973C14.3126 4.52391 14.0845 5.07207 14.0845 5.71419C14.0845 6.35632 14.3126 6.90448 14.7687 7.35866C15.2249 7.81285 15.7754 8.03994 16.4203 8.03994C17.0652 8.03994 17.6157 7.81285 18.0718 7.35866C18.5279 6.90448 18.756 6.35632 18.756 5.71419C18.756 5.07207 18.5279 4.52391 18.0718 4.06973C17.6157 3.61554 17.0652 3.38845 16.4203 3.38845C15.7754 3.38845 15.2249 3.61554 14.7687 4.06973ZM13.8781 6.7831C13.7326 6.44246 13.6599 6.08616 13.6599 5.71419C13.6599 5.34223 13.7326 4.98789 13.8781 4.65116C14.0236 4.31052 14.2202 4.01687 14.4679 3.7702C14.7157 3.52353 15.0086 3.32776 15.3468 3.18289C15.6889 3.03802 16.0467 2.96558 16.4203 2.96558C16.7938 2.96558 17.1497 3.03802 17.4879 3.18289C17.83 3.32776 18.1249 3.52353 18.3726 3.7702C18.6204 4.01687 18.817 4.31052 18.9625 4.65116C19.108 4.98789 19.1807 5.34223 19.1807 5.71419C19.1807 6.08616 19.108 6.44246 18.9625 6.7831C18.817 7.11982 18.6204 7.41152 18.3726 7.65819C18.1249 7.90486 17.83 8.10063 17.4879 8.2455C17.1497 8.39037 16.7938 8.4628 16.4203 8.4628C16.0467 8.4628 15.6889 8.39037 15.3468 8.2455C15.0086 8.10063 14.7157 7.90486 14.4679 7.65819C14.2202 7.41152 14.0236 7.11982 13.8781 6.7831ZM13.6599 4.12259C13.3767 4.60809 13.2352 5.13863 13.2352 5.71419C13.2352 6.28976 13.3767 6.82029 13.6599 7.3058C13.9469 7.79131 14.3342 8.17698 14.8218 8.4628C15.3094 8.74471 15.8422 8.88567 16.4203 8.88567C16.9983 8.88567 17.5311 8.74471 18.0187 8.4628C18.5063 8.17698 18.8917 7.79131 19.1748 7.3058C19.4619 6.82029 19.6054 6.28976 19.6054 5.71419C19.6054 5.13863 19.4619 4.60809 19.1748 4.12259C18.8917 3.63708 18.5063 3.25337 18.0187 2.97146C17.5311 2.68563 16.9983 2.54272 16.4203 2.54272C15.8422 2.54272 15.3094 2.68563 14.8218 2.97146C14.3342 3.25337 13.9469 3.63708 13.6599 4.12259ZM13.2942 7.51724C12.9717 6.96516 12.8105 6.36415 12.8105 5.71419C12.8105 5.06424 12.9717 4.46322 13.2942 3.91115C13.6166 3.35908 14.055 2.92252 14.6095 2.60145C15.1639 2.28039 15.7675 2.11986 16.4203 2.11986C17.073 2.11986 17.6766 2.28039 18.2311 2.60145C18.7855 2.92252 19.224 3.35908 19.5464 3.91115C19.8688 4.46322 20.0301 5.06424 20.0301 5.71419C20.0301 6.36415 19.8688 6.96516 19.5464 7.51724C19.224 8.06931 18.7855 8.50587 18.2311 8.82694C17.6766 9.148 17.073 9.30853 16.4203 9.30853C15.7675 9.30853 15.1639 9.148 14.6095 8.82694C14.055 8.50587 13.6166 8.06931 13.2942 7.51724ZM12.7043 4.15195C12.492 4.64921 12.3858 5.16995 12.3858 5.71419C12.3858 6.25844 12.492 6.77918 12.7043 7.27644C12.9167 7.77369 13.2017 8.20243 13.5596 8.56265C13.9213 8.91895 14.3519 9.20282 14.8513 9.41425C15.3507 9.62568 15.8737 9.73139 16.4203 9.73139C16.9669 9.73139 17.4898 9.62568 17.9892 9.41425C18.4886 9.20282 18.9172 8.91895 19.2751 8.56265C19.6368 8.20243 19.9239 7.77369 20.1362 7.27644C20.3486 6.77918 20.4547 6.25844 20.4547 5.71419C20.4547 5.16995 20.3486 4.64921 20.1362 4.15195C19.9239 3.65469 19.6368 3.22792 19.2751 2.87161C18.9172 2.5114 18.4886 2.22557 17.9892 2.01414C17.4898 1.80271 16.9669 1.697 16.4203 1.697C15.8737 1.697 15.3507 1.80271 14.8513 2.01414C14.3519 2.22557 13.9213 2.5114 13.5596 2.87161C13.2017 3.22792 12.9167 3.65469 12.7043 4.15195ZM12.5569 7.9401C12.1597 7.25882 11.9611 6.51685 11.9611 5.71419C11.9611 4.91154 12.1597 4.16957 12.5569 3.48829C12.958 2.80701 13.5006 2.26864 14.1848 1.87319C14.869 1.47382 15.6142 1.27413 16.4203 1.27413C17.2264 1.27413 17.9715 1.47382 18.6557 1.87319C19.34 2.26864 19.8806 2.80701 20.2778 3.48829C20.6789 4.16957 20.8794 4.91154 20.8794 5.71419C20.8794 6.51685 20.6789 7.25882 20.2778 7.9401C19.8806 8.62138 19.34 9.1617 18.6557 9.56107C17.9715 9.95653 17.2264 10.1543 16.4203 10.1543C15.6142 10.1543 14.869 9.95653 14.1848 9.56107C13.5006 9.1617 12.958 8.62138 12.5569 7.9401ZM11.9198 3.82893C11.6642 4.42799 11.5365 5.05641 11.5365 5.71419C11.5365 6.37198 11.6642 7.00236 11.9198 7.60533C12.1794 8.20439 12.5274 8.72122 12.9638 9.15583C13.4003 9.59044 13.9194 9.93695 14.521 10.1954C15.1266 10.4499 15.7597 10.5771 16.4203 10.5771C17.0809 10.5771 17.712 10.4499 18.3136 10.1954C18.9192 9.93695 19.4402 9.59044 19.8767 9.15583C20.3132 8.72122 20.6592 8.20439 20.9148 7.60533C21.1743 7.00236 21.3041 6.37198 21.3041 5.71419C21.3041 5.05641 21.1743 4.42799 20.9148 3.82893C20.6592 3.22596 20.3132 2.70717 19.8767 2.27256C19.4402 1.83795 18.9192 1.49339 18.3136 1.23889C17.712 0.980477 17.0809 0.851269 16.4203 0.851269C15.7597 0.851269 15.1266 0.980477 14.521 1.23889C13.9194 1.49339 13.4003 1.83795 12.9638 2.27256C12.5274 2.70717 12.1794 3.22596 11.9198 3.82893ZM11.5306 7.76978C11.2514 7.11591 11.1118 6.43071 11.1118 5.71419C11.1118 4.99768 11.2514 4.31444 11.5306 3.66448C11.8137 3.01061 12.1912 2.44875 12.663 1.9789C13.1388 1.50514 13.7031 1.12926 14.3559 0.851269C15.0125 0.56936 15.7007 0.428406 16.4203 0.428406C17.1399 0.428406 17.826 0.56936 18.4788 0.851269C19.1355 1.12926 19.6998 1.50514 20.1716 1.9789C20.6474 2.44875 21.0249 3.01061 21.3041 3.66448C21.5872 4.31444 21.7288 4.99768 21.7288 5.71419C21.7288 6.43071 21.5872 7.11591 21.3041 7.76978C21.0249 8.41974 20.6474 8.9816 20.1716 9.45536C19.6998 9.92521 19.1355 10.2991 18.4788 10.5771C17.826 10.859 17.1399 11 16.4203 11C15.7007 11 15.0125 10.859 14.3559 10.5771C13.7031 10.2991 13.1388 9.92521 12.663 9.45536C12.1912 8.9816 11.8137 8.41974 11.5306 7.76978Z" fill="#F7811F"/>
<path d="M29.9806 4.17544L29.6326 4.40449C29.4202 4.09126 29.143 3.84459 28.8009 3.66448C28.4627 3.48046 28.0951 3.38845 27.6979 3.38845C27.053 3.38845 26.5025 3.61554 26.0464 4.06973C25.5902 4.52391 25.3622 5.07207 25.3622 5.71419C25.3622 6.35632 25.5902 6.90448 26.0464 7.35866C26.5025 7.81285 27.053 8.03994 27.6979 8.03994C28.0951 8.03994 28.4627 7.94793 28.8009 7.76391C29.143 7.57988 29.4202 7.33125 29.6326 7.01802L29.9747 7.26469C29.723 7.63274 29.3966 7.92444 28.9955 8.13978C28.5944 8.35513 28.1619 8.4628 27.6979 8.4628C27.3243 8.4628 26.9665 8.39037 26.6244 8.2455C26.2862 8.10063 25.9933 7.90486 25.7455 7.65819C25.4978 7.41152 25.3012 7.11982 25.1557 6.7831C25.0102 6.44246 24.9375 6.08616 24.9375 5.71419C24.9375 5.34223 25.0102 4.98789 25.1557 4.65116C25.3012 4.31052 25.4978 4.01687 25.7455 3.7702C25.9933 3.52353 26.2862 3.32776 26.6244 3.18289C26.9665 3.03802 27.3243 2.96558 27.6979 2.96558C28.1658 2.96558 28.6003 3.07522 29.0014 3.29448C29.4025 3.50982 29.7289 3.80348 29.9806 4.17544ZM30.6825 3.69385L30.3286 3.9229C30.0376 3.50004 29.6601 3.16527 29.1961 2.9186C28.736 2.66801 28.2366 2.54272 27.6979 2.54272C27.1199 2.54272 26.587 2.68563 26.0994 2.97146C25.6119 3.25337 25.2245 3.63708 24.9375 4.12259C24.6544 4.60809 24.5128 5.13863 24.5128 5.71419C24.5128 6.28976 24.6544 6.82029 24.9375 7.3058C25.2245 7.79131 25.6119 8.17698 26.0994 8.4628C26.587 8.74471 27.1199 8.88567 27.6979 8.88567C28.2366 8.88567 28.738 8.76038 29.202 8.50979C29.666 8.2592 30.0435 7.92052 30.3345 7.49374L30.6825 7.73454C30.3521 8.22005 29.9235 8.60376 29.3966 8.88567C28.8736 9.16758 28.3074 9.30853 27.6979 9.30853C27.0451 9.30853 26.4416 9.148 25.8871 8.82694C25.3327 8.50587 24.8942 8.06931 24.5718 7.51724C24.2493 6.96516 24.0881 6.36415 24.0881 5.71419C24.0881 5.06424 24.2493 4.46322 24.5718 3.91115C24.8942 3.35908 25.3327 2.92252 25.8871 2.60145C26.4416 2.28039 27.0451 2.11986 27.6979 2.11986C28.3074 2.11986 28.8736 2.26081 29.3966 2.54272C29.9235 2.82463 30.3521 3.20834 30.6825 3.69385ZM31.3903 3.224L31.0364 3.45305C30.6667 2.91273 30.187 2.48595 29.5972 2.17272C29.0113 1.85557 28.3782 1.697 27.6979 1.697C27.1513 1.697 26.6283 1.80271 26.1289 2.01414C25.6295 2.22557 25.199 2.5114 24.8372 2.87161C24.4794 3.22792 24.1943 3.65469 23.9819 4.15195C23.7696 4.64921 23.6634 5.16995 23.6634 5.71419C23.6634 6.25844 23.7696 6.77918 23.9819 7.27644C24.1943 7.77369 24.4794 8.20243 24.8372 8.56265C25.199 8.91895 25.6295 9.20282 26.1289 9.41425C26.6283 9.62568 27.1513 9.73139 27.6979 9.73139C28.3821 9.73139 29.0172 9.57282 29.6031 9.25567C30.189 8.93853 30.6667 8.50979 31.0364 7.96946L31.3785 8.22201C30.9695 8.81715 30.4406 9.28895 29.7918 9.63742C29.1469 9.98198 28.449 10.1543 27.6979 10.1543C26.8918 10.1543 26.1466 9.95653 25.4624 9.56107C24.7782 9.1617 24.2356 8.62138 23.8345 7.9401C23.4373 7.25882 23.2388 6.51685 23.2388 5.71419C23.2388 4.91154 23.4373 4.16957 23.8345 3.48829C24.2356 2.80701 24.7782 2.26864 25.4624 1.87319C26.1466 1.47382 26.8918 1.27413 27.6979 1.27413C28.4529 1.27413 29.1548 1.45033 29.8036 1.80271C30.4524 2.15118 30.9813 2.62494 31.3903 3.224ZM32.0863 2.74241L31.7324 2.97146C31.2841 2.31759 30.7041 1.80075 29.9924 1.42096C29.2845 1.04117 28.5197 0.851269 27.6979 0.851269C27.0373 0.851269 26.4042 0.980477 25.7986 1.23889C25.197 1.49339 24.6779 1.83795 24.2415 2.27256C23.805 2.70717 23.457 3.22596 23.1975 3.82893C22.9419 4.42799 22.8141 5.05641 22.8141 5.71419C22.8141 6.37198 22.9419 7.00236 23.1975 7.60533C23.457 8.20439 23.805 8.72122 24.2415 9.15583C24.6779 9.59044 25.197 9.93695 25.7986 10.1954C26.4042 10.4499 27.0373 10.5771 27.6979 10.5771C28.5197 10.5771 29.2865 10.3853 29.9982 10.0016C30.71 9.61785 31.29 9.09906 31.7383 8.44519L32.0804 8.7036C31.5928 9.40837 30.9636 9.96828 30.1929 10.3833C29.4222 10.7944 28.5905 11 27.6979 11C26.9783 11 26.2902 10.859 25.6335 10.5771C24.9807 10.2991 24.4165 9.92521 23.9407 9.45536C23.4688 8.9816 23.0913 8.41974 22.8082 7.76978C22.529 7.11591 22.3894 6.43071 22.3894 5.71419C22.3894 4.99768 22.529 4.31444 22.8082 3.66448C23.0913 3.01061 23.4688 2.44875 23.9407 1.9789C24.4165 1.50514 24.9807 1.12926 25.6335 0.851269C26.2902 0.56936 26.9783 0.428406 27.6979 0.428406C28.5944 0.428406 29.4281 0.635922 30.1988 1.05095C30.9695 1.46599 31.5987 2.0298 32.0863 2.74241Z" fill="#F7811F"/>
<path d="M37.1234 7.72279L37.2945 7.29993H38.7455L38.9165 7.72279H37.1234ZM36.7931 8.56852L36.9583 8.14566H39.0758L39.2586 8.56852H36.7931ZM36.4628 9.41425L36.628 8.99138H39.412L39.5889 9.41425H36.4628ZM33.0123 10.5771H32.5522L36.4156 0.851269H36.8757L40.7332 10.5771H40.2791L36.6457 1.42096L33.0123 10.5771ZM36.6988 2.42526L36.9406 2.96558L33.9206 10.5771H33.4665L36.6988 2.42526ZM37.1706 3.54115L37.3948 4.12259L34.8408 10.5771H34.3807L37.1706 3.54115ZM37.6189 4.70402L37.843 5.2972L35.7491 10.5771H35.295L37.6189 4.70402ZM43.476 10.5771H43.0159L39.1584 0.851269H39.6125L43.476 10.5771ZM38.6983 0.851269L42.5617 10.5771H42.1075L38.2441 0.851269H38.6983ZM37.7841 0.851269L41.6475 10.5771H41.1874L37.3299 0.851269H37.7841Z" fill="#F7811F"/>
<path d="M44.2191 0.851269H44.6438V10.5771H44.2191V0.851269ZM46.7672 0.851269H47.1919V8.4628H50.5893V8.88567H47.1919V9.30853H50.5893V9.73139H47.1919V10.1543H50.5893V10.5771H46.7672V0.851269ZM45.9179 0.851269H46.3425V10.5771H45.9179V0.851269ZM45.0685 0.851269H45.4932V10.5771H45.0685V0.851269Z" fill="#F7811F"/>
<path d="M58.4341 10.5771H58.0095V0.851269H62.7104V1.27413H58.4341V1.697H62.7104V2.11986H58.4341V2.54272H62.7104V2.96558H58.4341V5.0799H62.5099V5.50276H58.4341V5.92563H62.5099V6.34849H58.4341V6.77135H62.5099V7.19422H58.4341V10.5771ZM57.5848 10.5771H57.1601V0.851269H57.5848V10.5771ZM56.7354 10.5771H56.3107V0.851269H56.7354V10.5771ZM55.8861 10.5771H55.4614V0.851269H55.8861V10.5771Z" fill="#F7811F"/>
<path d="M67.1578 4.06973C66.7016 4.52391 66.4736 5.07207 66.4736 5.71419C66.4736 6.35632 66.7016 6.90448 67.1578 7.35866C67.6139 7.81285 68.1644 8.03994 68.8093 8.03994C69.4542 8.03994 70.0047 7.81285 70.4608 7.35866C70.917 6.90448 71.1451 6.35632 71.1451 5.71419C71.1451 5.07207 70.917 4.52391 70.4608 4.06973C70.0047 3.61554 69.4542 3.38845 68.8093 3.38845C68.1644 3.38845 67.6139 3.61554 67.1578 4.06973ZM66.2671 6.7831C66.1216 6.44246 66.0489 6.08616 66.0489 5.71419C66.0489 5.34223 66.1216 4.98789 66.2671 4.65116C66.4126 4.31052 66.6092 4.01687 66.857 3.7702C67.1047 3.52353 67.3976 3.32776 67.7358 3.18289C68.0779 3.03802 68.4358 2.96558 68.8093 2.96558C69.1829 2.96558 69.5387 3.03802 69.8769 3.18289C70.219 3.32776 70.5139 3.52353 70.7617 3.7702C71.0094 4.01687 71.206 4.31052 71.3515 4.65116C71.497 4.98789 71.5697 5.34223 71.5697 5.71419C71.5697 6.08616 71.497 6.44246 71.3515 6.7831C71.206 7.11982 71.0094 7.41152 70.7617 7.65819C70.5139 7.90486 70.219 8.10063 69.8769 8.2455C69.5387 8.39037 69.1829 8.4628 68.8093 8.4628C68.4358 8.4628 68.0779 8.39037 67.7358 8.2455C67.3976 8.10063 67.1047 7.90486 66.857 7.65819C66.6092 7.41152 66.4126 7.11982 66.2671 6.7831ZM66.0489 4.12259C65.7658 4.60809 65.6242 5.13863 65.6242 5.71419C65.6242 6.28976 65.7658 6.82029 66.0489 7.3058C66.3359 7.79131 66.7233 8.17698 67.2109 8.4628C67.6985 8.74471 68.2313 8.88567 68.8093 8.88567C69.3874 8.88567 69.9202 8.74471 70.4078 8.4628C70.8954 8.17698 71.2807 7.79131 71.5638 7.3058C71.8509 6.82029 71.9944 6.28976 71.9944 5.71419C71.9944 5.13863 71.8509 4.60809 71.5638 4.12259C71.2807 3.63708 70.8954 3.25337 70.4078 2.97146C69.9202 2.68563 69.3874 2.54272 68.8093 2.54272C68.2313 2.54272 67.6985 2.68563 67.2109 2.97146C66.7233 3.25337 66.3359 3.63708 66.0489 4.12259ZM65.6832 7.51724C65.3608 6.96516 65.1995 6.36415 65.1995 5.71419C65.1995 5.06424 65.3608 4.46322 65.6832 3.91115C66.0056 3.35908 66.4441 2.92252 66.9985 2.60145C67.553 2.28039 68.1566 2.11986 68.8093 2.11986C69.4621 2.11986 70.0657 2.28039 70.6201 2.60145C71.1745 2.92252 71.613 3.35908 71.9354 3.91115C72.2579 4.46322 72.4191 5.06424 72.4191 5.71419C72.4191 6.36415 72.2579 6.96516 71.9354 7.51724C71.613 8.06931 71.1745 8.50587 70.6201 8.82694C70.0657 9.148 69.4621 9.30853 68.8093 9.30853C68.1566 9.30853 67.553 9.148 66.9985 8.82694C66.4441 8.50587 66.0056 8.06931 65.6832 7.51724ZM65.0934 4.15195C64.881 4.64921 64.7748 5.16995 64.7748 5.71419C64.7748 6.25844 64.881 6.77918 65.0934 7.27644C65.3057 7.77369 65.5908 8.20243 65.9486 8.56265C66.3104 8.91895 66.741 9.20282 67.2404 9.41425C67.7397 9.62568 68.2627 9.73139 68.8093 9.73139C69.3559 9.73139 69.8789 9.62568 70.3783 9.41425C70.8777 9.20282 71.3063 8.91895 71.6641 8.56265C72.0259 8.20243 72.3129 7.77369 72.5253 7.27644C72.7376 6.77918 72.8438 6.25844 72.8438 5.71419C72.8438 5.16995 72.7376 4.64921 72.5253 4.15195C72.3129 3.65469 72.0259 3.22792 71.6641 2.87161C71.3063 2.5114 70.8777 2.22557 70.3783 2.01414C69.8789 1.80271 69.3559 1.697 68.8093 1.697C68.2627 1.697 67.7397 1.80271 67.2404 2.01414C66.741 2.22557 66.3104 2.5114 65.9486 2.87161C65.5908 3.22792 65.3057 3.65469 65.0934 4.15195ZM64.9459 7.9401C64.5488 7.25882 64.3502 6.51685 64.3502 5.71419C64.3502 4.91154 64.5488 4.16957 64.9459 3.48829C65.347 2.80701 65.8896 2.26864 66.5738 1.87319C67.258 1.47382 68.0032 1.27413 68.8093 1.27413C69.6154 1.27413 70.3606 1.47382 71.0448 1.87319C71.729 2.26864 72.2697 2.80701 72.6668 3.48829C73.0679 4.16957 73.2685 4.91154 73.2685 5.71419C73.2685 6.51685 73.0679 7.25882 72.6668 7.9401C72.2697 8.62138 71.729 9.1617 71.0448 9.56107C70.3606 9.95653 69.6154 10.1543 68.8093 10.1543C68.0032 10.1543 67.258 9.95653 66.5738 9.56107C65.8896 9.1617 65.347 8.62138 64.9459 7.9401ZM64.3089 3.82893C64.0533 4.42799 63.9255 5.05641 63.9255 5.71419C63.9255 6.37198 64.0533 7.00236 64.3089 7.60533C64.5684 8.20439 64.9164 8.72122 65.3529 9.15583C65.7894 9.59044 66.3084 9.93695 66.91 10.1954C67.5156 10.4499 68.1487 10.5771 68.8093 10.5771C69.4699 10.5771 70.1011 10.4499 70.7027 10.1954C71.3082 9.93695 71.8293 9.59044 72.2657 9.15583C72.7022 8.72122 73.0483 8.20439 73.3038 7.60533C73.5634 7.00236 73.6931 6.37198 73.6931 5.71419C73.6931 5.05641 73.5634 4.42799 73.3038 3.82893C73.0483 3.22596 72.7022 2.70717 72.2657 2.27256C71.8293 1.83795 71.3082 1.49339 70.7027 1.23889C70.1011 0.980477 69.4699 0.851269 68.8093 0.851269C68.1487 0.851269 67.5156 0.980477 66.91 1.23889C66.3084 1.49339 65.7894 1.83795 65.3529 2.27256C64.9164 2.70717 64.5684 3.22596 64.3089 3.82893ZM63.9196 7.76978C63.6404 7.11591 63.5008 6.43071 63.5008 5.71419C63.5008 4.99768 63.6404 4.31444 63.9196 3.66448C64.2027 3.01061 64.5802 2.44875 65.0521 1.9789C65.5279 1.50514 66.0921 1.12926 66.7449 0.851269C67.4016 0.56936 68.0897 0.428406 68.8093 0.428406C69.5289 0.428406 70.2151 0.56936 70.8678 0.851269C71.5245 1.12926 72.0888 1.50514 72.5607 1.9789C73.0365 2.44875 73.4139 3.01061 73.6931 3.66448C73.9763 4.31444 74.1178 4.99768 74.1178 5.71419C74.1178 6.43071 73.9763 7.11591 73.6931 7.76978C73.4139 8.41974 73.0365 8.9816 72.5607 9.45536C72.0888 9.92521 71.5245 10.2991 70.8678 10.5771C70.2151 10.859 69.5289 11 68.8093 11C68.0897 11 67.4016 10.859 66.7449 10.5771C66.0921 10.2991 65.5279 9.92521 65.0521 9.45536C64.5802 8.9816 64.2027 8.41974 63.9196 7.76978Z" fill="#F7811F"/>
<path d="M78.2054 5.73769H80.7652C81.1545 5.73769 81.4829 5.61239 81.7503 5.36181C82.0216 5.11122 82.1573 4.75492 82.1573 4.2929C82.1573 3.95227 82.0157 3.64686 81.7326 3.3767C81.4495 3.10262 81.127 2.96558 80.7652 2.96558H77.1201V10.5771H76.6954V2.54272H80.7652C81.245 2.54272 81.6677 2.72087 82.0334 3.07717C82.3991 3.42956 82.5819 3.8348 82.5819 4.2929C82.5819 4.85672 82.405 5.30895 82.0511 5.64959C81.6972 5.99023 81.2686 6.16055 80.7652 6.16055H78.2054V5.73769ZM78.2054 6.58341H80.7652C81.3787 6.58341 81.9056 6.37002 82.346 5.94325C82.7864 5.51255 83.0066 4.96244 83.0066 4.2929C83.0066 3.71734 82.7805 3.21225 82.3283 2.77765C81.88 2.33912 81.359 2.11986 80.7652 2.11986H76.2707V10.5771H75.846V1.697H80.7652C81.2332 1.697 81.6716 1.81641 82.0806 2.05525C82.4935 2.29409 82.8218 2.61516 83.0656 3.01844C83.3094 3.41781 83.4313 3.84263 83.4313 4.2929C83.4313 5.06424 83.1678 5.71028 82.6409 6.23103C82.1179 6.74786 81.4927 7.00628 80.7652 7.00628H78.2054V6.58341ZM78.2054 7.42914H80.7652C81.3158 7.42914 81.827 7.29406 82.2988 7.0239C82.7707 6.75373 83.1482 6.37785 83.4313 5.89626C83.7144 5.41075 83.856 4.8763 83.856 4.2929C83.856 3.76433 83.7144 3.26903 83.4313 2.80701C83.1521 2.34108 82.7746 1.96912 82.2988 1.69112C81.823 1.41313 81.3118 1.27413 80.7652 1.27413H75.4213V10.5771H74.9967V0.851269H80.7652C81.3826 0.851269 81.9626 1.00984 82.5053 1.32699C83.0479 1.64022 83.4785 2.06308 83.797 2.59558C84.1194 3.12416 84.2807 3.68993 84.2807 4.2929C84.2807 4.98985 84.1293 5.60261 83.8265 6.13118C83.5276 6.65976 83.1207 7.07284 82.6055 7.37041L83.7026 10.5771H83.2543L82.2044 7.57009C82.0471 7.63274 81.9272 7.67581 81.8446 7.6993L82.8297 10.5771H82.3814L81.42 7.79914C81.3846 7.80698 81.2587 7.82068 81.0425 7.84026L81.9567 10.5771H81.5084L80.606 7.852H80.2226L81.0838 10.5771H80.6355L79.7684 7.852H78.2054V7.42914ZM77.9694 10.5771H77.5448V3.38845H80.7652C81.0287 3.38845 81.2548 3.4785 81.4436 3.65861C81.6362 3.8348 81.7326 4.04623 81.7326 4.2929C81.7326 4.97418 81.4101 5.31482 80.7652 5.31482H78.2054V4.89196H80.7652C80.9343 4.89196 81.0661 4.84889 81.1604 4.76275C81.2587 4.6727 81.3079 4.51608 81.3079 4.2929C81.3079 4.15587 81.2548 4.04232 81.1486 3.95227C81.0464 3.8583 80.9186 3.81131 80.7652 3.81131H77.9694V10.5771Z" fill="#F7811F"/>
<path d="M90.4267 0.851269H90.8514V10.5771H90.4267V0.851269ZM92.9748 0.851269H93.3995V8.4628H96.7969V8.88567H93.3995V9.30853H96.7969V9.73139H93.3995V10.1543H96.7969V10.5771H92.9748V0.851269ZM92.1254 0.851269H92.5501V10.5771H92.1254V0.851269ZM91.2761 0.851269H91.7008V10.5771H91.2761V0.851269Z" fill="#F7811F"/>
<path d="M101.179 4.06973C100.723 4.52391 100.495 5.07207 100.495 5.71419C100.495 6.35632 100.723 6.90448 101.179 7.35866C101.636 7.81285 102.186 8.03994 102.831 8.03994C103.476 8.03994 104.026 7.81285 104.482 7.35866C104.939 6.90448 105.167 6.35632 105.167 5.71419C105.167 5.07207 104.939 4.52391 104.482 4.06973C104.026 3.61554 103.476 3.38845 102.831 3.38845C102.186 3.38845 101.636 3.61554 101.179 4.06973ZM100.289 6.7831C100.143 6.44246 100.071 6.08616 100.071 5.71419C100.071 5.34223 100.143 4.98789 100.289 4.65116C100.434 4.31052 100.631 4.01687 100.879 3.7702C101.126 3.52353 101.419 3.32776 101.757 3.18289C102.1 3.03802 102.457 2.96558 102.831 2.96558C103.204 2.96558 103.56 3.03802 103.899 3.18289C104.241 3.32776 104.536 3.52353 104.783 3.7702C105.031 4.01687 105.228 4.31052 105.373 4.65116C105.519 4.98789 105.591 5.34223 105.591 5.71419C105.591 6.08616 105.519 6.44246 105.373 6.7831C105.228 7.11982 105.031 7.41152 104.783 7.65819C104.536 7.90486 104.241 8.10063 103.899 8.2455C103.56 8.39037 103.204 8.4628 102.831 8.4628C102.457 8.4628 102.1 8.39037 101.757 8.2455C101.419 8.10063 101.126 7.90486 100.879 7.65819C100.631 7.41152 100.434 7.11982 100.289 6.7831ZM100.071 4.12259C99.7874 4.60809 99.6458 5.13863 99.6458 5.71419C99.6458 6.28976 99.7874 6.82029 100.071 7.3058C100.358 7.79131 100.745 8.17698 101.232 8.4628C101.72 8.74471 102.253 8.88567 102.831 8.88567C103.409 8.88567 103.942 8.74471 104.429 8.4628C104.917 8.17698 105.302 7.79131 105.585 7.3058C105.873 6.82029 106.016 6.28976 106.016 5.71419C106.016 5.13863 105.873 4.60809 105.585 4.12259C105.302 3.63708 104.917 3.25337 104.429 2.97146C103.942 2.68563 103.409 2.54272 102.831 2.54272C102.253 2.54272 101.72 2.68563 101.232 2.97146C100.745 3.25337 100.358 3.63708 100.071 4.12259ZM99.7048 7.51724C99.3824 6.96516 99.2211 6.36415 99.2211 5.71419C99.2211 5.06424 99.3824 4.46322 99.7048 3.91115C100.027 3.35908 100.466 2.92252 101.02 2.60145C101.575 2.28039 102.178 2.11986 102.831 2.11986C103.484 2.11986 104.087 2.28039 104.642 2.60145C105.196 2.92252 105.635 3.35908 105.957 3.91115C106.279 4.46322 106.441 5.06424 106.441 5.71419C106.441 6.36415 106.279 6.96516 105.957 7.51724C105.635 8.06931 105.196 8.50587 104.642 8.82694C104.087 9.148 103.484 9.30853 102.831 9.30853C102.178 9.30853 101.575 9.148 101.02 8.82694C100.466 8.50587 100.027 8.06931 99.7048 7.51724ZM99.115 4.15195C98.9026 4.64921 98.7965 5.16995 98.7965 5.71419C98.7965 6.25844 98.9026 6.77918 99.115 7.27644C99.3273 7.77369 99.6124 8.20243 99.9702 8.56265C100.332 8.91895 100.763 9.20282 101.262 9.41425C101.761 9.62568 102.284 9.73139 102.831 9.73139C103.378 9.73139 103.9 9.62568 104.4 9.41425C104.899 9.20282 105.328 8.91895 105.686 8.56265C106.047 8.20243 106.335 7.77369 106.547 7.27644C106.759 6.77918 106.865 6.25844 106.865 5.71419C106.865 5.16995 106.759 4.64921 106.547 4.15195C106.335 3.65469 106.047 3.22792 105.686 2.87161C105.328 2.5114 104.899 2.22557 104.4 2.01414C103.9 1.80271 103.378 1.697 102.831 1.697C102.284 1.697 101.761 1.80271 101.262 2.01414C100.763 2.22557 100.332 2.5114 99.9702 2.87161C99.6124 3.22792 99.3273 3.65469 99.115 4.15195ZM98.9675 7.9401C98.5704 7.25882 98.3718 6.51685 98.3718 5.71419C98.3718 4.91154 98.5704 4.16957 98.9675 3.48829C99.3686 2.80701 99.9113 2.26864 100.595 1.87319C101.28 1.47382 102.025 1.27413 102.831 1.27413C103.637 1.27413 104.382 1.47382 105.066 1.87319C105.751 2.26864 106.291 2.80701 106.688 3.48829C107.09 4.16957 107.29 4.91154 107.29 5.71419C107.29 6.51685 107.09 7.25882 106.688 7.9401C106.291 8.62138 105.751 9.1617 105.066 9.56107C104.382 9.95653 103.637 10.1543 102.831 10.1543C102.025 10.1543 101.28 9.95653 100.595 9.56107C99.9113 9.1617 99.3686 8.62138 98.9675 7.9401ZM98.3305 3.82893C98.0749 4.42799 97.9471 5.05641 97.9471 5.71419C97.9471 6.37198 98.0749 7.00236 98.3305 7.60533C98.59 8.20439 98.938 8.72122 99.3745 9.15583C99.811 9.59044 100.33 9.93695 100.932 10.1954C101.537 10.4499 102.17 10.5771 102.831 10.5771C103.492 10.5771 104.123 10.4499 104.724 10.1954C105.33 9.93695 105.851 9.59044 106.287 9.15583C106.724 8.72122 107.07 8.20439 107.325 7.60533C107.585 7.00236 107.715 6.37198 107.715 5.71419C107.715 5.05641 107.585 4.42799 107.325 3.82893C107.07 3.22596 106.724 2.70717 106.287 2.27256C105.851 1.83795 105.33 1.49339 104.724 1.23889C104.123 0.980477 103.492 0.851269 102.831 0.851269C102.17 0.851269 101.537 0.980477 100.932 1.23889C100.33 1.49339 99.811 1.83795 99.3745 2.27256C98.938 2.70717 98.59 3.22596 98.3305 3.82893ZM97.9412 7.76978C97.662 7.11591 97.5224 6.43071 97.5224 5.71419C97.5224 4.99768 97.662 4.31444 97.9412 3.66448C98.2243 3.01061 98.6018 2.44875 99.0737 1.9789C99.5495 1.50514 100.114 1.12926 100.767 0.851269C101.423 0.56936 102.111 0.428406 102.831 0.428406C103.551 0.428406 104.237 0.56936 104.889 0.851269C105.546 1.12926 106.11 1.50514 106.582 1.9789C107.058 2.44875 107.436 3.01061 107.715 3.66448C107.998 4.31444 108.139 4.99768 108.139 5.71419C108.139 6.43071 107.998 7.11591 107.715 7.76978C107.436 8.41974 107.058 8.9816 106.582 9.45536C106.11 9.92521 105.546 10.2991 104.889 10.5771C104.237 10.859 103.551 11 102.831 11C102.111 11 101.423 10.859 100.767 10.5771C100.114 10.2991 99.5495 9.92521 99.0737 9.45536C98.6018 8.9816 98.2243 8.41974 97.9412 7.76978Z" fill="#F7811F"/>
<path d="M116.391 4.17544L116.043 4.40449C115.831 4.09126 115.554 3.84459 115.212 3.66448C114.873 3.48046 114.506 3.38845 114.109 3.38845C113.464 3.38845 112.913 3.61554 112.457 4.06973C112.001 4.52391 111.773 5.07207 111.773 5.71419C111.773 6.35632 112.001 6.90448 112.457 7.35866C112.913 7.81285 113.464 8.03994 114.109 8.03994C114.506 8.03994 114.873 7.94793 115.212 7.76391C115.554 7.57988 115.831 7.33125 116.043 7.01802L116.385 7.26469C116.134 7.63274 115.807 7.92444 115.406 8.13978C115.005 8.35513 114.573 8.4628 114.109 8.4628C113.735 8.4628 113.377 8.39037 113.035 8.2455C112.697 8.10063 112.404 7.90486 112.156 7.65819C111.908 7.41152 111.712 7.11982 111.566 6.7831C111.421 6.44246 111.348 6.08616 111.348 5.71419C111.348 5.34223 111.421 4.98789 111.566 4.65116C111.712 4.31052 111.908 4.01687 112.156 3.7702C112.404 3.52353 112.697 3.32776 113.035 3.18289C113.377 3.03802 113.735 2.96558 114.109 2.96558C114.576 2.96558 115.011 3.07522 115.412 3.29448C115.813 3.50982 116.14 3.80348 116.391 4.17544ZM117.093 3.69385L116.739 3.9229C116.448 3.50004 116.071 3.16527 115.607 2.9186C115.147 2.66801 114.647 2.54272 114.109 2.54272C113.531 2.54272 112.998 2.68563 112.51 2.97146C112.023 3.25337 111.635 3.63708 111.348 4.12259C111.065 4.60809 110.923 5.13863 110.923 5.71419C110.923 6.28976 111.065 6.82029 111.348 7.3058C111.635 7.79131 112.023 8.17698 112.51 8.4628C112.998 8.74471 113.531 8.88567 114.109 8.88567C114.647 8.88567 115.149 8.76038 115.613 8.50979C116.077 8.2592 116.454 7.92052 116.745 7.49374L117.093 7.73454C116.763 8.22005 116.334 8.60376 115.807 8.88567C115.284 9.16758 114.718 9.30853 114.109 9.30853C113.456 9.30853 112.852 9.148 112.298 8.82694C111.743 8.50587 111.305 8.06931 110.982 7.51724C110.66 6.96516 110.499 6.36415 110.499 5.71419C110.499 5.06424 110.66 4.46322 110.982 3.91115C111.305 3.35908 111.743 2.92252 112.298 2.60145C112.852 2.28039 113.456 2.11986 114.109 2.11986C114.718 2.11986 115.284 2.26081 115.807 2.54272C116.334 2.82463 116.763 3.20834 117.093 3.69385ZM117.801 3.224L117.447 3.45305C117.077 2.91273 116.598 2.48595 116.008 2.17272C115.422 1.85557 114.789 1.697 114.109 1.697C113.562 1.697 113.039 1.80271 112.54 2.01414C112.04 2.22557 111.61 2.5114 111.248 2.87161C110.89 3.22792 110.605 3.65469 110.393 4.15195C110.18 4.64921 110.074 5.16995 110.074 5.71419C110.074 6.25844 110.18 6.77918 110.393 7.27644C110.605 7.77369 110.89 8.20243 111.248 8.56265C111.61 8.91895 112.04 9.20282 112.54 9.41425C113.039 9.62568 113.562 9.73139 114.109 9.73139C114.793 9.73139 115.428 9.57282 116.014 9.25567C116.6 8.93853 117.077 8.50979 117.447 7.96946L117.789 8.22201C117.38 8.81715 116.851 9.28895 116.202 9.63742C115.558 9.98198 114.86 10.1543 114.109 10.1543C113.302 10.1543 112.557 9.95653 111.873 9.56107C111.189 9.1617 110.646 8.62138 110.245 7.9401C109.848 7.25882 109.649 6.51685 109.649 5.71419C109.649 4.91154 109.848 4.16957 110.245 3.48829C110.646 2.80701 111.189 2.26864 111.873 1.87319C112.557 1.47382 113.302 1.27413 114.109 1.27413C114.864 1.27413 115.565 1.45033 116.214 1.80271C116.863 2.15118 117.392 2.62494 117.801 3.224ZM118.497 2.74241L118.143 2.97146C117.695 2.31759 117.115 1.80075 116.403 1.42096C115.695 1.04117 114.93 0.851269 114.109 0.851269C113.448 0.851269 112.815 0.980477 112.209 1.23889C111.608 1.49339 111.089 1.83795 110.652 2.27256C110.216 2.70717 109.868 3.22596 109.608 3.82893C109.353 4.42799 109.225 5.05641 109.225 5.71419C109.225 6.37198 109.353 7.00236 109.608 7.60533C109.868 8.20439 110.216 8.72122 110.652 9.15583C111.089 9.59044 111.608 9.93695 112.209 10.1954C112.815 10.4499 113.448 10.5771 114.109 10.5771C114.93 10.5771 115.697 10.3853 116.409 10.0016C117.121 9.61785 117.701 9.09906 118.149 8.44519L118.491 8.7036C118.003 9.40837 117.374 9.96828 116.604 10.3833C115.833 10.7944 115.001 11 114.109 11C113.389 11 112.701 10.859 112.044 10.5771C111.391 10.2991 110.827 9.92521 110.351 9.45536C109.879 8.9816 109.502 8.41974 109.219 7.76978C108.94 7.11591 108.8 6.43071 108.8 5.71419C108.8 4.99768 108.94 4.31444 109.219 3.66448C109.502 3.01061 109.879 2.44875 110.351 1.9789C110.827 1.50514 111.391 1.12926 112.044 0.851269C112.701 0.56936 113.389 0.428406 114.109 0.428406C115.005 0.428406 115.839 0.635922 116.609 1.05095C117.38 1.46599 118.009 2.0298 118.497 2.74241Z" fill="#F7811F"/>
<path d="M123.534 7.72279L123.705 7.29993H125.156L125.327 7.72279H123.534ZM123.204 8.56852L123.369 8.14566H125.486L125.669 8.56852H123.204ZM122.873 9.41425L123.039 8.99138H125.823L126 9.41425H122.873ZM119.423 10.5771H118.963L122.826 0.851269H123.286L127.144 10.5771H126.69L123.056 1.42096L119.423 10.5771ZM123.109 2.42526L123.351 2.96558L120.331 10.5771H119.877L123.109 2.42526ZM123.581 3.54115L123.805 4.12259L121.251 10.5771H120.791L123.581 3.54115ZM124.03 4.70402L124.254 5.2972L122.16 10.5771H121.706L124.03 4.70402ZM129.887 10.5771H129.427L125.569 0.851269H126.023L129.887 10.5771ZM125.109 0.851269L128.972 10.5771H128.518L124.655 0.851269H125.109ZM124.195 0.851269L128.058 10.5771H127.598L123.741 0.851269H124.195Z" fill="#F7811F"/>
<path d="M130.63 0.851269H131.054V10.5771H130.63V0.851269ZM133.178 0.851269H133.603V8.4628H137V8.88567H133.603V9.30853H137V9.73139H133.603V10.1543H137V10.5771H133.178V0.851269ZM132.329 0.851269H132.753V10.5771H132.329V0.851269ZM131.479 0.851269H131.904V10.5771H131.479V0.851269Z" fill="#F7811F"/>
</svg>
