<svg width="64" height="64" viewBox="0 0 64 64" fill="none" xmlns="http://www.w3.org/2000/svg">
<circle cx="32" cy="32" r="32" fill="#E7E3FF"/>
<path d="M38.8277 44.4853L41.657 41.6573M41.657 41.6573L44.485 38.828M41.657 41.6573L38.8263 38.8267M41.6557 41.656L44.4837 44.484M21.333 24V32C21.333 32 21.333 36 30.6663 36C39.9997 36 39.9997 32 39.9997 32V24" stroke="#0A286C" stroke-width="1.5" stroke-linecap="round" stroke-linejoin="round"/>
<path d="M30.6663 44C21.333 44 21.333 40 21.333 40V32M30.6663 20C39.9997 20 39.9997 24 39.9997 24C39.9997 24 39.9997 28 30.6663 28C21.333 28 21.333 24 21.333 24C21.333 24 21.333 20 30.6663 20Z" stroke="#0A286C" stroke-width="1.5" stroke-linecap="round" stroke-linejoin="round"/>
</svg>
