<svg width="400" height="400" viewBox="0 0 400 400" fill="none" xmlns="http://www.w3.org/2000/svg">
<path d="M359.92 318.792H333.424V318.992H359.92V318.792Z" fill="#EBEBEB"/>
<path d="M264.976 320.968H258.024V321.168H264.976V320.968Z" fill="#EBEBEB"/>
<path d="M332.624 311.368H317.272V311.568H332.624V311.368Z" fill="#EBEBEB"/>
<path d="M76.5198 312.712H41.9678V312.912H76.5198V312.712Z" fill="#EBEBEB"/>
<path d="M88.7124 312.712H83.6484V312.912H88.7124V312.712Z" fill="#EBEBEB"/>
<path d="M180.12 316.088H105.176V316.288H180.12V316.088Z" fill="#EBEBEB"/>
<path d="M189.6 270.24H35.1284C33.9182 270.238 32.7584 269.756 31.9035 268.899C31.0485 268.043 30.5684 266.882 30.5684 265.672V48.528C30.5789 47.3248 31.0637 46.1744 31.9175 45.3266C32.7713 44.4788 33.9251 44.0021 35.1284 44H189.6C190.812 44 191.974 44.4813 192.83 45.3379C193.687 46.1946 194.168 47.3565 194.168 48.568V265.672C194.168 266.884 193.687 268.045 192.83 268.902C191.974 269.759 190.812 270.24 189.6 270.24ZM35.1284 44.16C33.9713 44.1621 32.8623 44.6233 32.0449 45.4422C31.2275 46.2611 30.7684 47.3709 30.7684 48.528V265.672C30.7684 266.829 31.2275 267.939 32.0449 268.758C32.8623 269.577 33.9713 270.038 35.1284 270.04H189.6C190.758 270.038 191.868 269.577 192.687 268.758C193.505 267.94 193.966 266.83 193.968 265.672V48.528C193.966 47.3702 193.505 46.2604 192.687 45.4417C191.868 44.623 190.758 44.1621 189.6 44.16H35.1284Z" fill="#EBEBEB"/>
<path d="M362.648 270.448H208.168C206.957 270.446 205.796 269.964 204.94 269.108C204.084 268.252 203.602 267.091 203.6 265.88V48.736C203.602 47.5251 204.084 46.3645 204.94 45.5083C205.796 44.6521 206.957 44.1701 208.168 44.168H362.648C363.856 44.1722 365.014 44.6554 365.867 45.5116C366.721 46.3678 367.2 47.5273 367.2 48.736V265.88C367.2 267.089 366.721 268.248 365.867 269.104C365.014 269.961 363.856 270.444 362.648 270.448ZM208.168 44.368C207.01 44.3701 205.9 44.831 205.081 45.6497C204.263 46.4684 203.802 47.5782 203.8 48.736V265.88C203.802 267.038 204.263 268.148 205.081 268.966C205.9 269.785 207.01 270.246 208.168 270.248H362.648C363.805 270.246 364.915 269.785 365.734 268.966C366.553 268.148 367.013 267.038 367.016 265.88V48.736C367.013 47.5782 366.553 46.4684 365.734 45.6497C364.915 44.831 363.805 44.3701 362.648 44.368H208.168Z" fill="#EBEBEB"/>
<path d="M400 305.92H0V306.12H400V305.92Z" fill="#EBEBEB"/>
<path d="M60.5278 118.4H133.08C142.376 118.4 144.616 105.392 135.84 102.336L135.496 102.224C145.208 94.128 123.904 77.072 100.76 100.688C102.568 92.816 81.9918 95.664 75.7038 106.408C73.4638 99.352 53.8478 111.608 60.5278 118.4Z" fill="#E6E6E6"/>
<path d="M254.584 85.96H298.088C298.088 85.96 308.288 82.12 306.968 71.944C305.648 61.768 290.248 70.248 290.248 70.248C290.248 70.248 294.912 56.048 280 60.08C265.088 64.112 263.632 78.184 263.632 78.184C263.632 78.184 244.04 74.76 254.584 85.96Z" fill="#EBEBEB"/>
<path d="M294.552 114.584H323.272C323.272 114.584 330.008 112.048 329.136 105.328C328.264 98.608 318.096 104.208 318.096 104.208C318.096 104.208 321.176 94.84 311.328 97.496C308.552 98.2054 306.047 99.7176 304.126 101.843C302.205 103.969 300.953 106.615 300.528 109.448C300.528 109.448 287.592 107.2 294.552 114.584Z" fill="#EBEBEB"/>
<path d="M289.032 260.168L288.952 251.672V251.2L288.88 243.624V243.144L288.808 235.944V235.472L288.744 228.616V228.168L288.68 221.624V221.208L288.616 214.952V214.56L288.56 208.584V208.2L288.512 203.256C288.262 203.414 287.993 203.54 287.712 203.632V207.808H282.416L286.688 203.896C286.248 203.984 285.801 204.038 285.352 204.056L281.832 207.256L281.896 203.48C281.606 203.364 281.336 203.202 281.096 203L281 208.184V208.568L280.904 214.544V214.952L280.784 221.184V221.6L280.672 228.128V228.576L280.552 235.432V235.904L280.424 243.104V243.592L280.288 251.16V251.672L280.144 260.16L279.328 296.8L289.536 296.92L289.032 260.168ZM287.968 258.568L281.816 251.92H287.928L287.968 258.568ZM287.872 251.128H281.784L287.824 244.776L287.872 251.128ZM287.936 241.792L282.08 235.792H287.904L287.936 241.792ZM287.864 234.968H282.072L287.832 229.2L287.864 234.968ZM287.824 227.024L282.224 221.576H287.776L287.824 227.024ZM287.824 220.728H282.288L287.776 215.464L287.824 220.728ZM287.728 208.608V213.592L282.392 208.632L287.728 208.608ZM281.712 209.744L287.048 214.72H281.64L281.712 209.744ZM281.632 215.584H287.04L281.512 220.8L281.632 215.584ZM281.52 222.872L287.12 228.328H281.472L281.52 222.872ZM281.44 229.16H287.112L281.36 234.904L281.44 229.16ZM281.328 237.104L287.192 243.128H281.248L281.328 237.104ZM281.272 243.936H287.2L281.152 250.256L281.272 243.936ZM281.232 252.304L287.384 258.976H281.136L281.232 252.304Z" fill="#EBEBEB"/>
<path d="M288.424 202.352H288.016L287.72 202.08L285.32 204.32C285.766 204.298 286.209 204.245 286.648 204.16L287.648 203.248V203.864C287.928 203.769 288.196 203.643 288.448 203.488L288.424 202.352ZM281.016 202.4V203.296C281.26 203.491 281.529 203.652 281.816 203.776V202.4H281.016Z" fill="#EBEBEB"/>
<path d="M289.6 201.688C289.629 201.91 289.606 202.135 289.532 202.346C289.458 202.557 289.337 202.748 289.176 202.904L288.888 203.176C288.737 203.297 288.577 203.407 288.408 203.504C288.157 203.659 287.889 203.785 287.608 203.88C287.286 204.011 286.951 204.11 286.608 204.176C286.17 204.261 285.726 204.314 285.28 204.336H284.68C283.699 204.338 282.728 204.142 281.824 203.76C281.538 203.636 281.269 203.475 281.024 203.28L280.952 203.224L280.688 202.968C280.534 202.818 280.418 202.632 280.351 202.427C280.284 202.223 280.268 202.004 280.304 201.792L280.912 198.384H279.312L284.912 195.544L290.744 198.2H289.104L289.6 201.688Z" fill="#EBEBEB"/>
<path d="M315.296 205.96L315.512 296.816H322.104H360.424H367.016L367.304 205.96H315.296Z" fill="#EBEBEB"/>
<path d="M325.352 194.4L325.376 214.656H329.456H353.176H357.256L357.296 194.4H325.352Z" fill="#EBEBEB"/>
<path d="M325.312 214.656H318.576L318.568 208.592H325.304L325.312 214.656Z" fill="#FAFAFA"/>
<path d="M338.232 208.584H331.496V214.656H338.232V208.584Z" fill="#FAFAFA"/>
<path d="M351.16 208.584H344.424V214.656H351.16V208.584Z" fill="#FAFAFA"/>
<path d="M364.08 214.656H357.344L357.36 208.592H364.096L364.08 214.656Z" fill="#F0F0F0"/>
<path d="M325.224 225.72H318.648L318.632 219.8H325.216L325.224 225.72Z" fill="#F0F0F0"/>
<path d="M338.128 219.8H331.544V225.72H338.128V219.8Z" fill="#F0F0F0"/>
<path d="M351.04 219.8H344.456V225.72H351.04V219.8Z" fill="#FAFAFA"/>
<path d="M363.936 225.72H357.352L357.368 219.8H363.952L363.936 225.72Z" fill="#FAFAFA"/>
<path d="M325.168 236.504H318.744L318.728 230.728H325.16L325.168 236.504Z" fill="#F0F0F0"/>
<path d="M338.064 230.728H331.632V236.504H338.064V230.728Z" fill="#FAFAFA"/>
<path d="M350.952 230.728H344.52V236.504H350.952V230.728Z" fill="#FAFAFA"/>
<path d="M338.192 199.776H331.328V205.968H338.192V199.776Z" fill="#FAFAFA"/>
<path d="M351.136 199.776H344.264V205.968H351.136V199.776Z" fill="#F0F0F0"/>
<path d="M363.832 236.504H357.408L357.416 230.728H363.848L363.832 236.504Z" fill="#F0F0F0"/>
<path d="M325.152 247.04H318.872L318.856 241.4H325.144L325.152 247.04Z" fill="#FAFAFA"/>
<path d="M338.024 241.4H331.744V247.04H338.024V241.4Z" fill="#F0F0F0"/>
<path d="M350.904 247.04H344.624L344.632 241.4H350.912L350.904 247.04Z" fill="#F0F0F0"/>
<path d="M363.776 247.04H357.496L357.512 241.4H363.792L363.776 247.04Z" fill="#FAFAFA"/>
<path d="M325.432 258.88H318.432L318.416 252.6H325.424L325.432 258.88Z" fill="#F0F0F0"/>
<path d="M338.28 258.88H331.288L331.28 252.6H338.288L338.28 258.88Z" fill="#FAFAFA"/>
<path d="M351.136 258.88H344.136V252.6H351.144L351.136 258.88Z" fill="#FAFAFA"/>
<path d="M363.984 258.88H356.984L357 252.6H364L363.984 258.88Z" fill="#F0F0F0"/>
<path d="M325.472 268.88H318.632L318.616 262.752H325.464L325.472 268.88Z" fill="#F0F0F0"/>
<path d="M338.312 262.752H331.472V268.88H338.312V262.752Z" fill="#FAFAFA"/>
<path d="M351.168 262.752H344.328V268.88H351.168V262.752Z" fill="#F0F0F0"/>
<path d="M364.008 268.88H357.168L357.184 262.752H364.032L364.008 268.88Z" fill="#FAFAFA"/>
<path d="M325.328 280.136H318.656L318.648 274.168H325.32L325.328 280.136Z" fill="#FAFAFA"/>
<path d="M338.152 274.168H331.48V280.136H338.152V274.168Z" fill="#FAFAFA"/>
<path d="M350.976 274.168H344.304V280.136H350.976V274.168Z" fill="#F0F0F0"/>
<path d="M363.792 280.136H357.128L357.136 274.168H363.808L363.792 280.136Z" fill="#F0F0F0"/>
<path d="M325.328 290.368H318.816L318.808 284.552H325.32L325.328 290.368Z" fill="#F0F0F0"/>
<path d="M363.768 290.368H357.264L357.272 284.552H363.784L363.768 290.368Z" fill="#FAFAFA"/>
<path d="M351.008 284.552H331.568L331.608 286.016H332.144L332.152 296.816H334.096L334.088 286.016H348.52L348.504 296.816H350.448L350.464 286.016H351.048L351.008 284.552Z" fill="#F5F5F5"/>
<path d="M341.384 296.816H334.184V286.016H341.392L341.384 296.816Z" fill="#E6E6E6"/>
<path d="M348.416 296.816H341.208L341.216 286.016H348.432L348.416 296.816Z" fill="#EBEBEB"/>
<path d="M315.368 234.864L315.512 296.816H307.248H259.2H250.928L250.336 234.864H315.368Z" fill="#F5F5F5"/>
<path d="M303.008 248.632H311.072L311.048 241.4H302.984L303.008 248.632Z" fill="#E6E6E6"/>
<path d="M286.92 248.632H294.984L294.952 241.4H286.88L286.92 248.632Z" fill="#E6E6E6"/>
<path d="M270.832 248.632H278.896L278.848 241.4H270.784L270.832 248.632Z" fill="#E6E6E6"/>
<path d="M254.744 248.632H262.808L262.744 241.4H254.68L254.744 248.632Z" fill="#E6E6E6"/>
<path d="M302.704 262.752H311.392L311.368 254.968H302.672L302.704 262.752Z" fill="#E6E6E6"/>
<path d="M286.648 262.752H295.336L295.296 254.968H286.6L286.648 262.752Z" fill="#E6E6E6"/>
<path d="M270.584 262.752H279.272L279.224 254.968H270.528L270.584 262.752Z" fill="#E6E6E6"/>
<path d="M254.528 262.752H263.216L263.152 254.968H254.456L254.528 262.752Z" fill="#E6E6E6"/>
<path d="M302.928 275.664H311.36L311.344 268.12H302.904L302.928 275.664Z" fill="#E6E6E6"/>
<path d="M286.888 275.664H295.32L295.288 268.12H286.848L286.888 275.664Z" fill="#E6E6E6"/>
<path d="M270.848 275.664H279.28L279.232 268.12H270.792L270.848 275.664Z" fill="#E6E6E6"/>
<path d="M254.8 275.664H263.232L263.176 268.12H254.736L254.8 275.664Z" fill="#E6E6E6"/>
<path d="M303.112 288.92H311.288L311.272 281.608H303.08L303.112 288.92Z" fill="#E6E6E6"/>
<path d="M255.048 288.92H263.232L263.168 281.608H254.984L255.048 288.92Z" fill="#E6E6E6"/>
<path d="M270.464 281.608H295.768L295.776 283.816H294.16L294.224 296.816H291.88L291.816 283.816H274.456L274.544 296.816H272.208L272.112 283.816H270.488L270.464 281.608Z" fill="#F5F5F5"/>
<path d="M283.272 296.816H291.936L291.872 283.816H283.192L283.272 296.816Z" fill="#E6E6E6"/>
<path d="M274.488 296.816H283.152L283.08 283.816H274.4L274.488 296.816Z" fill="#EBEBEB"/>
<path d="M121.68 181.832V178.92C121.667 178.837 121.625 178.761 121.561 178.706C121.498 178.651 121.416 178.621 121.332 178.621C121.248 178.621 121.166 178.651 121.103 178.706C121.039 178.761 120.997 178.837 120.984 178.92V182.12C120.988 182.211 121.025 182.297 121.089 182.362C121.152 182.427 121.237 182.466 121.328 182.472C121.605 182.472 121.876 182.554 122.107 182.709C122.337 182.863 122.517 183.082 122.622 183.338C122.728 183.594 122.755 183.876 122.701 184.148C122.646 184.42 122.512 184.669 122.315 184.865C122.119 185.06 121.868 185.193 121.596 185.246C121.324 185.299 121.042 185.27 120.787 185.163C120.531 185.056 120.313 184.875 120.16 184.644C120.007 184.413 119.926 184.141 119.928 183.864C119.928 183.424 119.192 183.424 119.232 183.864C119.408 185.6 121.432 186.744 122.808 185.352C123.072 185.079 123.257 184.74 123.343 184.371C123.43 184.001 123.414 183.615 123.299 183.254C123.183 182.893 122.971 182.57 122.686 182.319C122.401 182.069 122.053 181.9 121.68 181.832Z" fill="#EBEBEB"/>
<path d="M70.4 160.896V167.2L63.752 160.552L63.424 160.88H62.96V220.88H71.328V160.88L70.4 160.896ZM63.888 206.672L69.744 212.528H63.888V206.672ZM63.888 191.784L69.744 197.64H63.888V191.784ZM63.888 176.904L69.744 182.76H63.888V176.904ZM63.888 162.016L69.744 167.88H63.888V162.016ZM69.744 168.8L63.888 174.664V168.8H69.744ZM70.4 169.456V175.32H64.544L70.4 169.456ZM69.744 183.688L63.888 189.544V183.688H69.744ZM70.4 184.344V190.2H64.544L70.4 184.344ZM69.744 198.568L63.888 204.432V198.568H69.744ZM70.4 199.2V205.064H64.544L70.4 199.2ZM69.744 213.432L63.888 219.288V213.432H69.744ZM64.544 220L70.4 214.112V220H64.544ZM70.4 211.872L64.544 206.016H70.4V211.872ZM70.4 196.984L64.544 191.128H70.4V196.984ZM70.4 182.104L64.544 176.248H70.4V182.104Z" fill="#F0F0F0"/>
<path d="M63.8877 141.136V152.8H64.7997V148.344L69.5997 153.144L69.9277 152.816H70.3997V141.136H63.8877ZM68.7997 142.064L64.7997 146.064V142.064H68.7997ZM69.4557 151.664L65.4557 147.664H69.4557V151.664ZM65.4557 146.744L69.4557 142.744V146.744H65.4557Z" fill="#F0F0F0"/>
<path d="M48.6082 160.896H37.4482V172.056H48.6082V160.896Z" fill="#E6E6E6"/>
<path d="M121.48 177H120.856V155.544L68.8801 138.304H65.4481L37.6161 155.576L37.2881 155.056L65.2641 137.688H68.9841L69.0321 137.704L121.48 155.096V177Z" fill="#E6E6E6"/>
<path d="M115.12 161.384H115.76L122.288 154.856H36.9844V161.36H115.12V161.384ZM116.048 155.784H120.048L116.048 159.784V155.784ZM37.9124 160.432V156.432L41.9124 160.432H37.9124ZM42.5684 159.776L38.5684 155.776H42.5684V159.776ZM43.4964 155.776H47.4964L43.4964 159.776V155.776ZM48.1524 160.424H44.1524L48.1524 156.424V160.424ZM49.0804 160.424V156.424L53.0804 160.424H49.0804ZM53.7284 159.768L49.7284 155.768H53.7284V159.768ZM54.6564 155.768H58.6564L54.6564 159.768V155.768ZM59.3124 160.416H55.3124L59.3124 156.416V160.416ZM60.2404 160.416V156.416L64.2404 160.416H60.2404ZM64.8964 159.76L60.8964 155.76H64.8964V159.76ZM65.8244 155.76H69.8244L65.8244 159.76V155.76ZM70.4724 160.408H66.4724L70.4724 156.408V160.408ZM71.4004 160.408V156.408L75.4004 160.408H71.4004ZM76.0564 159.752L72.0564 155.752H76.0564V159.752ZM76.9844 155.752H80.9844L76.9844 159.752V155.752ZM81.6324 160.4H77.6324L81.6324 156.4V160.4ZM82.5604 160.4V156.4L86.5604 160.4H82.5604ZM87.2164 159.744L83.2164 155.744H87.2164V159.744ZM88.1444 155.744H92.1444L88.1444 159.744V155.744ZM92.8004 160.392H88.8004L92.8004 156.392V160.392ZM93.7284 160.392V156.392L97.7284 160.392H93.7284ZM98.3764 159.736L94.3764 155.736H98.3764V159.736ZM99.3044 155.736H103.304L99.3044 159.736V155.736ZM103.96 160.384H99.9604L103.96 156.384V160.384ZM104.888 155.736H108.888L104.888 159.736V155.736ZM109.544 160.384H105.544L109.544 156.384V160.384ZM110.472 160.384V156.384L114.472 160.384H110.472ZM111.128 155.736H115.128V159.736L111.128 155.736Z" fill="#F0F0F0"/>
<path d="M75.4561 163.432H58.2881L58.9201 156.232C59.0003 155.291 59.4314 154.414 60.1278 153.775C60.8242 153.136 61.7352 152.783 62.6801 152.784H70.8561C71.7824 152.786 72.6759 153.127 73.3674 153.743C74.059 154.359 74.5004 155.208 74.6081 156.128L75.4561 163.432Z" fill="#F0F0F0"/>
<path d="M64.3517 155.76H61.0557V159.056H64.3517V155.76Z" fill="#FAFAFA"/>
<path d="M68.5196 155.76H65.2236V159.056H68.5196V155.76Z" fill="#FAFAFA"/>
<path d="M72.6876 155.76H69.3916V159.056H72.6876V155.76Z" fill="#FAFAFA"/>
<path d="M69.3925 139.352C69.3925 139.797 69.2606 140.231 69.0136 140.601C68.7666 140.971 68.4155 141.259 68.0048 141.429C67.594 141.599 67.142 141.644 66.7059 141.557C66.2699 141.47 65.8693 141.256 65.5549 140.942C65.2405 140.627 65.0264 140.227 64.9397 139.791C64.8529 139.354 64.8975 138.902 65.0676 138.492C65.2377 138.081 65.5259 137.73 65.8956 137.483C66.2652 137.236 66.6999 137.104 67.1445 137.104C67.7407 137.104 68.3125 137.341 68.7341 137.762C69.1556 138.184 69.3925 138.756 69.3925 139.352Z" fill="#E6E6E6"/>
<path d="M121.328 180.84C121.076 180.84 120.826 180.79 120.593 180.694C120.361 180.597 120.149 180.456 119.971 180.278C119.792 180.099 119.651 179.888 119.554 179.655C119.458 179.422 119.408 179.172 119.408 178.92V177H123.248V178.92C123.248 179.172 123.199 179.422 123.102 179.655C123.006 179.888 122.864 180.099 122.686 180.278C122.508 180.456 122.296 180.597 122.063 180.694C121.83 180.79 121.58 180.84 121.328 180.84Z" fill="#E6E6E6"/>
<path d="M30.4316 205.96L31.9196 296.816H38.5196H76.8396H83.4316L82.4476 205.96H30.4316Z" fill="#F5F5F5"/>
<path d="M33.6797 208.592L33.8637 219.648L33.9117 222.68L33.9597 225.72H40.7037L40.6557 222.68L40.6157 219.648L40.4397 208.592H33.6797Z" fill="#E6E6E6"/>
<path d="M46.6084 208.592L46.7764 219.648L46.8164 222.68L46.8644 225.72H53.6084L53.5684 222.68L53.5284 219.648L53.3764 208.592H46.6084Z" fill="#E6E6E6"/>
<path d="M59.5361 208.592L59.6881 219.648L59.7281 222.68L59.7681 225.72H66.5121L66.4801 222.68L66.4401 219.648L66.3041 208.592H59.5361Z" fill="#E6E6E6"/>
<path d="M72.4717 208.592L72.5997 219.648L72.6557 224.336L72.6717 225.72H79.4237L79.4077 224.336L79.3517 219.648L79.2317 208.592H72.4717Z" fill="#E6E6E6"/>
<path d="M34.0879 230.728L34.2719 241.776L34.3199 244.808L34.3679 247.84H41.1199L41.0799 244.808L41.0319 241.776L40.8639 230.728H34.0879Z" fill="#E6E6E6"/>
<path d="M46.9844 230.728L47.1444 241.776L47.2084 246.048L47.2324 247.84H53.9924L53.9684 246.048L53.9124 241.776L53.7524 230.728H46.9844Z" fill="#E6E6E6"/>
<path d="M59.8721 230.728L60.0241 241.776L60.0641 244.808L60.1041 247.84H66.8641L66.8241 244.808L66.7841 241.776L66.6481 230.728H59.8721Z" fill="#E6E6E6"/>
<path d="M72.7676 230.728L72.9036 241.776L72.9356 244.808L72.9756 247.84H79.7276L79.6956 244.808L79.6636 241.776L79.5436 230.728H72.7676Z" fill="#E6E6E6"/>
<path d="M34.4717 252.6L34.6477 263.6L34.7037 266.624L34.7517 269.64H41.4957L41.4477 266.624L41.3997 263.6L41.2397 252.6H34.4717Z" fill="#E6E6E6"/>
<path d="M47.3359 252.6L47.4959 263.6L47.5359 266.624L47.5839 269.64H54.3279L54.2879 266.624L54.2479 263.6L54.0959 252.6H47.3359Z" fill="#E6E6E6"/>
<path d="M60.1924 252.6L60.3364 263.6L60.3764 266.624L60.4164 269.64H67.1684L67.1284 266.624L67.0884 263.6L66.9524 252.6H60.1924Z" fill="#E6E6E6"/>
<path d="M73.0557 252.6L73.1837 263.6L73.2317 267.776L73.2557 269.64H79.9997L79.9837 267.776L79.9357 263.6L79.8157 252.6H73.0557Z" fill="#E6E6E6"/>
<path d="M76.8005 274.168H73.4645H67.2165H60.5365H54.2885H47.6165H34.6885L34.7845 280.136H47.7045H54.3685H60.6165H67.2885H73.5365H76.8725H80.2085L80.1445 274.168H76.8005Z" fill="#E6E6E6"/>
<path d="M67.208 284.552H47.768L47.752 286.016H48.336L48.496 296.816H50.44L50.28 286.016H64.712L64.848 296.816H66.784L66.656 286.016H67.192L67.208 284.552Z" fill="#FAFAFA"/>
<path d="M57.7282 296.816H50.5282L50.3682 286.016H57.5842L57.7282 296.816Z" fill="#E6E6E6"/>
<path d="M64.7522 296.816H57.5522L57.4082 286.016H64.6162L64.7522 296.816Z" fill="#E6E6E6"/>
<path d="M131.504 211.2L132.088 296.816H125.872H89.7683H83.5523L82.4883 211.2H131.504Z" fill="#E6E6E6"/>
<path d="M114.192 275.664H116.84H128.72L128.736 278.408L128.752 281.152L128.832 291.088H122.68L122.6 280.872H116.6H114.232H110.776L110.728 275.664H114.192Z" fill="#F0F0F0"/>
<path d="M90.7524 275.664H93.1204H104.4L104.456 280.872H92.7844L92.9044 291.088H86.7524L86.6404 281.152L86.5924 277.184L86.5684 275.664H90.7524Z" fill="#F0F0F0"/>
<path d="M99.3436 285.28H116.072L116.088 286.744H116.272L116.352 296.816H114.544L114.456 286.744H101L101.104 296.816H99.2956L99.1836 286.744H99.3596L99.3436 285.28Z" fill="#F5F5F5"/>
<path d="M107.752 296.816H114.472L114.384 286.744H107.656L107.752 296.816Z" fill="#EBEBEB"/>
<path d="M101.176 296.816H107.896L107.8 286.744H101.072L101.176 296.816Z" fill="#E0E0E0"/>
<path d="M109.848 214.656H128.496L128.608 230.728H110L109.848 214.656Z" fill="#F0F0F0"/>
<path d="M85.6719 214.656H104.32L104.472 230.728H85.8639L85.6719 214.656Z" fill="#F0F0F0"/>
<path d="M110.368 234.864H128.216L128.336 250.224H110.504L110.368 234.864Z" fill="#F0F0F0"/>
<path d="M86.2324 234.864H104.08L104.24 250.224H86.4084L86.2324 234.864Z" fill="#F0F0F0"/>
<path d="M110.552 255.752H128.504L128.616 271.152H110.688L110.552 255.752Z" fill="#F0F0F0"/>
<path d="M86.4883 255.752H104.44L104.592 271.152H86.6643L86.4883 255.752Z" fill="#F0F0F0"/>
<path d="M200 341.608C285.666 341.608 355.112 337.553 355.112 332.552C355.112 327.551 285.666 323.496 200 323.496C114.334 323.496 44.8877 327.551 44.8877 332.552C44.8877 337.553 114.334 341.608 200 341.608Z" fill="#F5F5F5"/>
<path d="M128.664 67.696L131.648 71.552H268.336L271.344 67.696H128.664Z" fill="#244BA5"/>
<g opacity="0.4">
<path d="M128.664 67.696L131.648 71.552H268.336L271.344 67.696H128.664Z" fill="black"/>
</g>
<path d="M268.368 62.728H131.368V305.592H268.368V62.728Z" fill="#244BA5"/>
<g opacity="0.4">
<path d="M268.368 62.728H131.368V305.592H268.368V62.728Z" fill="white"/>
</g>
<g opacity="0.8">
<path d="M136.919 68.704C136.972 69.0568 136.949 69.4169 136.85 69.7598C136.751 70.1027 136.58 70.4203 136.348 70.6912C136.116 70.9621 135.828 71.1799 135.504 71.3298C135.18 71.4797 134.828 71.5582 134.471 71.56C133.704 71.5298 132.973 71.2247 132.412 70.7004C131.851 70.1761 131.497 69.4675 131.415 68.704C131.36 68.3489 131.382 67.986 131.48 67.6402C131.578 67.2944 131.749 66.9738 131.983 66.7004C132.216 66.4269 132.505 66.2071 132.831 66.0558C133.157 65.9045 133.512 65.8255 133.871 65.824C134.641 65.8568 135.373 66.1661 135.933 66.6952C136.493 67.2242 136.843 67.9375 136.919 68.704Z" fill="#F0F0F0"/>
<path d="M141.968 68.704C142.017 69.0589 141.989 69.4201 141.887 69.7635C141.785 70.1069 141.611 70.4245 141.376 70.695C141.141 70.9655 140.851 71.1826 140.525 71.3318C140.2 71.481 139.846 71.5588 139.488 71.56C138.726 71.5224 138.003 71.214 137.448 70.6903C136.894 70.1667 136.545 69.4623 136.464 68.704C136.411 68.348 136.435 67.9848 136.535 67.639C136.635 67.2932 136.808 66.973 137.042 66.6999C137.277 66.4268 137.567 66.2072 137.894 66.0561C138.22 65.905 138.576 65.8258 138.936 65.824C139.702 65.8605 140.431 66.1715 140.987 66.7002C141.544 67.2289 141.892 67.9401 141.968 68.704Z" fill="#F0F0F0"/>
<path d="M147.008 68.704C147.054 69.0598 147.025 69.4213 146.921 69.7647C146.817 70.1081 146.641 70.4254 146.405 70.6956C146.169 70.9657 145.878 71.1825 145.551 71.3316C145.225 71.4806 144.871 71.5585 144.512 71.56C143.749 71.5318 143.022 71.2262 142.468 70.7003C141.914 70.1745 141.572 69.4647 141.504 68.704C141.455 68.3466 141.483 67.9829 141.586 67.6372C141.688 67.2915 141.864 66.9716 142.1 66.699C142.336 66.4265 142.628 66.2074 142.956 66.0565C143.283 65.9056 143.639 65.8264 144 65.824C144.767 65.8528 145.497 66.1619 146.051 66.6926C146.605 67.2234 146.946 67.939 147.008 68.704Z" fill="#F0F0F0"/>
<path d="M152.047 68.704C152.089 69.0608 152.055 69.4224 151.948 69.7653C151.84 70.1081 151.662 70.4245 151.424 70.6939C151.187 70.9632 150.895 71.1796 150.568 71.3288C150.241 71.478 149.887 71.5568 149.527 71.56C148.767 71.5312 148.043 71.2247 147.493 70.6984C146.943 70.1721 146.606 69.4626 146.543 68.704C146.499 68.3449 146.532 67.9805 146.639 67.6348C146.745 67.289 146.924 66.9698 147.162 66.6978C147.401 66.4259 147.695 66.2075 148.024 66.0569C148.353 65.9063 148.71 65.827 149.071 65.824C149.835 65.8536 150.561 66.1637 151.11 66.6951C151.659 67.2265 151.993 67.9418 152.047 68.704Z" fill="#F0F0F0"/>
<path d="M157.095 68.704C157.133 69.0621 157.096 69.4242 156.986 69.7671C156.875 70.1099 156.695 70.4259 156.455 70.6949C156.216 70.9638 155.922 71.1796 155.595 71.3286C155.267 71.4776 154.911 71.5564 154.551 71.56C153.793 71.5324 153.071 71.2256 152.525 70.6985C151.978 70.1714 151.646 69.4611 151.591 68.704C151.55 68.344 151.584 67.9793 151.693 67.6336C151.802 67.2878 151.982 66.9688 152.222 66.6972C152.461 66.4256 152.756 66.2075 153.086 66.0571C153.415 65.9066 153.773 65.8272 154.135 65.824C154.898 65.8504 155.624 66.1599 156.171 66.6924C156.719 67.2248 157.048 67.942 157.095 68.704Z" fill="#F0F0F0"/>
<path d="M162.135 68.704C162.17 69.0634 162.129 69.426 162.016 69.7689C161.903 70.1118 161.72 70.4274 161.479 70.6959C161.237 70.9644 160.943 71.1798 160.614 71.3285C160.285 71.4773 159.928 71.5561 159.567 71.56C158.811 71.5336 158.091 71.2266 157.548 70.6987C157.005 70.1707 156.679 69.4597 156.631 68.704C156.594 68.3427 156.632 67.9775 156.743 67.6317C156.854 67.286 157.037 66.9673 157.279 66.6962C157.52 66.4251 157.816 66.2074 158.147 66.0572C158.478 65.907 158.836 65.8276 159.199 65.824C159.961 65.849 160.685 66.1588 161.228 66.6922C161.772 67.2255 162.096 67.9434 162.135 68.704Z" fill="#F0F0F0"/>
<path d="M167.199 68.704C167.23 69.0647 167.186 69.4278 167.07 69.7707C166.954 70.1136 166.769 70.429 166.526 70.697C166.282 70.9651 165.987 71.18 165.656 71.3285C165.326 71.477 164.969 71.5558 164.607 71.56C163.852 71.535 163.134 71.2277 162.595 70.6989C162.056 70.1701 161.735 69.4582 161.695 68.704C161.66 68.3419 161.7 67.9763 161.813 67.6305C161.927 67.2847 162.111 66.9663 162.354 66.6955C162.597 66.4246 162.893 66.2073 163.225 66.0573C163.556 65.9072 163.915 65.8278 164.279 65.824C165.039 65.8493 165.761 66.1597 166.302 66.6933C166.843 67.227 167.163 67.9449 167.199 68.704Z" fill="#F0F0F0"/>
<path d="M172.224 68.704C172.251 69.0666 172.204 69.4309 172.085 69.7744C171.965 70.1179 171.777 70.4333 171.531 70.7011C171.285 70.9688 170.987 71.1832 170.654 71.3309C170.322 71.4787 169.963 71.5566 169.6 71.56C168.847 71.5364 168.13 71.2289 167.595 70.6992C167.059 70.1694 166.744 69.4567 166.712 68.704C166.681 68.3408 166.725 67.9753 166.842 67.63C166.958 67.2847 167.145 66.9671 167.389 66.6969C167.634 66.4268 167.932 66.2099 168.264 66.0597C168.596 65.9095 168.955 65.8293 169.32 65.824C170.079 65.8458 170.801 66.1555 171.341 66.6903C171.88 67.2252 172.196 67.945 172.224 68.704Z" fill="#F0F0F0"/>
<path d="M177.263 68.704C177.287 69.0665 177.237 69.43 177.116 69.7725C176.995 70.115 176.806 70.4294 176.56 70.6965C176.314 70.9636 176.016 71.1779 175.684 71.3263C175.353 71.4748 174.995 71.5543 174.631 71.56C173.879 71.5381 173.164 71.2306 172.63 70.7001C172.097 70.1696 171.786 69.4559 171.759 68.704C171.732 68.3389 171.78 67.9722 171.9 67.6263C172.02 67.2804 172.209 66.9627 172.456 66.6929C172.704 66.423 173.004 66.2067 173.338 66.0573C173.672 65.9078 174.033 65.8284 174.399 65.824C175.155 65.8463 175.873 66.1574 176.405 66.6932C176.938 67.2289 177.245 67.9486 177.263 68.704Z" fill="#F0F0F0"/>
<path d="M182.312 68.704C182.331 69.0681 182.277 69.4323 182.152 69.7749C182.028 70.1176 181.835 70.4316 181.587 70.6982C181.338 70.9648 181.038 71.1785 180.705 71.3266C180.372 71.4747 180.012 71.5541 179.648 71.56C178.897 71.5416 178.182 71.2346 177.651 70.7027C177.121 70.1708 176.816 69.455 176.8 68.704C176.776 68.3384 176.826 67.9717 176.949 67.6263C177.071 67.2809 177.262 66.9639 177.51 66.6945C177.759 66.4252 178.059 66.2091 178.394 66.0595C178.728 65.9098 179.089 65.8297 179.456 65.824C180.211 65.8425 180.931 66.1526 181.463 66.6894C181.995 67.2262 182.3 67.9481 182.312 68.704Z" fill="#F0F0F0"/>
<path d="M187.351 68.704C187.367 69.0686 187.31 69.4327 187.183 69.7749C187.057 70.1172 186.863 70.4306 186.613 70.6967C186.363 70.9628 186.063 71.1763 185.729 71.3246C185.396 71.4728 185.036 71.5529 184.671 71.56C183.923 71.5395 183.212 71.231 182.686 70.6989C182.16 70.1668 181.859 69.4522 181.847 68.704C181.827 68.3372 181.88 67.97 182.005 67.6245C182.13 67.279 182.323 66.9622 182.574 66.6932C182.824 66.4243 183.126 66.2087 183.462 66.0593C183.797 65.9099 184.16 65.8299 184.527 65.824C185.28 65.8427 185.996 66.1539 186.523 66.6915C187.05 67.2292 187.347 67.951 187.351 68.704Z" fill="#F0F0F0"/>
<path d="M192.391 68.704C192.404 69.0698 192.344 69.4345 192.215 69.7768C192.085 70.1191 191.889 70.4323 191.637 70.6981C191.386 70.9639 191.084 71.1769 190.749 71.3249C190.414 71.4729 190.053 71.5528 189.687 71.56C188.942 71.5393 188.233 71.23 187.711 70.6973C187.189 70.1646 186.893 69.45 186.887 68.704C186.871 68.3362 186.929 67.969 187.057 67.6239C187.185 67.2787 187.381 66.9627 187.633 66.6943C187.885 66.426 188.188 66.2107 188.524 66.0612C188.86 65.9118 189.223 65.8311 189.591 65.824C190.343 65.8408 191.057 66.1521 191.581 66.6908C192.105 67.2296 192.396 67.9526 192.391 68.704Z" fill="#F0F0F0"/>
<path d="M197.439 68.704C197.449 69.0709 197.386 69.4362 197.254 69.7786C197.121 70.1211 196.923 70.4341 196.669 70.6995C196.416 70.9649 196.112 71.1776 195.776 71.3253C195.44 71.473 195.078 71.5527 194.711 71.56C193.966 71.5432 193.258 71.2344 192.739 70.7002C192.219 70.1659 191.931 69.449 191.935 68.704C191.922 68.3351 191.983 67.9673 192.114 67.622C192.245 67.2768 192.443 66.9609 192.696 66.6929C192.95 66.4249 193.255 66.2101 193.593 66.0609C193.93 65.9117 194.294 65.8312 194.663 65.824C195.412 65.8429 196.122 66.1556 196.642 66.6946C197.161 67.2336 197.448 67.9554 197.439 68.704Z" fill="#F0F0F0"/>
<path d="M202.48 68.704C202.454 69.2421 202.272 69.7611 201.955 70.1965C201.638 70.6319 201.2 70.9646 200.695 71.1534C200.19 71.3423 199.642 71.3788 199.116 71.2586C198.591 71.1384 198.113 70.8667 197.741 70.4772C197.369 70.0878 197.119 69.5976 197.023 69.0675C196.927 68.5375 196.988 67.9909 197.2 67.4954C197.411 67 197.763 66.5775 198.213 66.2804C198.662 65.9833 199.189 65.8246 199.728 65.824C200.098 65.8313 200.463 65.9116 200.802 66.0605C201.141 66.2094 201.447 66.4239 201.703 66.6915C201.958 66.9592 202.159 67.2748 202.292 67.6202C202.425 67.9656 202.489 68.3339 202.48 68.704Z" fill="#F0F0F0"/>
<path d="M207.519 68.704C207.526 69.4483 207.239 70.1652 206.721 70.6997C206.203 71.2341 205.496 71.5432 204.751 71.56C204.384 71.5527 204.022 71.473 203.686 71.3253C203.35 71.1776 203.047 70.9649 202.793 70.6995C202.54 70.4341 202.341 70.1211 202.209 69.7786C202.077 69.4362 202.014 69.0709 202.023 68.704C202.011 67.9556 202.294 67.2325 202.813 66.6929C203.332 66.1532 204.043 65.8408 204.791 65.824C205.16 65.8312 205.524 65.9117 205.862 66.0609C206.2 66.2101 206.504 66.4249 206.758 66.6929C207.012 66.9609 207.21 67.2768 207.341 67.622C207.472 67.9673 207.532 68.3351 207.519 68.704Z" fill="#F0F0F0"/>
<path d="M212.567 68.704C212.565 69.4512 212.271 70.1681 211.748 70.7017C211.225 71.2353 210.514 71.5433 209.767 71.56C209.401 71.5528 209.04 71.4729 208.706 71.3249C208.371 71.1769 208.069 70.9639 207.817 70.6981C207.566 70.4323 207.369 70.1191 207.24 69.7768C207.111 69.4345 207.05 69.0698 207.063 68.704C207.059 67.954 207.349 67.2321 207.871 66.6936C208.393 66.1551 209.105 65.8428 209.855 65.824C210.224 65.8311 210.587 65.9118 210.924 66.0611C211.26 66.2105 211.564 66.4256 211.817 66.6939C212.069 66.9621 212.266 67.2781 212.395 67.6232C212.524 67.9684 212.582 68.3359 212.567 68.704Z" fill="#F0F0F0"/>
<path d="M217.599 68.704C217.589 69.4515 217.29 70.1661 216.766 70.6984C216.241 71.2307 215.53 71.5394 214.783 71.56C214.418 71.5528 214.058 71.4729 213.724 71.3247C213.39 71.1765 213.089 70.9632 212.839 70.6972C212.588 70.4312 212.394 70.1178 212.266 69.7756C212.138 69.4333 212.08 69.069 212.095 68.704C212.099 67.951 212.396 67.2292 212.923 66.6915C213.45 66.1539 214.166 65.8427 214.919 65.824C215.286 65.831 215.648 65.9118 215.983 66.0615C216.318 66.2113 216.62 66.4269 216.87 66.6957C217.12 66.9644 217.313 67.2807 217.439 67.6257C217.564 67.9707 217.618 68.3374 217.599 68.704Z" fill="#F0F0F0"/>
<path d="M222.656 68.704C222.638 69.4544 222.332 70.1691 221.802 70.7006C221.272 71.2321 220.558 71.5397 219.808 71.56C219.444 71.5541 219.084 71.4747 218.752 71.3265C218.419 71.1784 218.119 70.9645 217.871 70.6978C217.623 70.4311 217.432 70.117 217.308 69.7743C217.184 69.4317 217.131 69.0677 217.152 68.704C217.162 67.9502 217.463 67.2294 217.992 66.6926C218.522 66.1558 219.238 65.8446 219.992 65.824C220.358 65.8298 220.72 65.9099 221.055 66.0594C221.39 66.209 221.691 66.4249 221.94 66.6941C222.189 66.9633 222.381 67.2802 222.504 67.6257C222.627 67.9712 222.679 68.338 222.656 68.704Z" fill="#F0F0F0"/>
<path d="M227.696 68.704C227.669 69.4599 227.354 70.1771 226.816 70.7082C226.277 71.2393 225.556 71.5441 224.8 71.56C224.436 71.5542 224.077 71.4748 223.746 71.3264C223.414 71.1781 223.115 70.9639 222.868 70.6969C222.622 70.43 222.432 70.1157 222.31 69.7731C222.188 69.4306 222.137 69.0669 222.16 68.704C222.178 67.9486 222.485 67.2289 223.018 66.6932C223.55 66.1574 224.268 65.8463 225.024 65.824C225.392 65.8241 225.757 65.9002 226.095 66.0477C226.433 66.1952 226.737 66.4109 226.988 66.6812C227.239 66.9515 227.431 67.2707 227.553 67.6188C227.674 67.9668 227.723 68.3363 227.696 68.704Z" fill="#F0F0F0"/>
<path d="M232.735 68.704C232.705 69.456 232.392 70.1687 231.857 70.6986C231.323 71.2285 230.608 71.5363 229.855 71.56C229.489 71.5598 229.127 71.4843 228.792 71.3381C228.457 71.1919 228.155 70.9781 227.906 70.7102C227.656 70.4422 227.465 70.1258 227.344 69.7806C227.222 69.4355 227.173 69.069 227.199 68.704C227.225 67.9471 227.538 67.2284 228.074 66.6936C228.611 66.1588 229.33 65.8479 230.087 65.824C230.455 65.8238 230.819 65.9 231.156 66.0477C231.493 66.1955 231.795 66.4116 232.044 66.6823C232.293 66.9531 232.483 67.2726 232.602 67.6206C232.721 67.9686 232.766 68.3375 232.735 68.704Z" fill="#F0F0F0"/>
<path d="M237.783 68.704C237.743 69.4582 237.422 70.1701 236.883 70.6989C236.344 71.2277 235.626 71.535 234.871 71.56C234.509 71.5558 234.152 71.477 233.822 71.3285C233.492 71.18 233.196 70.9651 232.953 70.697C232.709 70.429 232.524 70.1136 232.408 69.7707C232.292 69.4278 232.248 69.0647 232.279 68.704C232.311 67.9449 232.629 67.2261 233.169 66.6919C233.709 66.1576 234.432 65.8476 235.191 65.824C235.555 65.8291 235.914 65.9093 236.245 66.0597C236.576 66.21 236.873 66.4272 237.116 66.6977C237.36 66.9681 237.545 67.2859 237.659 67.6312C237.774 67.9764 237.816 68.3417 237.783 68.704Z" fill="#F0F0F0"/>
<path d="M242.824 68.704C242.778 69.459 242.453 70.1699 241.912 70.6981C241.37 71.2262 240.652 71.5335 239.896 71.56C239.534 71.556 239.178 71.4772 238.848 71.3285C238.519 71.1799 238.224 70.9646 237.982 70.6963C237.74 70.428 237.556 70.1124 237.442 69.7695C237.328 69.4266 237.286 69.0638 237.32 68.704C237.359 67.9434 237.683 67.2255 238.227 66.6922C238.77 66.1588 239.494 65.849 240.256 65.824C240.619 65.8276 240.977 65.907 241.308 66.0572C241.639 66.2074 241.935 66.4251 242.176 66.6962C242.418 66.9673 242.601 67.286 242.712 67.6317C242.824 67.9775 242.862 68.3427 242.824 68.704Z" fill="#F0F0F0"/>
<path d="M247.863 68.704C247.812 69.4611 247.482 70.1723 246.937 70.6999C246.391 71.2275 245.67 71.534 244.911 71.56C244.554 71.5508 244.203 71.468 243.88 71.3167C243.556 71.1654 243.267 70.9489 243.031 70.6807C242.796 70.4125 242.618 70.0985 242.509 69.7584C242.4 69.4182 242.363 69.0593 242.399 68.704C242.447 67.942 242.776 67.2248 243.323 66.6924C243.87 66.1599 244.596 65.8504 245.359 65.824C245.718 65.8327 246.071 65.9162 246.396 66.0691C246.721 66.2219 247.011 66.4408 247.246 66.7118C247.482 66.9828 247.659 67.2999 247.765 67.6429C247.871 67.9859 247.905 68.3473 247.863 68.704Z" fill="#F0F0F0"/>
<path d="M252.912 68.704C252.852 69.4619 252.515 70.1714 251.967 70.6978C251.418 71.2242 250.696 71.531 249.936 71.56C249.576 71.5579 249.22 71.48 248.893 71.3312C248.565 71.1825 248.272 70.9663 248.034 70.6968C247.795 70.4273 247.616 70.1105 247.508 69.7671C247.4 69.4238 247.366 69.0615 247.408 68.704C247.461 67.9412 247.794 67.2249 248.343 66.6932C248.893 66.1614 249.62 65.8518 250.384 65.824C250.746 65.827 251.103 65.9063 251.432 66.0569C251.761 66.2075 252.054 66.4259 252.293 66.6978C252.531 66.9698 252.71 67.289 252.817 67.6348C252.923 67.9805 252.956 68.3449 252.912 68.704Z" fill="#F0F0F0"/>
<path d="M257.952 68.704C257.884 69.4633 257.543 70.1721 256.991 70.6978C256.438 71.2234 255.714 71.5299 254.952 71.56C254.593 71.5571 254.239 71.4783 253.913 71.3289C253.587 71.1796 253.296 70.9629 253.06 70.6932C252.823 70.4235 252.647 70.1069 252.541 69.764C252.436 69.4212 252.404 69.06 252.448 68.704C252.51 67.9403 252.849 67.2258 253.402 66.6952C253.955 66.1646 254.682 65.8547 255.448 65.824C255.809 65.8265 256.165 65.9058 256.493 66.0566C256.821 66.2075 257.113 66.4263 257.35 66.6987C257.587 66.9712 257.763 67.2909 257.867 67.6366C257.971 67.9823 258 68.3462 257.952 68.704Z" fill="#F0F0F0"/>
<path d="M263 68.704C262.919 69.4584 262.574 70.1597 262.024 70.6829C261.475 71.206 260.757 71.5168 260 71.56C259.642 71.5588 259.288 71.481 258.962 71.3318C258.636 71.1826 258.346 70.9655 258.111 70.695C257.877 70.4245 257.702 70.1069 257.6 69.7635C257.498 69.4201 257.471 69.0589 257.52 68.704C257.595 67.9414 257.942 67.2313 258.497 66.7027C259.052 66.1742 259.778 65.8624 260.544 65.824C260.902 65.8294 261.255 65.9111 261.579 66.0636C261.903 66.2162 262.191 66.436 262.423 66.7085C262.656 66.9811 262.827 67.3 262.927 67.6441C263.026 67.9882 263.051 68.3495 263 68.704Z" fill="#F0F0F0"/>
<path d="M268.04 68.704C267.958 69.4662 267.605 70.1737 267.046 70.6979C266.487 71.222 265.758 71.528 264.992 71.56C264.635 71.558 264.282 71.4795 263.958 71.3296C263.634 71.1798 263.346 70.9622 263.113 70.6915C262.88 70.4208 262.708 70.1033 262.609 69.7604C262.509 69.4175 262.484 69.0573 262.536 68.704C262.612 67.9375 262.962 67.2242 263.522 66.6952C264.082 66.1661 264.814 65.8568 265.584 65.824C265.943 65.8255 266.298 65.9045 266.624 66.0558C266.95 66.2071 267.24 66.4269 267.473 66.7004C267.706 66.9738 267.877 67.2944 267.975 67.6402C268.073 67.986 268.095 68.3489 268.04 68.704Z" fill="#F0F0F0"/>
</g>
<path d="M128.656 63.792H271.352L271.344 67.696H128.664L128.656 63.792Z" fill="#244BA5"/>
<path d="M128.647 59.888L131.623 63.792H268.351L271.359 59.888H128.647Z" fill="#244BA5"/>
<g opacity="0.4">
<path d="M128.647 59.888L131.623 63.792H268.351L271.359 59.888H128.647Z" fill="black"/>
</g>
<path d="M128.632 55.968H271.368L271.36 59.888H128.648L128.632 55.968Z" fill="#244BA5"/>
<g opacity="0.8">
<path d="M131.616 59.888H268.36L268.352 63.792H131.624L131.616 59.888Z" fill="white"/>
</g>
<g opacity="0.7">
<path d="M268.4 140.648H131.408V142.368H268.4V140.648Z" fill="white"/>
</g>
<g opacity="0.8">
<path d="M268.391 226.016H131.688V227.728H268.391V226.016Z" fill="white"/>
</g>
<path d="M176.736 79.032H159.8V97.328H176.736V79.032Z" fill="#244BA5"/>
<path d="M209.264 79.032H192.328V97.328H209.264V79.032Z" fill="#244BA5"/>
<path d="M241.791 79.032H224.855V97.328H241.791V79.032Z" fill="#244BA5"/>
<path d="M176.736 106.424H159.8V124.72H176.736V106.424Z" fill="#244BA5"/>
<path d="M209.264 106.424H192.328V124.72H209.264V106.424Z" fill="#244BA5"/>
<path d="M241.791 106.424H224.855V124.72H241.791V106.424Z" fill="#244BA5"/>
<path d="M176.736 239.192H159.8V257.488H176.736V239.192Z" fill="#244BA5"/>
<path d="M209.264 239.192H192.328V257.488H209.264V239.192Z" fill="#244BA5"/>
<path d="M241.791 239.192H224.855V257.488H241.791V239.192Z" fill="#244BA5"/>
<path d="M158.592 277.712H141.656V296.008H158.592V277.712Z" fill="#244BA5"/>
<path d="M258.096 277.712H241.16V296.008H258.096V277.712Z" fill="#244BA5"/>
<path d="M176.736 156.784H159.8V175.08H176.736V156.784Z" fill="#244BA5"/>
<path d="M209.264 156.784H192.328V175.08H209.264V156.784Z" fill="#244BA5"/>
<path d="M241.791 156.784H224.855V175.08H241.791V156.784Z" fill="#244BA5"/>
<path d="M176.736 184.176H159.8V202.472H176.736V184.176Z" fill="#244BA5"/>
<path d="M209.264 184.176H192.328V202.472H209.264V184.176Z" fill="#244BA5"/>
<path d="M241.791 184.176H224.855V202.472H241.791V184.176Z" fill="#244BA5"/>
<g opacity="0.8">
<path d="M180.28 279.856H197.808L197.736 298.056H180.16L180.28 279.856Z" fill="white"/>
</g>
<g opacity="0.8">
<path d="M201.192 279.856H219.44L218.576 298.056H201L201.192 279.856Z" fill="white"/>
</g>
<path d="M222.232 301.72H175.984L175.8 298.056H222.408L222.232 301.72Z" fill="#244BA5"/>
<g opacity="0.1">
<path d="M222.232 301.72H175.984L175.8 298.056H222.408L222.232 301.72Z" fill="white"/>
</g>
<path d="M224.095 305.592H174.351L174.151 301.984H224.279L224.095 305.592Z" fill="#244BA5"/>
<g opacity="0.4">
<path d="M225.744 273.408H172.576L172.344 269.288H225.952L225.744 273.408Z" fill="white"/>
</g>
<path d="M172.576 273.408L180.28 279.856H219.44L225.744 273.408H172.576Z" fill="#263238"/>
<path d="M176.176 276.424L178.896 298.024H181.056L180.184 276.424C179.565 276.106 178.879 275.94 178.184 275.94C177.488 275.94 176.803 276.106 176.184 276.424H176.176Z" fill="#244BA5"/>
<path d="M222.896 276.424L220.232 298.024H218.072L218.872 276.424C219.467 276.034 220.162 275.827 220.872 275.827C221.583 275.827 222.278 276.034 222.872 276.424H222.896Z" fill="#244BA5"/>
<path d="M154.752 50.032C154.752 46.496 157.464 43.992 161.152 43.992C162.098 43.9467 163.042 44.121 163.909 44.5013C164.777 44.8816 165.544 45.4575 166.152 46.184L164.064 48.072C163.741 47.6506 163.326 47.3089 162.85 47.0731C162.374 46.8373 161.851 46.7138 161.32 46.712C160.439 46.712 159.595 47.0618 158.972 47.6844C158.35 48.307 158 49.1515 158 50.032C158 50.9125 158.35 51.757 158.972 52.3796C159.595 53.0022 160.439 53.352 161.32 53.352C161.851 53.352 162.375 53.2293 162.851 52.9934C163.327 52.7575 163.742 52.4148 164.064 51.992L166.152 53.888C165.543 54.6131 164.775 55.188 163.908 55.5682C163.041 55.9483 162.098 56.1235 161.152 56.08C157.464 56.08 154.752 53.6 154.752 50.032Z" fill="#263238"/>
<path d="M166.752 50.032C166.752 46.552 169.496 43.992 173.216 43.992C176.936 43.992 179.672 46.552 179.672 50.032C179.672 53.512 176.936 56.08 173.216 56.08C169.496 56.08 166.752 53.52 166.752 50.032ZM176.352 50.032C176.318 49.4185 176.104 48.8285 175.738 48.335C175.372 47.8415 174.869 47.4661 174.292 47.2551C173.715 47.0441 173.089 47.0069 172.491 47.148C171.893 47.2891 171.349 47.6024 170.927 48.0491C170.505 48.4958 170.224 49.0563 170.117 49.6614C170.01 50.2665 170.083 50.8897 170.326 51.4538C170.57 52.018 170.973 52.4984 171.487 52.8358C172 53.1731 172.601 53.3526 173.216 53.352C173.645 53.3563 174.07 53.2719 174.464 53.1041C174.859 52.9363 175.215 52.6888 175.509 52.3771C175.804 52.0654 176.031 51.6961 176.176 51.2926C176.321 50.889 176.381 50.4599 176.352 50.032Z" fill="#263238"/>
<path d="M191.888 55.848V49.688L188.896 54.704H187.44L184.464 49.856V55.848H181.424V44.224H184.136L188.216 50.928L192.216 44.224H194.92V55.848H191.888Z" fill="#263238"/>
<path d="M207.703 48.528C207.703 51.16 205.711 52.808 202.543 52.808H200.511V55.848H197.231V44.224H202.543C205.711 44.224 207.703 45.864 207.703 48.528ZM204.383 48.528C204.383 47.448 203.703 46.816 202.343 46.816H200.511V50.216H202.343C203.703 50.216 204.383 49.6 204.383 48.528Z" fill="#263238"/>
<path d="M216.504 53.6H211.584L210.672 55.864H207.32L212.448 44.24H215.688L220.8 55.848H217.384L216.504 53.6ZM215.536 51.2L214.04 47.488L212.552 51.2H215.536Z" fill="#263238"/>
<path d="M232.8 44.224V55.848H230.096L224.968 49.656V55.848H221.768V44.224H224.472L229.6 50.4V44.224H232.8Z" fill="#263238"/>
<path d="M241.36 51.68V55.848H238.072V51.632L233.64 44.224H237.112L239.872 48.84L242.624 44.224H245.824L241.36 51.68Z" fill="#263238"/>
<path d="M131.616 59.888H268.36L268.352 63.792H131.624L131.616 59.888Z" fill="#244BA5"/>
<path d="M289.744 184.904C285.448 190.696 283.784 193.36 282.12 195C280.304 196.792 261.76 195.424 259.52 194.488C257.808 193.768 258.992 191.544 259.8 191.656C262.856 192.08 274.328 190.056 277.728 188.584C278.32 188.32 284.128 181.256 284.128 181.256L289.744 184.904Z" fill="#FFB573"/>
<path d="M282.688 181.072C286.32 174.408 293.48 169.52 295.648 169.24C298.768 168.832 299.816 169.456 298.904 171.96C297.352 176.224 294.496 180.704 290.472 186.128L282.688 181.072Z" fill="#244BA5"/>
<g opacity="0.1">
<path d="M282.688 181.072C286.32 174.408 293.48 169.52 295.648 169.24C298.768 168.832 299.816 169.456 298.904 171.96C297.352 176.224 294.496 180.704 290.472 186.128L282.688 181.072Z" fill="black"/>
</g>
<path d="M295.648 169.24C297.402 168.602 299.192 168.068 301.008 167.64C304.326 166.842 307.698 166.286 311.096 165.976C313.073 165.763 315.06 165.654 317.048 165.648C317.25 165.646 317.451 165.667 317.648 165.712C318.397 165.898 319.044 166.368 319.454 167.021C319.864 167.674 320.005 168.461 319.848 169.216C316.512 186.856 316.352 194.68 316.832 203.768L296.528 204.488C296.27 204.489 296.02 204.398 295.823 204.231C295.626 204.063 295.496 203.831 295.456 203.576C294.552 199 291.744 188.832 291.744 188.832C289.208 186.392 288.784 183.384 288.544 181.632C288.4 180.68 290.528 179.648 292.84 174.608C292.8 174.608 294.608 169.6 295.648 169.24Z" fill="#244BA5"/>
<path d="M308.48 204.048L301.08 204.32C299.976 195.52 300.184 187.752 300.568 179C302.768 187.481 305.409 195.842 308.48 204.048Z" fill="#263238"/>
<path d="M310.624 271.728C310.44 271.32 310.256 270.928 310.08 270.464C302.096 251.384 296 212.8 296 212.8L310.232 205.6C310.232 205.6 314.28 239.504 319.832 261.56C320.68 264.92 321.552 267.96 322.456 270.624L312.736 275.088L310.624 271.728Z" fill="#FFB573"/>
<g opacity="0.8">
<path d="M310.624 271.728C310.44 271.32 310.256 270.928 310.08 270.464C302.096 251.384 296 212.8 296 212.8L310.232 205.6C310.232 205.6 314.28 239.504 319.832 261.56C320.68 264.92 321.552 267.96 322.456 270.624L312.736 275.088L310.624 271.728Z" fill="#263238"/>
</g>
<path d="M297.048 207.824C297.048 207.824 290.536 253.424 292.072 272.072C293.672 291.728 299.512 325.384 299.512 325.384L304.312 325.056C305.942 307.501 305.542 289.816 303.12 272.352C314.12 244.04 315.352 208.544 315.352 208.544L297.048 207.824Z" fill="#FFB573"/>
<path opacity="0.8" d="M297.048 207.824C297.048 207.824 290.536 253.424 292.072 272.072C293.672 291.728 299.512 325.384 299.512 325.384L304.312 325.056C305.942 307.501 305.542 289.816 303.12 272.352C314.12 244.04 315.352 208.544 315.352 208.544L297.048 207.824Z" fill="#263238"/>
<path d="M304.936 326.56C305.27 327.198 305.453 327.904 305.472 328.624C305.6 331.256 305.784 338.272 305.784 338.272L305.208 338.312C305.208 338.312 304.856 334.872 304.456 333.152C304.056 331.432 303.792 332.912 302.912 334.792C302.032 336.672 299.56 338.6 295.8 338.952C291.392 339.36 289.592 339.28 290.8 338.04C292.008 336.8 294.896 335.872 294.896 335.872C294.896 335.872 298.736 329.304 298.512 324.872C298.272 320.144 303.736 324.584 304.792 323.92C305.168 324 304.72 326.176 304.936 326.56Z" fill="#263238"/>
<path d="M320.153 263.2C317.361 263.8 314.881 265.856 307.545 266.592H307.105C306.793 266.592 306.473 266.648 306.137 266.664C304.169 266.768 292.897 266.24 290.809 265.016C292.625 246.256 296.201 206.392 296.201 206.392L304.801 205.368L315.897 205.032C315.897 205.032 328.137 217.672 325.321 229.144C321.121 246.304 323.201 248.968 320.153 263.2Z" fill="#263238"/>
<path d="M316.728 194.752C316.434 194.457 316.21 194.099 316.071 193.706C315.933 193.313 315.884 192.894 315.928 192.48C315.928 192.48 315.928 191.216 315.888 189.28C315.824 183.68 315.776 172.48 316.36 170.992C317.64 167.792 319.832 166.04 320.976 167.912C322.32 170.104 322.416 186.736 322.416 186.736C322.072 197.744 318.04 196.288 316.728 194.752Z" fill="#FFB573"/>
<path d="M314.065 165.32L313.393 166.528C310.801 171.2 304.801 177.288 302.457 177.88C301.909 176.612 301.067 175.493 300.001 174.616C299.377 174.924 298.823 175.356 298.371 175.886C297.92 176.415 297.582 177.031 297.377 177.696C295.369 174.432 295.545 170.304 296.049 168.264C297.233 167.904 298.497 167.536 299.697 167.24C303.018 166.471 306.389 165.936 309.785 165.64C311.203 165.443 312.633 165.337 314.065 165.32Z" fill="#244BA5"/>
<path opacity="0.8" d="M314.064 165.32L313.392 166.528C310.8 171.2 304.801 177.288 302.457 177.88C302.015 176.747 301.643 175.587 301.344 174.408C300.088 175.032 299.16 176.808 298.744 178.152C296.728 174.888 295.545 170.304 296.049 168.264C297.233 167.904 298.497 167.536 299.697 167.24C303.018 166.471 306.389 165.936 309.785 165.64C311.203 165.443 312.633 165.337 314.064 165.32Z" fill="white"/>
<path d="M298.625 188.208L295.841 184.432L293.353 189.36C293.353 189.36 295.897 190.784 298.009 190.304L298.625 188.208Z" fill="#FFB573"/>
<path d="M291.432 183.272L290.248 187.256L293.352 189.336L295.84 184.432L291.432 183.272Z" fill="#FFB573"/>
<path d="M316.8 206.088L306.52 206.368H305.656L303.432 206.432H302.584L296.544 206.592C296.36 206.592 296.192 206.496 296.184 206.376L295.944 204.44C295.944 204.312 296.096 204.192 296.304 204.184L302.272 203.944H302.984L305.936 203.832H306.632L316.536 203.44C316.604 203.432 316.673 203.442 316.736 203.469C316.799 203.496 316.854 203.538 316.896 203.592L317.136 205.792C317.232 205.92 317.056 206.08 316.8 206.088Z" fill="#244BA5"/>
<path opacity="0.2" d="M316.8 206.088L306.52 206.368H305.656L303.432 206.432H302.584L296.544 206.592C296.36 206.592 296.192 206.496 296.184 206.376L295.944 204.44C295.944 204.312 296.096 204.192 296.304 204.184L302.272 203.944H302.984L305.936 203.832H306.632L316.536 203.44C316.604 203.432 316.673 203.442 316.736 203.469C316.799 203.496 316.854 203.538 316.896 203.592L317.136 205.792C317.232 205.92 317.056 206.08 316.8 206.088Z" fill="white"/>
<path d="M299.408 206.808H300.064C300.09 206.814 300.117 206.814 300.143 206.808C300.169 206.803 300.193 206.792 300.215 206.776C300.236 206.76 300.253 206.739 300.266 206.716C300.279 206.692 300.286 206.667 300.288 206.64L299.92 203.896C299.92 203.816 299.792 203.744 299.656 203.744H299C298.864 203.744 298.768 203.824 298.776 203.904L299.144 206.656C299.166 206.706 299.203 206.748 299.251 206.776C299.298 206.803 299.353 206.814 299.408 206.808Z" fill="#263238"/>
<path d="M310.865 206.64H311.489C311.512 206.646 311.537 206.647 311.561 206.642C311.585 206.638 311.608 206.629 311.628 206.616C311.649 206.602 311.666 206.584 311.679 206.564C311.692 206.543 311.701 206.52 311.705 206.496L311.329 203.736C311.329 203.664 311.201 203.592 311.081 203.6H310.457C310.329 203.6 310.241 203.664 310.249 203.752L310.617 206.488C310.625 206.584 310.737 206.64 310.865 206.64Z" fill="#263238"/>
<path d="M314.272 218.488L312.672 217.92L319.792 196.616C320.928 193.232 320.496 190 316.296 188.52C312.368 187.136 309.28 189.112 308.136 192.52L300.936 213.76L299.336 213.192L306.536 191.968C307.864 188.04 310.424 185.376 316.6 187.56C322.776 189.744 322.656 193.264 321.336 197.208L314.272 218.488Z" fill="#244BA5"/>
<path d="M318.297 231.632L287.097 220.432L294.169 199.776C294.326 199.298 294.576 198.855 294.906 198.475C295.236 198.094 295.638 197.783 296.089 197.559C296.541 197.336 297.032 197.205 297.535 197.173C298.037 197.142 298.541 197.211 299.017 197.376L321.753 205.456C322.995 205.916 324.011 206.84 324.586 208.034C325.16 209.228 325.249 210.598 324.833 211.856L318.297 231.632Z" fill="#244BA5"/>
<path opacity="0.4" d="M314.84 230.4L290.529 221.664C289.61 221.318 288.863 220.626 288.449 219.736C288.035 218.846 287.986 217.83 288.313 216.904L294.177 199.776C294.333 199.298 294.584 198.855 294.914 198.475C295.244 198.094 295.646 197.783 296.097 197.559C296.549 197.336 297.04 197.205 297.542 197.173C298.045 197.142 298.549 197.211 299.025 197.376L321.761 205.456C323.003 205.916 324.019 206.84 324.593 208.034C325.168 209.228 325.257 210.598 324.84 211.856L319.473 228.072C319.328 228.533 319.092 228.961 318.779 229.33C318.466 229.698 318.082 230 317.65 230.217C317.218 230.434 316.746 230.563 316.264 230.594C315.781 230.625 315.297 230.559 314.84 230.4Z" fill="white"/>
<g opacity="0.3">
<path d="M314.272 218.488L313.016 219.584L312.688 217.92L319.808 196.616C320.944 193.232 320.512 190 316.312 188.52C312.384 187.136 309.296 189.112 308.152 192.52L300.952 213.76L299.656 214.84L299.376 213.192L306.576 191.968C307.904 188.04 310.464 185.376 316.64 187.56C322.816 189.744 322.696 193.264 321.376 197.208L314.272 218.488Z" fill="white"/>
</g>
<path d="M304.192 205.664L301.592 204.736L301.92 203.752L304.52 204.68L304.192 205.664Z" fill="#244BA5"/>
<path d="M302.032 212.048L299.424 211.12L299.76 210.136L302.36 211.064L302.032 212.048Z" fill="#244BA5"/>
<path d="M317.56 210.432L314.952 209.504L315.28 208.512L317.888 209.44L317.56 210.432Z" fill="#244BA5"/>
<path d="M315.425 216.84L312.809 215.904L313.137 214.912L315.753 215.848L315.425 216.84Z" fill="#244BA5"/>
<path d="M312.4 209.224L306.816 207.232L307.52 205.12L313.104 207.112L312.4 209.224Z" fill="white"/>
<path d="M319.137 195.736C316.633 197.176 306.505 195.552 297.937 190.4C297.537 190.152 297.137 190.184 296.985 190.088C296.449 189.696 297.785 188.792 298.585 188.376C299.025 188.152 317.929 190.544 319.233 190.72C320.713 194.576 319.377 194.528 319.137 195.736Z" fill="#FFB573"/>
<path d="M311.064 273.272C312.44 277.2 317.056 278.928 320.288 276.472C320.419 276.372 320.544 276.265 320.664 276.152C334.664 263.192 352.472 244.304 352.472 244.304L349.472 240.504C338.983 246.583 329.075 253.612 319.872 261.504C316.672 264.248 313.352 267.248 310.12 270.448L311.064 273.272Z" fill="#FFB573"/>
<path opacity="0.8" d="M311.064 273.272C312.44 277.2 317.056 278.928 320.288 276.472C320.419 276.372 320.544 276.265 320.664 276.152C334.664 263.192 352.472 244.304 352.472 244.304L349.472 240.504C338.983 246.583 329.075 253.612 319.872 261.504C316.672 264.248 313.352 267.248 310.12 270.448L311.064 273.272Z" fill="#263238"/>
<path d="M347.657 240.984C347.854 240.341 348.206 239.756 348.681 239.28C350.361 237.528 354.905 233.016 354.905 233.016L355.313 233.424C355.313 233.424 353.265 235.824 352.385 237.2C351.505 238.576 352.665 237.84 354.497 237.32C356.329 236.8 359.257 237.432 361.993 240.008C365.193 243.04 366.361 244.44 364.737 244.304C363.113 244.168 360.561 242.616 360.561 242.616C360.561 242.616 353.625 243.888 350.809 246.856C347.785 250.056 347.129 243.12 346.009 242.744C345.769 242.4 347.537 241.384 347.657 240.984Z" fill="#263238"/>
<path d="M299.608 164.736C301.112 166.528 302.28 168.736 300.28 171.336C299.842 171.891 299.61 172.581 299.624 173.288C299.672 174.416 300.424 175.472 303.88 173.056C308.92 169.568 308.232 166.072 308.232 166.072C305.416 165.416 303.368 159.672 302.504 156.416L299.608 164.736Z" fill="#FFB573"/>
<path opacity="0.2" d="M302.552 161.432C303.048 162.824 301.712 165.192 300.64 166.168C300.344 165.66 300.001 165.181 299.616 164.736L301.328 159.808C301.841 160.261 302.258 160.814 302.552 161.432Z" fill="black"/>
<path d="M287.584 149.464C286.24 154.688 288.24 160.416 291.928 164.352C295.656 160.264 302.704 161.152 306.624 157.248C309.248 154.656 309.728 150.304 308.104 146.992C306.36 143.424 301.208 139.984 297.144 140.544C292.592 141.176 288.712 145.064 287.584 149.464Z" fill="#263238"/>
<path d="M303.112 147.688C302.57 146.891 301.876 146.21 301.07 145.682C300.264 145.154 299.362 144.79 298.416 144.61C297.469 144.431 296.496 144.441 295.553 144.638C294.61 144.835 293.715 145.217 292.92 145.76C288.192 148.96 289.072 156.96 291.184 161.48C293.504 166.536 300.28 166.744 303.44 161.784C305.56 158.48 305.112 156.224 304.328 150.856C304.173 149.72 303.756 148.636 303.112 147.688Z" fill="#FFB573"/>
<path d="M293.856 158.888C293.606 159.006 293.332 159.067 293.056 159.067C292.779 159.067 292.506 159.006 292.256 158.888C292.721 157.912 293.046 156.875 293.224 155.808L293.856 158.888Z" fill="#ED893E"/>
<path d="M297.96 158.4C297.968 158.384 297.972 158.367 297.972 158.35C297.973 158.333 297.97 158.315 297.963 158.299C297.956 158.283 297.946 158.269 297.933 158.257C297.92 158.246 297.905 158.237 297.888 158.232C297.856 158.221 297.821 158.222 297.79 158.236C297.759 158.249 297.734 158.273 297.72 158.304C297.488 158.8 297.14 159.234 296.706 159.568C296.271 159.902 295.763 160.127 295.224 160.224C295.192 160.235 295.164 160.257 295.146 160.286C295.129 160.316 295.122 160.35 295.128 160.384C295.131 160.4 295.137 160.415 295.146 160.429C295.155 160.442 295.166 160.454 295.179 160.463C295.193 160.472 295.208 160.478 295.224 160.481C295.24 160.484 295.256 160.483 295.272 160.48C295.479 160.44 295.682 160.384 295.88 160.312C296.337 160.149 296.757 159.895 297.114 159.567C297.471 159.239 297.759 158.842 297.96 158.4Z" fill="#263238"/>
<path d="M294.16 143.32C293.736 144.001 293.464 144.765 293.36 145.56C299.608 147 304.216 153.56 305.992 159.776C307.68 157.552 310.992 154.832 312.28 152.16C313.712 149.16 311.8 145.76 308.92 144.08C306.371 142.822 303.722 141.775 301 140.952C299.759 140.532 298.413 140.536 297.175 140.965C295.937 141.394 294.876 142.222 294.16 143.32Z" fill="#263238"/>
<path d="M306.68 154.088C306.634 153.86 306.544 153.643 306.414 153.45C306.284 153.257 306.117 153.091 305.923 152.962C305.729 152.834 305.512 152.745 305.283 152.7C305.055 152.656 304.82 152.657 304.592 152.704C303.272 152.992 302.792 154.84 302.872 156.024C302.984 157.328 304 158.232 305.12 157.416C305.974 156.797 306.549 155.865 306.72 154.824C306.755 154.578 306.741 154.328 306.68 154.088Z" fill="#FFB573"/>
<path d="M296.384 153.6C296.528 154.12 296.384 154.624 296.016 154.72C295.648 154.816 295.288 154.464 295.152 153.92C295.016 153.376 295.152 152.896 295.512 152.808C295.872 152.72 296.24 153.032 296.384 153.6Z" fill="#263238"/>
<path d="M291.616 155.272C291.76 155.792 291.616 156.296 291.248 156.384C290.88 156.472 290.52 156.128 290.376 155.584C290.232 155.04 290.376 154.56 290.744 154.464C291.112 154.368 291.48 154.736 291.616 155.272Z" fill="#263238"/>
<path d="M290.904 154.472H289.552C289.552 154.472 290.456 155.256 290.904 154.472Z" fill="#263238"/>
<path d="M297.393 151.2C297.432 151.177 297.465 151.144 297.489 151.104C297.526 151.045 297.539 150.974 297.526 150.906C297.513 150.837 297.473 150.776 297.417 150.736C297.008 150.455 296.538 150.278 296.046 150.219C295.554 150.161 295.055 150.223 294.593 150.4C294.53 150.431 294.481 150.485 294.456 150.55C294.431 150.615 294.431 150.687 294.457 150.752C294.486 150.814 294.538 150.862 294.602 150.887C294.666 150.913 294.737 150.913 294.801 150.888C295.185 150.746 295.598 150.699 296.005 150.75C296.411 150.802 296.8 150.951 297.137 151.184C297.175 151.207 297.218 151.22 297.263 151.223C297.307 151.226 297.352 151.218 297.393 151.2Z" fill="#263238"/>
<path d="M289.352 154.056C289.383 154.022 289.41 153.984 289.432 153.944C289.573 153.56 289.804 153.215 290.104 152.936C290.404 152.658 290.766 152.455 291.16 152.344C291.229 152.332 291.291 152.294 291.331 152.237C291.372 152.18 291.388 152.109 291.376 152.04C291.369 152.006 291.354 151.973 291.334 151.944C291.314 151.916 291.288 151.891 291.258 151.873C291.229 151.854 291.195 151.842 291.161 151.836C291.126 151.83 291.09 151.832 291.056 151.84C290.577 151.968 290.134 152.208 289.765 152.54C289.397 152.873 289.113 153.288 288.936 153.752C288.921 153.783 288.913 153.818 288.911 153.852C288.91 153.887 288.915 153.922 288.927 153.955C288.939 153.987 288.957 154.017 288.981 154.043C289.004 154.069 289.033 154.089 289.064 154.104C289.111 154.123 289.163 154.13 289.214 154.123C289.264 154.116 289.312 154.096 289.352 154.064V154.056Z" fill="#263238"/>
<path d="M295.672 152.8H294.32C294.32 152.8 295.2 153.544 295.672 152.8Z" fill="#263238"/>
<path d="M288.616 157.008C289.232 160.296 291.896 164.832 294.736 166.608C292.824 168.056 289.4 166.416 287.384 165.128C286.395 164.447 285.561 163.564 284.939 162.536C284.317 161.509 283.921 160.36 283.776 159.168C283.497 156.777 283.821 154.353 284.72 152.12C286.187 148.504 288.62 145.36 291.752 143.032C292.36 142.536 293.4 142.144 293.8 142.816C294.08 143.28 293.76 143.864 293.456 144.304C290.504 148.576 288.184 151.584 288.616 157.008Z" fill="#263238"/>
<path d="M303.465 163.016H303.417C303.366 163.003 303.323 162.97 303.296 162.925C303.269 162.881 303.26 162.827 303.273 162.776C305.409 154.144 296.153 147.576 293.265 145.736C293.221 145.708 293.189 145.664 293.177 145.613C293.165 145.562 293.174 145.509 293.201 145.464C293.214 145.441 293.231 145.422 293.252 145.406C293.273 145.39 293.297 145.379 293.323 145.373C293.348 145.367 293.375 145.367 293.4 145.371C293.426 145.376 293.451 145.386 293.473 145.4C296.425 147.248 305.865 153.976 303.665 162.872C303.652 162.915 303.626 162.952 303.589 162.978C303.553 163.005 303.509 163.018 303.465 163.016Z" fill="#263238"/>
<path d="M305.088 156.76L304.912 159.808L305.728 160.48L306.128 159.544L305.088 156.76Z" fill="#244BA5"/>
<path d="M318.568 165.92C317.93 165.757 317.26 165.765 316.626 165.942C315.992 166.118 315.414 166.459 314.952 166.928C313.933 168.05 313.29 169.462 313.112 170.968C312.816 173.272 313.4 175.608 314.024 177.856C314.789 180.073 315.215 182.392 315.288 184.736C317.736 183.4 321.296 180.736 324.72 180.384C324.248 174.936 323.616 171.304 322.56 169.504C322.014 168.432 321.28 167.468 320.392 166.656C319.84 166.291 319.22 166.041 318.568 165.92Z" fill="#244BA5"/>
<g opacity="0.1">
<path d="M318.568 165.92C317.93 165.757 317.26 165.765 316.626 165.942C315.992 166.118 315.414 166.459 314.952 166.928C313.933 168.05 313.29 169.462 313.112 170.968C312.816 173.272 313.4 175.608 314.024 177.856C314.789 180.073 315.215 182.392 315.288 184.736C317.736 183.4 321.296 180.736 324.72 180.384C324.248 174.936 323.616 171.304 322.56 169.504C322.014 168.432 321.28 167.468 320.392 166.656C319.84 166.291 319.22 166.041 318.568 165.92Z" fill="white"/>
</g>
<path d="M260.264 191.6C260.264 191.6 254.224 192.6 254.144 192.872C254.064 193.144 254.096 196.544 254.096 196.544L259.52 194.488L260.264 191.6Z" fill="#FFB573"/>
<path d="M254.096 196.544L248.992 191.736L251.272 191.072L255.056 193.128L254.096 196.544Z" fill="#FFB573"/>
<path d="M100.009 318.544L105.713 318.232L106.217 331.744L100.513 332.048L100.009 318.544Z" fill="#F7978D"/>
<path d="M107.616 330.52C109.392 331.616 111.96 332.576 116.64 333.048C117.68 333.152 118.016 335.528 115.608 335.792C113.2 336.056 109 336.432 107.256 336.592C104.416 336.896 103.36 337.152 101.12 337.432C100.851 337.459 100.582 337.378 100.372 337.207C100.162 337.036 100.028 336.789 100 336.52L99.7601 331.384C99.7557 331.33 99.7623 331.275 99.7793 331.223C99.7964 331.172 99.8236 331.124 99.8594 331.083C99.8952 331.042 99.9388 331.009 99.9877 330.985C100.037 330.961 100.09 330.947 100.144 330.944L106.592 330.24C106.955 330.218 107.315 330.316 107.616 330.52Z" fill="#263238"/>
<path opacity="0.2" d="M100.265 325.512L105.977 325.2L105.713 318.24L100.009 318.552L100.265 325.512Z" fill="black"/>
<path d="M110.4 331C110.478 330.896 110.528 330.773 110.543 330.644C110.559 330.515 110.54 330.383 110.488 330.264C110.462 330.181 110.415 330.106 110.352 330.046C110.289 329.986 110.212 329.943 110.128 329.92C109.4 329.72 107.896 331.008 107.728 331.16C107.717 331.181 107.711 331.204 107.711 331.228C107.711 331.252 107.717 331.275 107.728 331.296C107.738 331.322 107.755 331.344 107.776 331.362C107.796 331.38 107.821 331.393 107.848 331.4C108.361 331.456 108.879 331.456 109.392 331.4C109.764 331.388 110.121 331.247 110.4 331ZM108.16 331.16C108.768 330.704 109.68 330.08 110.072 330.192C110.111 330.204 110.147 330.226 110.177 330.255C110.206 330.285 110.228 330.321 110.24 330.36C110.285 330.433 110.309 330.518 110.309 330.604C110.309 330.69 110.285 330.775 110.24 330.848C110 331.16 109.248 331.272 108.192 331.176L108.16 331.16Z" fill="#244BA5"/>
<path d="M107.904 331.368C108.44 330.96 109.16 329.664 108.968 329.056C108.931 328.948 108.859 328.855 108.763 328.792C108.668 328.728 108.555 328.698 108.44 328.704C108.335 328.699 108.231 328.718 108.135 328.761C108.039 328.805 107.954 328.87 107.888 328.952C107.368 329.576 107.712 331.216 107.696 331.28C107.698 331.302 107.706 331.323 107.719 331.342C107.731 331.36 107.749 331.374 107.768 331.384H107.84L107.904 331.368ZM108.408 328.968C108.608 328.968 108.696 329.064 108.68 329.136C108.668 329.834 108.381 330.498 107.88 330.984C107.745 330.359 107.807 329.708 108.056 329.12C108.09 329.077 108.132 329.042 108.181 329.017C108.229 328.992 108.282 328.978 108.336 328.976L108.408 328.968Z" fill="#244BA5"/>
<path d="M54.9284 312.552L60.5844 313.744L56.4644 326.544L50.8164 325.344L54.9284 312.552Z" fill="#F7978D"/>
<path d="M58.0001 326.552C59.3201 328.152 62.0561 330.088 66.3601 331.992C67.3201 332.424 66.8962 334.776 64.5282 334.28C62.1602 333.784 57.4642 332.592 55.7282 332.232C52.9362 331.64 51.8561 331.544 49.6401 331.12C49.5069 331.094 49.3802 331.042 49.2675 330.967C49.1547 330.891 49.0582 330.794 48.9836 330.681C48.9091 330.567 48.8579 330.44 48.8333 330.307C48.8087 330.174 48.811 330.037 48.8401 329.904L50.2081 324.944C50.2364 324.84 50.3039 324.751 50.3964 324.696C50.4889 324.641 50.5992 324.624 50.7041 324.648L57.0561 325.992C57.4253 326.066 57.7583 326.263 58.0001 326.552Z" fill="#263238"/>
<path opacity="0.2" d="M52.8086 319.152L58.4566 320.344L60.5846 313.752L54.9286 312.56L52.8086 319.152Z" fill="black"/>
<path d="M90.8408 192.8C90.8408 192.8 96.8568 244.856 97.3128 264.32C97.7368 282.248 97.4408 321.92 97.4408 321.92L107.841 321.432C107.841 321.432 112.169 284.576 113.441 266.504C114.577 249.968 111.041 197.056 111.041 197.056L90.8408 192.8Z" fill="#244BA5"/>
<path opacity="0.2" d="M93.3125 213.336C94.2405 224.104 95.5045 237.96 96.6565 249.552C99.0565 242.848 100.496 225.968 97.6485 215.624C95.9285 209.328 94.4005 210.712 93.3125 213.336Z" fill="black"/>
<path d="M95.7363 319.84L109.152 318.816L108.536 323.224L97.2483 324.16L95.7363 319.84Z" fill="#263238"/>
<path d="M79.0648 194.808C79.0648 194.808 69.3528 242.72 66.0008 261.896C62.9048 279.56 50.8008 317.016 50.8008 317.016L61.1208 319.2C61.1208 319.2 78.2728 281.304 83.0248 263.808C87.3688 247.808 98.2248 198.856 98.2248 198.856L79.0648 194.808Z" fill="#244BA5"/>
<path d="M50.5205 313.504L64.4245 315.808L62.9765 319.6L50.3525 316.928L50.5205 313.504Z" fill="#263238"/>
<path d="M59.9999 327.352C60.1099 327.277 60.1971 327.173 60.2522 327.052C60.3072 326.93 60.3279 326.796 60.3119 326.664C60.3171 326.577 60.2991 326.491 60.2597 326.414C60.2203 326.336 60.161 326.271 60.0879 326.224C59.4639 325.808 57.6239 326.56 57.4159 326.648C57.3943 326.662 57.376 326.681 57.3622 326.703C57.3484 326.725 57.3395 326.75 57.3359 326.776C57.3375 326.801 57.3458 326.826 57.3598 326.847C57.3739 326.868 57.3932 326.885 57.4159 326.896C57.8844 327.12 58.3751 327.294 58.8799 327.416C59.2488 327.531 59.6466 327.508 59.9999 327.352ZM57.8639 326.768C58.5999 326.488 59.6399 326.208 59.9439 326.448C59.9787 326.472 60.0066 326.504 60.0248 326.542C60.0431 326.58 60.0511 326.622 60.0479 326.664C60.0604 326.75 60.049 326.838 60.0152 326.919C59.9814 326.999 59.9263 327.069 59.8559 327.12C59.5359 327.32 58.7839 327.192 57.8159 326.784L57.8639 326.768Z" fill="#244BA5"/>
<path d="M57.5119 326.904C58.1359 326.68 59.2399 325.688 59.2399 325.04C59.2399 324.924 59.2014 324.812 59.1304 324.721C59.0594 324.629 58.96 324.564 58.8479 324.536C58.7494 324.5 58.6436 324.487 58.5393 324.5C58.435 324.512 58.3351 324.549 58.2479 324.608C57.5599 325.04 57.3519 326.688 57.3359 326.76C57.3332 326.781 57.3362 326.803 57.3447 326.823C57.3531 326.842 57.3667 326.859 57.3839 326.872H57.4479L57.5119 326.904ZM58.7599 324.8C58.9519 324.872 58.9919 324.968 58.9759 325.048C58.9759 325.472 58.2239 326.248 57.6479 326.56C57.6991 325.907 57.9633 325.289 58.3999 324.8C58.4458 324.771 58.4972 324.751 58.5509 324.743C58.6046 324.735 58.6594 324.738 58.7119 324.752L58.7599 324.8Z" fill="#244BA5"/>
<path d="M60.1122 205.496C61.4562 204.152 61.6562 202.68 62.5122 201.12C63.0802 200.056 61.7682 200.472 63.0802 200.608C63.5669 200.715 64.0395 200.879 64.4882 201.096C65.6242 201.536 66.7202 202.08 67.8722 202.488C68.8562 202.84 70.6242 202.68 71.4642 203.168C72.8242 203.968 71.5202 207.488 71.2322 208.624C70.8962 210 73.0002 210.72 73.3362 209.328C73.8322 207.344 75.0962 203.808 73.5682 201.944C72.6162 200.784 71.1682 201.016 69.8402 200.76C67.3522 200.28 64.8082 198.008 62.2002 198.28C61.8108 198.295 61.4347 198.425 61.1198 198.654C60.8049 198.884 60.5655 199.202 60.4322 199.568C60.0162 200.48 60.2562 201.496 59.7122 202.456C59.4262 202.955 59.0766 203.415 58.6722 203.824C57.6642 204.832 59.1202 206.504 60.1362 205.496H60.1122Z" fill="#244BA5"/>
<g opacity="0.3">
<path d="M60.1122 205.496C61.4562 204.152 61.6562 202.68 62.5122 201.12C63.0802 200.056 61.7682 200.472 63.0802 200.608C63.5669 200.715 64.0395 200.879 64.4882 201.096C65.6242 201.536 66.7202 202.08 67.8722 202.488C68.8562 202.84 70.6242 202.68 71.4642 203.168C72.8242 203.968 71.5202 207.488 71.2322 208.624C70.8962 210 73.0002 210.72 73.3362 209.328C73.8322 207.344 75.0962 203.808 73.5682 201.944C72.6162 200.784 71.1682 201.016 69.8402 200.76C67.3522 200.28 64.8082 198.008 62.2002 198.28C61.8108 198.295 61.4347 198.425 61.1198 198.654C60.8049 198.884 60.5655 199.202 60.4322 199.568C60.0162 200.48 60.2562 201.496 59.7122 202.456C59.4262 202.955 59.0766 203.415 58.6722 203.824C57.6642 204.832 59.1202 206.504 60.1362 205.496H60.1122Z" fill="black"/>
</g>
<path d="M44.9886 199.838L84.9857 213.244C85.6375 213.462 86.1758 213.931 86.4822 214.546C86.7886 215.162 86.838 215.874 86.6195 216.525L79.4449 237.931C79.0679 239.055 78.2597 239.984 77.198 240.513C76.1363 241.042 74.908 241.127 73.7835 240.75L37.3742 228.546C36.2497 228.169 35.3209 227.361 34.7923 226.299C34.2636 225.238 34.1784 224.01 34.5553 222.885L41.73 201.479C41.9471 200.831 42.4113 200.296 43.0215 199.988C43.6318 199.681 44.3387 199.627 44.9886 199.838Z" fill="#244BA5"/>
<path opacity="0.3" d="M44.9886 199.838L84.9857 213.244C85.6375 213.462 86.1758 213.931 86.4822 214.546C86.7886 215.162 86.838 215.874 86.6195 216.525L79.4449 237.931C79.0679 239.055 78.2597 239.984 77.198 240.513C76.1363 241.042 74.908 241.127 73.7835 240.75L37.3742 228.546C36.2497 228.169 35.3209 227.361 34.7923 226.299C34.2636 225.238 34.1784 224.01 34.5553 222.885L41.73 201.479C41.9471 200.831 42.4113 200.296 43.0215 199.988C43.6318 199.681 44.3387 199.627 44.9886 199.838Z" fill="white"/>
<path d="M62.717 216.368L56.4219 234.354L57.177 234.618L63.4721 216.632L62.717 216.368Z" fill="#244BA5"/>
<g opacity="0.3">
<path d="M62.717 216.368L56.4219 234.354L57.177 234.618L63.4721 216.632L62.717 216.368Z" fill="black"/>
</g>
<path opacity="0.2" d="M84.2968 215.856L43.9288 202.328C43.3262 202.128 42.6687 202.174 42.1004 202.458C41.5321 202.741 41.0993 203.238 40.8968 203.84L40.6168 204.64C40.0486 206.338 40.1776 208.193 40.9756 209.796C41.7736 211.4 43.1752 212.621 44.8728 213.192L76.9848 224C77.8258 224.281 78.7139 224.394 79.5984 224.331C80.4829 224.269 81.3465 224.033 82.1399 223.638C82.9333 223.242 83.6409 222.693 84.2224 222.024C84.8039 221.354 85.2478 220.577 85.5288 219.736L85.8088 218.936C85.9154 218.635 85.9607 218.315 85.9421 217.996C85.9236 217.677 85.8414 217.365 85.7006 217.078C85.5598 216.791 85.363 216.535 85.122 216.325C84.8809 216.116 84.6004 215.956 84.2968 215.856Z" fill="black"/>
<path d="M85.1841 213.312L44.8001 199.784C44.5012 199.684 44.1855 199.643 43.8709 199.665C43.5563 199.686 43.2491 199.77 42.9668 199.91C42.6845 200.051 42.4326 200.245 42.2255 200.483C42.0185 200.721 41.8603 200.997 41.7601 201.296L41.4801 202.096C40.9119 203.794 41.0409 205.649 41.8389 207.252C42.6368 208.856 44.0385 210.077 45.7361 210.648L77.8721 221.44C79.5685 222.003 81.4187 221.87 83.0173 221.071C84.6159 220.271 85.8324 218.871 86.4001 217.176L86.6801 216.376C86.7845 216.077 86.8287 215.76 86.8099 215.443C86.7912 215.127 86.7099 214.817 86.5708 214.532C86.4317 214.247 86.2375 213.993 85.9995 213.783C85.7615 213.574 85.4844 213.414 85.1841 213.312Z" fill="#244BA5"/>
<path d="M85.1841 213.312L44.8001 199.784C44.5012 199.684 44.1855 199.643 43.8709 199.665C43.5563 199.686 43.2491 199.77 42.9668 199.91C42.6845 200.051 42.4326 200.245 42.2255 200.483C42.0185 200.721 41.8603 200.997 41.7601 201.296L41.4801 202.096C40.9119 203.794 41.0409 205.649 41.8389 207.252C42.6368 208.856 44.0385 210.077 45.7361 210.648L77.8721 221.44C79.5685 222.003 81.4187 221.87 83.0173 221.071C84.6159 220.271 85.8324 218.871 86.4001 217.176L86.6801 216.376C86.7845 216.077 86.8287 215.76 86.8099 215.443C86.7912 215.127 86.7099 214.817 86.5708 214.532C86.4317 214.247 86.2375 213.993 85.9995 213.783C85.7615 213.574 85.4844 213.414 85.1841 213.312Z" fill="#244BA5"/>
<path opacity="0.5" d="M85.1841 213.312L44.8001 199.784C44.5012 199.684 44.1855 199.643 43.8709 199.665C43.5563 199.686 43.2491 199.77 42.9668 199.91C42.6845 200.051 42.4326 200.245 42.2255 200.483C42.0185 200.721 41.8603 200.997 41.7601 201.296L41.4801 202.096C40.9119 203.794 41.0409 205.649 41.8389 207.252C42.6368 208.856 44.0385 210.077 45.7361 210.648L77.8721 221.44C79.5685 222.003 81.4187 221.87 83.0173 221.071C84.6159 220.271 85.8324 218.871 86.4001 217.176L86.6801 216.376C86.7845 216.077 86.8287 215.76 86.8099 215.443C86.7912 215.127 86.7099 214.817 86.5708 214.532C86.4317 214.247 86.2375 213.993 85.9995 213.783C85.7615 213.574 85.4844 213.414 85.1841 213.312Z" fill="white"/>
<path d="M52.9422 208.816L51.6071 208.369C50.7902 208.095 49.9061 208.536 49.6324 209.353L47.5995 215.421C47.3259 216.238 47.7663 217.122 48.5833 217.396L49.9183 217.843C50.7353 218.117 51.6194 217.676 51.8931 216.859L53.9259 210.791C54.1996 209.974 53.7592 209.09 52.9422 208.816Z" fill="#244BA5"/>
<path d="M74.6875 216.098L73.3523 215.651C72.5354 215.377 71.6513 215.818 71.3778 216.635L69.346 222.704C69.0725 223.521 69.513 224.405 70.33 224.678L71.6652 225.125C72.4822 225.399 73.3662 224.958 73.6397 224.141L75.6716 218.072C75.9451 217.255 75.5045 216.371 74.6875 216.098Z" fill="#244BA5"/>
<path d="M52.9422 208.816L51.6071 208.369C50.7902 208.095 49.9061 208.536 49.6324 209.353L47.5995 215.421C47.3259 216.238 47.7663 217.122 48.5833 217.396L49.9183 217.843C50.7353 218.117 51.6194 217.676 51.8931 216.859L53.9259 210.791C54.1996 209.974 53.7592 209.09 52.9422 208.816Z" fill="white"/>
<path d="M74.6875 216.098L73.3523 215.651C72.5354 215.377 71.6513 215.818 71.3778 216.635L69.346 222.704C69.0725 223.521 69.513 224.405 70.33 224.678L71.6652 225.125C72.4822 225.399 73.3662 224.958 73.6397 224.141L75.6716 218.072C75.9451 217.255 75.5045 216.371 74.6875 216.098Z" fill="white"/>
<path d="M118.288 153.84C118.648 154.552 119.088 155.4 119.52 156.176C119.952 156.952 120.4 157.776 120.856 158.576C121.776 160.136 122.712 161.672 123.704 163.128C124.664 164.541 125.7 165.9 126.808 167.2C127.706 168.294 128.767 169.243 129.952 170.016L130.112 170.112H130.184H130.384C130.829 170.104 131.268 170.003 131.672 169.816C133.044 169.16 134.313 168.309 135.44 167.288C136.78 166.151 138.042 164.924 139.216 163.616C139.824 162.944 140.432 162.28 141.016 161.584C141.6 160.888 142.2 160.152 142.72 159.512L142.816 159.384C143.286 158.724 143.995 158.273 144.792 158.127C145.589 157.982 146.411 158.153 147.084 158.604C147.757 159.055 148.228 159.751 148.396 160.543C148.564 161.336 148.416 162.163 147.984 162.848C146.003 166.469 143.585 169.833 140.784 172.864C139.201 174.561 137.372 176.011 135.36 177.168C134.071 177.888 132.656 178.358 131.192 178.552C130.305 178.661 129.407 178.635 128.528 178.472C128.068 178.392 127.616 178.271 127.176 178.112C126.957 178.049 126.745 177.963 126.544 177.856L126.064 177.64C123.909 176.519 121.955 175.048 120.28 173.288C118.786 171.791 117.404 170.187 116.144 168.488C114.912 166.832 113.744 165.152 112.704 163.424C112.144 162.568 111.648 161.728 111.152 160.824C110.656 159.92 110.184 159.096 109.68 158.096C109.394 157.531 109.222 156.916 109.173 156.285C109.125 155.653 109.201 155.019 109.398 154.417C109.595 153.815 109.908 153.258 110.321 152.778C110.733 152.297 111.236 151.902 111.8 151.616C112.365 151.33 112.98 151.157 113.612 151.109C114.243 151.061 114.878 151.137 115.479 151.334C116.081 151.531 116.638 151.844 117.119 152.256C117.599 152.669 117.994 153.171 118.28 153.736L118.288 153.84Z" fill="#263238"/>
<path d="M145.384 161.936L149.92 163.584L149.608 158.288C149.608 158.288 144.888 156.616 144.264 159.088V160.248C144.253 160.611 144.355 160.968 144.556 161.27C144.756 161.573 145.046 161.805 145.384 161.936Z" fill="#F7978D"/>
<path d="M154.584 162.328L155.544 157.8L149.608 158.28L149.92 163.584L154.584 162.328Z" fill="#F7978D"/>
<path opacity="0.3" d="M119.632 172.4C119.104 171.784 118.592 171.176 118.096 170.56C116.55 168.576 115.154 166.48 113.92 164.288C112.703 162.157 111.608 159.959 110.64 157.704C110.504 157.384 110.376 157.064 110.248 156.744C112.648 155.296 117.832 156.008 119.504 162.736C120.174 165.918 120.218 169.201 119.632 172.4Z" fill="black"/>
<path d="M109.24 201.192L79.0645 194.792C79.4165 192.048 81.8805 183.4 83.8005 172.128C85.0019 164.352 85.6941 156.506 85.8724 148.64C85.8724 148.64 85.8724 148.592 85.8724 148.568C85.899 148.083 86.0209 147.609 86.2313 147.171C86.4416 146.734 86.7362 146.343 87.0981 146.019C87.46 145.696 87.8822 145.447 88.3405 145.288C88.7987 145.128 89.284 145.06 89.7685 145.088H89.8325C91.7125 145.2 94.0565 145.416 96.3205 145.776C100.648 146.442 104.935 147.35 109.16 148.496C110.553 148.942 111.916 149.476 113.24 150.096C114.17 150.495 114.974 151.139 115.567 151.959C116.16 152.779 116.52 153.744 116.608 154.752C117.144 161.408 116.888 174.312 109.24 201.192Z" fill="white"/>
<path d="M105.432 152.88L104.568 154.608C104.519 154.745 104.429 154.865 104.31 154.95C104.192 155.036 104.05 155.084 103.904 155.088L102.4 154.96C102.184 154.96 102.008 154.768 101.928 154.488L101.32 152.416L103.56 151.024L105.432 152.88Z" fill="#244BA5"/>
<path d="M95.9998 145.272C93.5998 144.888 91.1438 144.672 89.1598 144.544H89.0958H88.9838C87.9565 144.514 86.9591 144.891 86.2095 145.595C85.46 146.298 85.0193 147.269 84.9838 148.296C84.7944 156.601 84.0676 164.885 82.8078 173.096C79.8718 194.128 76.9678 198.312 76.9678 198.312L90.3998 200.8C94.4718 181.696 97.5998 155.6 97.2798 145.448L95.9998 145.272Z" fill="#263238"/>
<path opacity="0.3" d="M83.2559 170.136C84.2319 163.344 84.6559 156.336 84.8559 151.216C84.9196 151.149 84.9892 151.087 85.0639 151.032C86.7519 149.592 90.9679 153.04 89.8159 159.496C88.7519 165.6 85.7679 169.312 83.2559 170.136Z" fill="black"/>
<path d="M111.512 205.6L103.384 203.424C108.488 167.624 109.68 158.112 108.528 148.08C110.541 148.609 112.525 149.245 114.472 149.984C115.489 150.477 116.362 151.226 117.004 152.157C117.646 153.088 118.036 154.169 118.136 155.296C118.824 160.88 114.568 175.2 111.512 205.6Z" fill="#263238"/>
<path d="M102.144 190.808C102.347 190.709 102.569 190.65 102.795 190.637C103.021 190.623 103.248 190.655 103.462 190.729C103.676 190.803 103.874 190.919 104.043 191.07C104.212 191.221 104.35 191.404 104.448 191.608C104.603 191.913 104.665 192.257 104.625 192.597C104.584 192.937 104.444 193.258 104.221 193.518C103.998 193.778 103.703 193.966 103.374 194.058C103.044 194.15 102.694 194.142 102.369 194.035C102.044 193.928 101.758 193.727 101.547 193.457C101.336 193.187 101.21 192.861 101.185 192.52C101.16 192.178 101.237 191.837 101.407 191.539C101.576 191.242 101.83 191.001 102.136 190.848L102.144 190.808Z" fill="#263238"/>
<path d="M101.128 193.28C101.007 193.045 100.934 192.789 100.913 192.526C100.891 192.263 100.922 191.998 101.003 191.747C101.084 191.496 101.214 191.263 101.385 191.062C101.556 190.861 101.765 190.696 102 190.576C102.235 190.454 102.492 190.381 102.755 190.36C103.019 190.34 103.285 190.372 103.536 190.456C103.851 190.557 104.136 190.733 104.366 190.971C104.596 191.208 104.765 191.499 104.855 191.816C104.946 192.134 104.958 192.47 104.888 192.793C104.818 193.116 104.669 193.417 104.455 193.669C104.241 193.921 103.968 194.116 103.66 194.237C103.352 194.359 103.02 194.402 102.691 194.363C102.363 194.325 102.049 194.206 101.777 194.017C101.506 193.828 101.286 193.575 101.136 193.28H101.128Z" fill="white"/>
<path d="M103.768 151.064C97.3282 150.064 95.8242 145.768 95.8242 145.768C99.2082 143.568 99.7282 135.8 99.6562 131.464L102.48 135.04L106.336 139.912C106.072 140.51 105.84 141.122 105.64 141.744C104.84 144.224 105.024 146.68 108.568 148.352C108.568 148.352 109.256 151.896 103.768 151.064Z" fill="#F7978D"/>
<path d="M94.6244 145.008L96.7364 144.704C98.4223 147.279 100.685 149.427 103.344 150.976C101.937 151.541 100.731 152.513 99.8804 153.768C93.6004 150.04 94.6244 145.008 94.6244 145.008Z" fill="white"/>
<path d="M108.616 148L106.872 147.2C106.872 147.2 105.328 150.848 103.336 150.984C106.352 152.952 106.536 154.688 106.536 154.688C111.592 154.176 108.616 148 108.616 148Z" fill="white"/>
<path opacity="0.2" d="M105.848 141.16L102.152 136.52C101.987 137.105 101.885 137.705 101.848 138.312C101.728 140.152 103.64 142.48 105.304 143.216L105.848 141.16Z" fill="black"/>
<path d="M109.904 132.688C109.904 132.688 110.104 135.568 113.104 134.464C113.232 131.4 114.24 131.632 115.28 129.832C115.955 128.839 116.349 127.682 116.419 126.483C116.49 125.285 116.234 124.089 115.68 123.024L113.768 122.056C106.312 119.744 109.904 132.688 109.904 132.688Z" fill="#263238"/>
<path opacity="0.6" d="M109.904 132.688C109.904 132.688 110.104 135.568 113.104 134.464C113.232 131.4 114.24 131.632 115.28 129.832C115.955 128.839 116.349 127.682 116.419 126.483C116.49 125.285 116.234 124.089 115.68 123.024L113.768 122.056C106.312 119.744 109.904 132.688 109.904 132.688Z" fill="white"/>
<path d="M102.112 121.04C103.447 119.545 105.321 118.64 107.322 118.526C109.323 118.412 111.288 119.098 112.784 120.432C117.432 124.376 115.8 132.776 113.184 137.328C112.525 138.518 111.554 139.505 110.375 140.184C109.196 140.862 107.854 141.206 106.494 141.178C105.134 141.15 103.808 140.751 102.658 140.025C101.508 139.299 100.578 138.272 99.9681 137.056C98.0401 133.328 99.0641 130.12 100.352 124.52C100.625 123.226 101.232 122.027 102.112 121.04Z" fill="#F7978D"/>
<path d="M99.4398 129.6C99.4398 129.6 100.192 132.088 102.912 130.76C102.44 128.072 103.464 128.144 104.136 126.44C104.599 125.457 104.758 124.358 104.595 123.284C104.431 122.21 103.951 121.208 103.216 120.408L101.16 119.808C91.3838 118.888 99.4398 129.6 99.4398 129.6Z" fill="#263238"/>
<path opacity="0.6" d="M99.4398 129.6C99.4398 129.6 100.192 132.088 102.912 130.76C102.44 128.072 103.464 128.144 104.136 126.44C104.599 125.457 104.758 124.358 104.595 123.284C104.431 122.21 103.951 121.208 103.216 120.408L101.16 119.808C91.3838 118.888 99.4398 129.6 99.4398 129.6Z" fill="white"/>
<path d="M109.144 114.248C108.64 114.064 108.096 114.017 107.568 114.111C107.04 114.205 106.546 114.437 106.136 114.784C105.6 115.248 105.08 115.96 104.384 115.824C104.044 115.701 103.733 115.508 103.472 115.256C102.352 114.456 100.72 114.8 99.6324 115.648C98.6119 116.578 97.7665 117.683 97.1364 118.912C96.5064 120.15 95.5454 121.188 94.3604 121.912C95.4704 122.442 96.6798 122.732 97.9096 122.762C99.1393 122.792 100.362 122.563 101.496 122.088C100.858 122.876 99.9828 123.437 99.0004 123.688C101.259 124.334 103.675 124.138 105.8 123.136C106.992 122.568 108.096 121.744 109.4 121.536C110.704 121.328 112.304 122.016 112.424 123.328C112.496 123.167 112.6 123.023 112.73 122.903C112.86 122.784 113.012 122.693 113.179 122.635C113.345 122.577 113.522 122.554 113.698 122.568C113.873 122.581 114.044 122.63 114.2 122.712C114.817 123.091 115.303 123.649 115.592 124.312C115.879 124.97 116.335 125.542 116.912 125.968C117.208 126.168 117.57 126.244 117.921 126.178C118.272 126.112 118.582 125.91 118.784 125.616C118.308 125.577 117.861 125.37 117.524 125.031C117.186 124.693 116.981 124.245 116.944 123.768C117.647 124.161 118.465 124.294 119.256 124.144C118.216 124.08 116.176 120.36 115.864 119.344C115.608 118.323 115.027 117.414 114.208 116.752C113.232 116.08 112.248 117.248 111.328 116.752C110.408 116.256 110.184 114.64 109.144 114.248Z" fill="#263238"/>
<path d="M107.848 134.456C107.101 133.832 106.632 132.937 106.544 131.968L108.144 132.608C108.824 132.872 110.776 133.696 110.344 134.768C109.912 135.84 108.368 134.88 107.848 134.456Z" fill="#263238"/>
<path d="M112.44 136.216C112.923 136.205 113.4 136.1 113.842 135.905C114.284 135.71 114.683 135.43 115.016 135.08L113.344 134.568C112.648 134.352 110.608 133.768 110.272 134.896C109.936 136.024 111.76 136.224 112.44 136.216Z" fill="#263238"/>
<path d="M110.224 134.4C110.549 134.605 110.915 134.738 111.296 134.787C111.677 134.837 112.065 134.803 112.432 134.688C111.899 133.233 111.565 131.713 111.44 130.168L110.224 134.4Z" fill="#FF5652"/>
<path d="M99.7605 125.744C101.12 126.2 101.656 128.48 101.592 129.904C101.52 131.504 100.472 132.488 99.2965 131.504C98.3907 130.661 97.8054 129.53 97.6405 128.304C97.4325 126.704 98.4005 125.28 99.7605 125.744Z" fill="#F7978D"/>
<path d="M108.8 128.272C109.088 128.376 109.2 128.856 109.08 129.264C108.96 129.672 108.616 129.952 108.328 129.856C108.04 129.76 107.944 129.336 108.04 128.88C108.136 128.424 108.504 128.176 108.8 128.272Z" fill="#263238"/>
<path d="M113.848 129.664C114.144 129.76 114.264 130.192 114.136 130.64C114.008 131.088 113.664 131.384 113.376 131.28C113.088 131.176 112.96 130.744 113.088 130.296C113.216 129.848 113.6 129.6 113.848 129.664Z" fill="#263238"/>
<path d="M109.72 136.872C109.756 136.875 109.791 136.866 109.82 136.845C109.85 136.825 109.871 136.794 109.88 136.76C109.885 136.724 109.876 136.688 109.855 136.658C109.835 136.628 109.803 136.608 109.768 136.6C109.186 136.52 108.63 136.308 108.143 135.979C107.656 135.65 107.251 135.214 106.96 134.704C106.943 134.672 106.915 134.648 106.88 134.636C106.846 134.624 106.809 134.626 106.776 134.64C106.744 134.657 106.72 134.685 106.708 134.72C106.696 134.754 106.698 134.791 106.712 134.824C106.973 135.298 107.327 135.713 107.754 136.046C108.18 136.379 108.669 136.622 109.192 136.76C109.36 136.8 109.544 136.8 109.72 136.872Z" fill="#263238"/>
<path d="M113.672 127.736C113.681 127.78 113.702 127.822 113.731 127.857C113.76 127.892 113.798 127.919 113.84 127.936C114.175 128.038 114.482 128.215 114.739 128.453C114.995 128.691 115.194 128.985 115.32 129.312C115.327 129.346 115.341 129.378 115.362 129.407C115.382 129.435 115.408 129.459 115.438 129.477C115.468 129.495 115.502 129.507 115.536 129.511C115.571 129.516 115.606 129.514 115.64 129.504C115.707 129.482 115.764 129.435 115.798 129.372C115.832 129.31 115.841 129.237 115.824 129.168C115.677 128.754 115.435 128.381 115.119 128.076C114.802 127.772 114.419 127.546 114 127.416C113.931 127.396 113.857 127.402 113.792 127.435C113.728 127.468 113.679 127.524 113.656 127.592C113.645 127.64 113.651 127.691 113.672 127.736Z" fill="#263238"/>
<path d="M107.84 126.312C107.876 126.339 107.918 126.357 107.963 126.366C108.007 126.374 108.053 126.372 108.096 126.36C108.424 126.237 108.776 126.19 109.125 126.221C109.474 126.253 109.812 126.364 110.112 126.544C110.167 126.586 110.237 126.605 110.306 126.596C110.375 126.587 110.437 126.551 110.48 126.496C110.522 126.438 110.539 126.367 110.529 126.297C110.518 126.226 110.481 126.163 110.424 126.12C110.055 125.883 109.635 125.736 109.199 125.692C108.762 125.647 108.322 125.706 107.912 125.864C107.878 125.875 107.846 125.892 107.819 125.916C107.792 125.939 107.77 125.968 107.754 126C107.739 126.032 107.73 126.067 107.728 126.103C107.726 126.139 107.732 126.174 107.744 126.208C107.768 126.249 107.801 126.285 107.84 126.312Z" fill="#263238"/>
<path d="M64.6 195.92L63.56 195.808C61.112 196.984 63.768 201.512 63.768 201.512L70.968 200.632L68.88 198.232C67.7956 196.95 66.267 196.124 64.6 195.92Z" fill="#F7978D"/>
<path d="M71.1998 203.736L70.9598 200.624L63.7598 201.504L64.1598 205.192C64.156 205.245 64.156 205.299 64.1598 205.352C64.1943 205.493 64.2565 205.625 64.3425 205.741C64.4285 205.858 64.5368 205.956 64.661 206.031C64.7852 206.105 64.9229 206.154 65.0662 206.175C65.2095 206.196 65.3555 206.188 65.4958 206.152L70.3998 204.864C70.6424 204.797 70.8544 204.648 71.0001 204.442C71.1458 204.237 71.2163 203.987 71.1998 203.736Z" fill="#F7978D"/>
<path d="M106.544 182.872C106.544 182.872 104.04 188.896 102.936 188.064C101.832 187.232 99.2883 182.624 99.2803 182.528C99.2723 182.432 102.4 154.96 102.4 154.96L103.896 155.088C103.288 158.168 106.544 182.872 106.544 182.872Z" fill="#244BA5"/>
<path d="M65.312 168C62.32 172.256 61.6 192.336 62.4 197.496C63.0327 196.787 63.901 196.332 64.8439 196.214C65.7868 196.096 66.7404 196.324 67.528 196.856C67.6 193.32 70.464 180.688 71.696 175.416C72.0494 173.933 72.9203 172.626 74.152 171.728C79.432 167.904 88.9919 160.336 90.0479 157.328C91.7519 152.528 90.288 142.688 86.0479 145.712C82.0319 148.6 67.688 164.568 65.312 168Z" fill="#263238"/>
<path d="M304.68 66.76C304.108 66.6262 303.549 66.4442 303.008 66.216C302 65.824 300.712 65.16 299.36 64.512C298.239 63.9558 297.033 63.5934 295.792 63.44C294.84 63.336 294.192 63.44 294.104 63.192C294.016 62.944 294.576 62.48 295.704 62.264C297.194 62.0619 298.71 62.3216 300.048 63.008C301.301 63.6618 302.443 64.5096 303.432 65.52C304.216 66.264 304.68 66.76 304.68 66.76Z" fill="#244BA5"/>
<path d="M310.552 62.032L309.344 62.504C308.624 62.8 307.744 63.216 306.704 63.656C304.68 64.552 302.952 65.48 302.704 65.072C302.576 64.888 302.84 64.432 303.424 63.872C304.199 63.138 305.098 62.5475 306.08 62.128C307.086 61.692 308.192 61.5372 309.28 61.68C309.609 61.7236 309.934 61.8013 310.248 61.912L310.552 62.032Z" fill="#244BA5"/>
<path d="M293.784 70.288L293.456 70.088C293.248 69.952 292.936 69.776 292.56 69.576C291.611 69.0643 290.621 68.6335 289.6 68.288C287.248 67.44 285.144 67.632 285.08 67.272C285.08 67.112 285.56 66.84 286.472 66.712C287.665 66.5731 288.874 66.7071 290.008 67.104C291.143 67.5033 292.156 68.1863 292.952 69.088C293.194 69.354 293.408 69.6435 293.592 69.952L293.784 70.288Z" fill="#244BA5"/>
<path d="M296.096 65.424L295.248 65.912L293.368 66.96C291.952 67.76 290.856 68.648 290.584 68.408C290.464 68.288 290.584 67.912 290.944 67.424C291.432 66.768 292.054 66.2228 292.768 65.824C293.487 65.4424 294.291 65.2497 295.104 65.264C295.44 65.2754 295.773 65.3292 296.096 65.424Z" fill="#244BA5"/>
<path d="M291.832 62.656C291.832 62.656 291.032 62.376 289.816 61.856C288.6 61.336 286.96 60.616 285.16 60.024C283.644 59.5128 282.046 59.2903 280.448 59.368C279.216 59.44 278.432 59.68 278.32 59.456C278.208 59.232 278.856 58.656 280.232 58.216C282.03 57.7508 283.926 57.8287 285.68 58.44C287.368 59.0361 288.923 59.9575 290.256 61.152C290.809 61.6231 291.336 62.1252 291.832 62.656Z" fill="#244BA5"/>
<path d="M297.24 55.784L296.792 55.912C296.496 55.984 296.088 56.112 295.6 56.264C294.373 56.6696 293.171 57.145 292 57.688C289.264 58.912 287.504 60.728 287.128 60.44C286.952 60.304 287.176 59.64 287.872 58.776C288.807 57.6633 289.979 56.7747 291.304 56.176C292.627 55.5787 294.08 55.3255 295.528 55.44C295.96 55.4706 296.389 55.5429 296.808 55.656L297.24 55.784Z" fill="#244BA5"/>
<path d="M111.944 86.968C111.373 86.8297 110.814 86.6478 110.272 86.424C109.264 86.032 107.968 85.368 106.624 84.712C105.499 84.1592 104.291 83.797 103.048 83.64C102.096 83.536 101.448 83.64 101.36 83.392C101.272 83.144 101.832 82.68 102.96 82.472C104.45 82.2652 105.967 82.5251 107.304 83.216C108.559 83.8625 109.702 84.7081 110.688 85.72C111.48 86.464 111.944 86.968 111.944 86.968Z" fill="#244BA5"/>
<path d="M117.816 82.24L116.6 82.712C115.88 83 115 83.416 113.96 83.864C111.936 84.752 110.216 85.68 109.96 85.28C109.824 85.088 110.096 84.64 110.672 84.072C111.449 83.3399 112.348 82.7496 113.328 82.328C114.336 81.8977 115.441 81.7431 116.528 81.88C116.855 81.9261 117.177 82.0038 117.488 82.112C117.6 82.1487 117.709 82.1914 117.816 82.24Z" fill="#244BA5"/>
<path d="M101.048 90.488L100.712 90.288C100.504 90.152 100.2 89.976 99.8239 89.776C98.8737 89.2673 97.8838 88.8366 96.8639 88.488C94.5119 87.688 92.3999 87.832 92.3359 87.472C92.3359 87.312 92.8239 87.04 93.7279 86.912C94.9243 86.7724 96.1368 86.9093 97.2719 87.312C98.4063 87.7077 99.42 88.3881 100.216 89.288C100.455 89.5538 100.667 89.8433 100.848 90.152L101.048 90.488Z" fill="#244BA5"/>
<path d="M103.352 85.6L102.512 86.088L100.632 87.2C99.2082 88 98.1202 88.888 97.8482 88.64C97.7202 88.528 97.8482 88.152 98.2082 87.656C98.6993 87.0153 99.3211 86.4862 100.032 86.104C100.747 85.7189 101.548 85.5234 102.36 85.536C102.692 85.516 103.025 85.5375 103.352 85.6Z" fill="#244BA5"/>
</svg>
