<svg width="400" height="400" viewBox="0 0 400 400" fill="none" xmlns="http://www.w3.org/2000/svg">
<path d="M400 305.92H0V306.12H400V305.92Z" fill="#EBEBEB"/>
<path d="M359.92 318.792H333.424V318.992H359.92V318.792Z" fill="#EBEBEB"/>
<path d="M264.976 320.968H258.024V321.168H264.976V320.968Z" fill="#EBEBEB"/>
<path d="M332.624 311.368H317.272V311.568H332.624V311.368Z" fill="#EBEBEB"/>
<path d="M76.52 312.712H41.968V312.912H76.52V312.712Z" fill="#EBEBEB"/>
<path d="M88.712 312.712H83.6479V312.912H88.712V312.712Z" fill="#EBEBEB"/>
<path d="M180.12 316.088H105.176V316.288H180.12V316.088Z" fill="#EBEBEB"/>
<path d="M189.6 270.24H35.1281C33.918 270.238 32.7582 269.756 31.9032 268.899C31.0483 268.043 30.5681 266.882 30.5681 265.672V48.528C30.5786 47.3248 31.0635 46.1744 31.9173 45.3266C32.7711 44.4788 33.9249 44.0021 35.1281 44H189.6C190.812 44 191.974 44.4813 192.83 45.3379C193.687 46.1946 194.168 47.3565 194.168 48.568V265.672C194.168 266.884 193.687 268.045 192.83 268.902C191.974 269.759 190.812 270.24 189.6 270.24ZM35.1281 44.16C33.971 44.1621 32.8621 44.6233 32.0446 45.4422C31.2272 46.2611 30.7681 47.3709 30.7681 48.528V265.672C30.7681 266.829 31.2272 267.939 32.0446 268.758C32.8621 269.577 33.971 270.038 35.1281 270.04H189.6C190.758 270.038 191.868 269.577 192.686 268.758C193.505 267.94 193.966 266.83 193.968 265.672V48.528C193.966 47.3702 193.505 46.2604 192.686 45.4417C191.868 44.623 190.758 44.1621 189.6 44.16H35.1281Z" fill="#EBEBEB"/>
<path d="M362.648 270.24H208.168C206.957 270.238 205.797 269.756 204.94 268.9C204.084 268.044 203.602 266.883 203.6 265.672V48.528C203.613 47.3241 204.099 46.1737 204.954 45.3261C205.809 44.4785 206.964 44.002 208.168 44H362.648C363.85 44.0042 365.002 44.4818 365.854 45.3294C366.706 46.177 367.19 47.3262 367.2 48.528V265.672C367.2 266.881 366.721 268.04 365.868 268.896C365.015 269.753 363.857 270.236 362.648 270.24ZM208.168 44.16C207.01 44.1621 205.9 44.623 205.082 45.4417C204.263 46.2604 203.802 47.3702 203.8 48.528V265.672C203.802 266.83 204.263 267.94 205.082 268.758C205.9 269.577 207.01 270.038 208.168 270.04H362.648C363.806 270.038 364.916 269.577 365.734 268.758C366.553 267.94 367.014 266.83 367.016 265.672V48.528C367.014 47.3702 366.553 46.2604 365.734 45.4417C364.916 44.623 363.806 44.1621 362.648 44.16H208.168Z" fill="#EBEBEB"/>
<path d="M330.616 69.176H291.632V117.168H330.616V69.176Z" fill="#F5F5F5"/>
<path d="M328.328 71.464H293.928V114.864H328.328V71.464Z" fill="#EBEBEB"/>
<path d="M324.152 103.912V114.864H298.096V103.912C298.09 101.071 299.087 98.3188 300.91 96.14C302.733 93.9611 305.266 92.4952 308.064 92C306.241 91.2868 304.724 89.9593 303.776 88.2467C302.827 86.5341 302.507 84.544 302.87 82.6202C303.232 80.6964 304.256 78.9598 305.763 77.7104C307.27 76.461 309.166 75.7772 311.124 75.7772C313.082 75.7772 314.978 76.461 316.485 77.7104C317.992 78.9598 319.016 80.6964 319.378 82.6202C319.741 84.544 319.421 86.5341 318.472 88.2467C317.524 89.9593 316.007 91.2868 314.184 92C316.982 92.4952 319.515 93.9611 321.338 96.14C323.161 98.3188 324.158 101.071 324.152 103.912Z" fill="#E0E0E0"/>
<path d="M101.208 80.352H68.752V102.144H101.208V80.352Z" fill="#E0E0E0"/>
<path d="M84.984 73.448L58.936 80.352L84.984 87.256L111.032 80.352L84.984 73.448Z" fill="#EBEBEB"/>
<path d="M98.4001 97.048V83.848C98.3993 83.7223 98.3574 83.6004 98.2809 83.5007C98.2043 83.401 98.0973 83.3292 97.9761 83.296L85.1121 79.8C84.9657 79.7606 84.8097 79.7805 84.6779 79.8554C84.5462 79.9303 84.4492 80.0541 84.4081 80.2C84.3875 80.2725 84.3815 80.3484 84.3906 80.4232C84.3996 80.498 84.4234 80.5703 84.4606 80.6358C84.4978 80.7013 84.5477 80.7588 84.6074 80.8048C84.6671 80.8509 84.7353 80.8846 84.8081 80.904L97.2561 84.288V97.032C96.9227 97.165 96.646 97.41 96.4737 97.7249C96.3013 98.0398 96.2441 98.4048 96.3118 98.7574C96.3795 99.1099 96.5679 99.4278 96.8447 99.6564C97.1214 99.8851 97.4691 100.01 97.8281 100.01C98.187 100.01 98.5348 99.8851 98.8115 99.6564C99.0882 99.4278 99.2767 99.1099 99.3444 98.7574C99.4121 98.4048 99.3548 98.0398 99.1825 97.7249C99.0102 97.41 98.7335 97.165 98.4001 97.032V97.048Z" fill="#F5F5F5"/>
<path d="M168.472 51.432L163.104 82.776H191.4L168.472 51.432Z" fill="#E0E0E0"/>
<path d="M211.728 82.776H173.16L168.472 51.432H207.04L211.728 82.776Z" fill="#F5F5F5"/>
<path d="M207.896 57.176H169.328L168.472 51.432H207.04L207.896 57.176Z" fill="#EBEBEB"/>
<path d="M181.032 63.088H177.704L177.208 59.728H180.528L181.032 63.088Z" fill="#E0E0E0"/>
<path d="M186.096 63.088H182.768L182.272 59.728H185.592L186.096 63.088Z" fill="#E0E0E0"/>
<path d="M191.16 63.088H187.832L187.336 59.728H190.656L191.16 63.088Z" fill="#E0E0E0"/>
<path d="M196.224 63.088H192.896L192.4 59.728H195.72L196.224 63.088Z" fill="#E0E0E0"/>
<path d="M201.288 63.088H197.96L197.464 59.728H200.784L201.288 63.088Z" fill="#E0E0E0"/>
<path d="M206.352 63.088H203.024L202.528 59.728H205.848L206.352 63.088Z" fill="#E0E0E0"/>
<path d="M176.68 67.88H173.36L172.856 64.528H176.184L176.68 67.88Z" fill="#E0E0E0"/>
<path d="M181.752 67.88H178.424L177.92 64.528H181.248L181.752 67.88Z" fill="#E0E0E0"/>
<path d="M186.808 67.88H183.488L182.984 64.528H186.312L186.808 67.88Z" fill="#E0E0E0"/>
<path d="M191.872 67.88H188.552L188.048 64.528H191.376L191.872 67.88Z" fill="#E0E0E0"/>
<path d="M196.936 67.88H193.616L193.112 64.528H196.44L196.936 67.88Z" fill="#E0E0E0"/>
<path d="M202 67.88H198.68L198.176 64.528H201.504L202 67.88Z" fill="#E0E0E0"/>
<path d="M207.064 67.88H203.744L203.24 64.528H206.568L207.064 67.88Z" fill="#E0E0E0"/>
<path d="M177.4 72.68H174.08L173.576 69.32H176.896L177.4 72.68Z" fill="#E0E0E0"/>
<path d="M182.464 72.68H179.144L178.64 69.32H181.96L182.464 72.68Z" fill="#E0E0E0"/>
<path d="M187.528 72.68H184.208L183.704 69.32H187.024L187.528 72.68Z" fill="#E0E0E0"/>
<path d="M192.592 72.68H189.272L188.768 69.32H192.088L192.592 72.68Z" fill="#E0E0E0"/>
<path d="M197.656 72.68H194.336L193.832 69.32H197.152L197.656 72.68Z" fill="#E0E0E0"/>
<path d="M202.72 72.68H199.4L198.896 69.32H202.216L202.72 72.68Z" fill="#E0E0E0"/>
<path d="M207.784 72.68H204.464L203.96 69.32H207.28L207.784 72.68Z" fill="#E0E0E0"/>
<path d="M178.12 77.472H174.8L174.296 74.12H177.616L178.12 77.472Z" fill="#E0E0E0"/>
<path d="M183.184 77.472H179.856L179.36 74.12H182.68L183.184 77.472Z" fill="#E0E0E0"/>
<path d="M188.248 77.472H184.92L184.424 74.12H187.744L188.248 77.472Z" fill="#E0E0E0"/>
<path d="M193.312 77.472H189.984L189.488 74.12H192.808L193.312 77.472Z" fill="#E0E0E0"/>
<path d="M198.376 77.472H195.048L194.552 74.12H197.872L198.376 77.472Z" fill="#E0E0E0"/>
<path d="M203.44 77.472H200.112L199.608 74.12H202.936L203.44 77.472Z" fill="#E0E0E0"/>
<path d="M358.752 182.192H329.576C328.608 182.192 327.824 182.976 327.824 183.944V225.632C327.824 226.6 328.608 227.384 329.576 227.384H358.752C359.72 227.384 360.504 226.6 360.504 225.632V183.944C360.504 182.976 359.72 182.192 358.752 182.192Z" fill="#E0E0E0"/>
<path d="M354.12 177.744H324.944C323.976 177.744 323.192 178.528 323.192 179.496V221.184C323.192 222.152 323.976 222.936 324.944 222.936H354.12C355.087 222.936 355.872 222.152 355.872 221.184V179.496C355.872 178.528 355.087 177.744 354.12 177.744Z" fill="#F5F5F5"/>
<path d="M350.176 184.856H328.888C328.748 184.857 328.609 184.83 328.48 184.777C328.35 184.724 328.232 184.646 328.133 184.547C328.034 184.448 327.956 184.33 327.903 184.2C327.85 184.071 327.823 183.932 327.824 183.792C327.824 183.51 327.936 183.239 328.136 183.04C328.335 182.84 328.606 182.728 328.888 182.728H350.176C350.458 182.728 350.729 182.84 350.928 183.04C351.128 183.239 351.24 183.51 351.24 183.792C351.241 183.932 351.214 184.071 351.161 184.2C351.108 184.33 351.03 184.448 350.931 184.547C350.832 184.646 350.714 184.724 350.584 184.777C350.455 184.83 350.316 184.857 350.176 184.856Z" fill="#EBEBEB"/>
<path d="M350.176 190.4H328.888C328.606 190.4 328.335 190.288 328.136 190.088C327.936 189.889 327.824 189.618 327.824 189.336C327.823 189.196 327.85 189.056 327.903 188.926C327.956 188.796 328.034 188.678 328.133 188.578C328.232 188.479 328.349 188.4 328.479 188.346C328.609 188.292 328.748 188.264 328.888 188.264H350.176C350.316 188.264 350.455 188.292 350.585 188.346C350.715 188.4 350.832 188.479 350.931 188.578C351.03 188.678 351.108 188.796 351.161 188.926C351.214 189.056 351.241 189.196 351.24 189.336C351.24 189.618 351.128 189.889 350.928 190.088C350.729 190.288 350.458 190.4 350.176 190.4Z" fill="#EBEBEB"/>
<path d="M350.176 195.888H328.888C328.748 195.889 328.609 195.862 328.48 195.809C328.35 195.756 328.232 195.678 328.133 195.579C328.034 195.48 327.956 195.362 327.903 195.232C327.85 195.103 327.823 194.964 327.824 194.824C327.824 194.542 327.936 194.271 328.136 194.072C328.335 193.872 328.606 193.76 328.888 193.76H350.176C350.458 193.76 350.729 193.872 350.928 194.072C351.128 194.271 351.24 194.542 351.24 194.824C351.241 194.964 351.214 195.103 351.161 195.232C351.108 195.362 351.03 195.48 350.931 195.579C350.832 195.678 350.714 195.756 350.584 195.809C350.455 195.862 350.316 195.889 350.176 195.888Z" fill="#EBEBEB"/>
<path d="M350.176 201.408H328.888C328.748 201.408 328.61 201.38 328.481 201.327C328.352 201.274 328.234 201.195 328.136 201.096C328.037 200.998 327.958 200.88 327.905 200.751C327.852 200.622 327.824 200.484 327.824 200.344C327.823 200.204 327.85 200.064 327.903 199.934C327.956 199.804 328.034 199.686 328.133 199.586C328.232 199.487 328.349 199.408 328.479 199.354C328.609 199.3 328.748 199.272 328.888 199.272H350.176C350.316 199.272 350.455 199.3 350.585 199.354C350.715 199.408 350.832 199.487 350.931 199.586C351.03 199.686 351.108 199.804 351.161 199.934C351.214 200.064 351.241 200.204 351.24 200.344C351.24 200.484 351.212 200.622 351.159 200.751C351.106 200.88 351.027 200.998 350.928 201.096C350.83 201.195 350.712 201.274 350.583 201.327C350.454 201.38 350.316 201.408 350.176 201.408Z" fill="#EBEBEB"/>
<path d="M350.176 206.92H328.888C328.748 206.921 328.609 206.894 328.48 206.841C328.35 206.788 328.232 206.71 328.133 206.611C328.034 206.512 327.956 206.394 327.903 206.264C327.85 206.135 327.823 205.996 327.824 205.856C327.823 205.716 327.85 205.577 327.903 205.448C327.956 205.318 328.034 205.2 328.133 205.101C328.232 205.002 328.35 204.924 328.48 204.871C328.609 204.818 328.748 204.791 328.888 204.792H350.176C350.316 204.791 350.455 204.818 350.584 204.871C350.714 204.924 350.832 205.002 350.931 205.101C351.03 205.2 351.108 205.318 351.161 205.448C351.214 205.577 351.241 205.716 351.24 205.856C351.241 205.996 351.214 206.135 351.161 206.264C351.108 206.394 351.03 206.512 350.931 206.611C350.832 206.71 350.714 206.788 350.584 206.841C350.455 206.894 350.316 206.921 350.176 206.92Z" fill="#EBEBEB"/>
<path d="M350.176 212.44H328.888C328.748 212.44 328.609 212.412 328.479 212.358C328.349 212.304 328.232 212.225 328.133 212.126C328.034 212.026 327.956 211.908 327.903 211.778C327.85 211.648 327.823 211.508 327.824 211.368C327.824 211.086 327.936 210.815 328.136 210.616C328.335 210.416 328.606 210.304 328.888 210.304H350.176C350.458 210.304 350.729 210.416 350.928 210.616C351.128 210.815 351.24 211.086 351.24 211.368C351.241 211.508 351.214 211.648 351.161 211.778C351.108 211.908 351.03 212.026 350.931 212.126C350.832 212.225 350.715 212.304 350.585 212.358C350.455 212.412 350.316 212.44 350.176 212.44Z" fill="#EBEBEB"/>
<path d="M345.376 217.952H328.888C328.606 217.952 328.335 217.84 328.136 217.64C327.936 217.441 327.824 217.17 327.824 216.888C327.823 216.748 327.85 216.609 327.903 216.48C327.956 216.35 328.034 216.232 328.133 216.133C328.232 216.034 328.35 215.956 328.48 215.903C328.609 215.85 328.748 215.823 328.888 215.824H345.376C345.516 215.823 345.655 215.85 345.784 215.903C345.914 215.956 346.032 216.034 346.131 216.133C346.23 216.232 346.308 216.35 346.361 216.48C346.414 216.609 346.441 216.748 346.44 216.888C346.44 217.17 346.328 217.441 346.128 217.64C345.929 217.84 345.658 217.952 345.376 217.952Z" fill="#EBEBEB"/>
<path d="M310.76 119.264V121.264" stroke="#EBEBEB" stroke-width="2" stroke-linecap="round" stroke-linejoin="round"/>
<path d="M310.76 125.16V154.384" stroke="#EBEBEB" stroke-width="2" stroke-linecap="round" stroke-linejoin="round" stroke-dasharray="4.87 4.87"/>
<path d="M310.76 156.336V158.336H308.76" stroke="#EBEBEB" stroke-width="2" stroke-linecap="round" stroke-linejoin="round"/>
<path d="M304.776 158.336H235.08" stroke="#EBEBEB" stroke-width="2" stroke-linecap="round" stroke-linejoin="round" stroke-dasharray="4.98 4.98"/>
<path d="M233.088 158.336H231.088V160.336" stroke="#EBEBEB" stroke-width="2" stroke-linecap="round" stroke-linejoin="round"/>
<path d="M231.088 164.584V170.96" stroke="#EBEBEB" stroke-width="2" stroke-linecap="round" stroke-linejoin="round" stroke-dasharray="5.31 5.31"/>
<path d="M231.088 173.088V175.088H229.088" stroke="#EBEBEB" stroke-width="2" stroke-linecap="round" stroke-linejoin="round"/>
<path d="M224.664 175.088H218.016" stroke="#EBEBEB" stroke-width="2" stroke-linecap="round" stroke-linejoin="round" stroke-dasharray="5.54 5.54"/>
<path d="M215.8 175.088H213.8" stroke="#EBEBEB" stroke-width="2" stroke-linecap="round" stroke-linejoin="round"/>
<path d="M342.496 231.584V246.472H231.088V199.272H215.272" stroke="#EBEBEB" stroke-width="2" stroke-linecap="round" stroke-linejoin="round" stroke-dasharray="5 5"/>
<path d="M215.272 67.88H236.776V151.32H197.464" stroke="#EBEBEB" stroke-width="2" stroke-linecap="round" stroke-linejoin="round" stroke-dasharray="5 5"/>
<path d="M105.904 93.192H125.704V176.064H155.576" stroke="#EBEBEB" stroke-width="2" stroke-linecap="round" stroke-linejoin="round" stroke-dasharray="5 5"/>
<path d="M61.8 251.728L52.928 246.128L43.832 251.728V221.824H61.8V251.728Z" fill="#E0E0E0"/>
<path d="M62.7064 228.997C68.1706 223.533 68.1706 214.674 62.7064 209.21C57.2422 203.745 48.383 203.745 42.9187 209.21C37.4545 214.674 37.4545 223.533 42.9187 228.997C48.383 234.461 57.2422 234.461 62.7064 228.997Z" fill="#F5F5F5"/>
<path d="M61.213 227.504C65.8524 222.864 65.8524 215.342 61.213 210.703C56.5736 206.064 49.0516 206.064 44.4121 210.703C39.7727 215.342 39.7727 222.864 44.4122 227.504C49.0516 232.143 56.5736 232.143 61.213 227.504Z" fill="#EBEBEB"/>
<path d="M71.584 219.496H133.304V199.272H155.576" stroke="#EBEBEB" stroke-width="2" stroke-linecap="round" stroke-linejoin="round" stroke-dasharray="5 5"/>
<path d="M200 342.048C285.666 342.048 355.112 337.993 355.112 332.992C355.112 327.99 285.666 323.936 200 323.936C114.334 323.936 44.8879 327.99 44.8879 332.992C44.8879 337.993 114.334 342.048 200 342.048Z" fill="#F5F5F5"/>
<path d="M90.224 113.24C90.224 113.24 86.224 114.72 84.96 120.2C83.696 125.68 87.056 137.504 87.592 143.096C88.128 148.688 81.992 160.024 97.936 161.056C113.88 162.088 116.184 118.584 108.8 115.544C101.416 112.504 90.224 113.24 90.224 113.24Z" fill="#263238"/>
<path d="M108.048 116.176C112.496 114.08 114.4 128.56 112.848 139.008" stroke="#263238" stroke-width="0.5" stroke-linecap="round" stroke-linejoin="round"/>
<path d="M145.864 110.328L147.76 105.112C147.76 105.112 146.96 104.16 150.608 102.416C154.256 100.672 156.48 99.728 157.976 100.2C159.472 100.672 161.528 104.04 161.368 105.208C161.208 106.376 151.24 108 151.24 108L149.816 112L145.864 110.328Z" fill="#E4897B"/>
<path d="M115.024 137C115.024 137 132.432 131.776 135.28 129.104C138.128 126.432 146.184 106.528 146.184 106.528L152.032 108.928C152.032 108.928 146.04 132.048 140.976 137.4C135.912 142.752 116.448 152.24 116.448 152.24L115.024 137Z" fill="#244BA5"/>
<path opacity="0.6" d="M115.024 137C115.024 137 132.432 131.776 135.28 129.104C138.128 126.432 146.184 106.528 146.184 106.528L152.032 108.928C152.032 108.928 146.04 132.048 140.976 137.4C135.912 142.752 116.448 152.24 116.448 152.24L115.024 137Z" fill="white"/>
<path d="M83.5359 314.448L87.3999 316.72C89.2123 314.282 91.1734 311.957 93.2719 309.76C94.3919 308.576 95.5679 307.264 96.7919 305.856C99.2399 303.048 101.888 299.84 104.664 296.392L107.152 293.28C116.8 281.104 127.28 266.8 131.2 257.128C132.416 254.12 133.008 251.528 132.744 249.656C131.944 243.88 129.704 235.184 127.144 226.784C123.24 213.944 118.848 201.776 118.848 201.776L108.056 220.056C108.056 220.056 111.368 227.952 114.384 236.36C117.352 244.616 120.032 253.376 119.04 255.656C118.944 255.88 118.824 256.144 118.688 256.456C116.896 260.168 111.936 268.576 106.304 277.864L104.584 280.688C101.56 285.648 98.4159 290.744 95.5039 295.424C94.3679 297.264 93.2639 299.04 92.2159 300.72C87.2399 308.664 83.5359 314.448 83.5359 314.448Z" fill="#E4897B"/>
<path opacity="0.2" d="M107.376 293.272C102.272 299.672 97.3681 305.512 93.7201 309.752C93.2001 307.144 92.6721 304.056 92.2561 300.688C96.4721 293.92 101.632 285.568 106.32 277.832C106.221 283 106.574 288.166 107.376 293.272Z" fill="black"/>
<path d="M88.112 240.376C89.448 249.488 91.312 257.744 92.592 262.664C93.336 265.616 93.84 267.36 93.84 267.36C93.8581 276.717 94.4083 286.065 95.488 295.36C95.896 299.024 96.336 302.56 96.792 305.816C98.472 317.928 100.24 326.616 100.24 326.616L104.84 326.016L104.664 296.344L104.568 280.616L104.44 259.216L104.392 255.488L104.168 239.216L103.84 215.216L87.84 208.016C85.696 217.176 86.496 229.4 88.112 240.376Z" fill="#E4897B"/>
<path opacity="0.2" d="M130.928 240.528C126.84 243.352 121.328 245.048 117.544 245.96C116.672 242.976 115.544 239.624 114.344 236.36C111.328 227.952 108.016 220.056 108.016 220.056L118.808 201.776C118.808 201.776 123.2 213.944 127.104 226.784C128.56 231.456 129.888 236.224 130.928 240.528Z" fill="black"/>
<path opacity="0.2" d="M104.304 249.328C99.3318 249.221 94.3681 248.863 89.432 248.256C88.968 245.752 88.512 243.104 88.112 240.376C86.512 229.4 85.712 217.176 87.84 208.056L103.84 215.256L104.168 239.256L104.304 249.328Z" fill="black"/>
<path d="M131.704 238.936C121.696 244.816 92.2559 247.312 92.2559 247.312L87.4559 233.776L87.9999 247.2H86.5679C86.5679 247.2 75.8159 210.8 90.1039 186.944L115.704 184.968L118.504 198.152C118.504 198.152 125.688 217.016 131.704 238.936Z" fill="#263238"/>
<path d="M112.928 332.552C112.174 332.102 111.345 331.793 110.48 331.64C110.48 331.64 107.648 329.536 105.408 322.296L102.04 321.912C101.468 321.86 100.893 321.985 100.395 322.272C99.8968 322.558 99.499 322.991 99.2561 323.512C99.1843 323.655 99.1357 323.809 99.1121 323.968C99.06 324.783 99.06 325.601 99.1121 326.416C99.3167 329.148 99.6854 331.865 100.216 334.552L100.808 334.472L100.312 329.336C100.152 327.592 101.768 329.432 102.416 331.248C103.064 333.064 104.144 334.928 107.952 334.448C112.392 333.912 114.208 333.48 112.928 332.552Z" fill="#2E353A"/>
<path d="M104.48 319.736C104.48 319.736 105.68 323.008 107.28 326.608C108.015 328.475 109.101 330.183 110.48 331.64C110.48 331.64 107.696 332.544 106.2 330.8C104.704 329.056 102.128 322.76 99.2561 323.488C99.4091 322.976 99.624 322.484 99.8961 322.024C100.328 321.312 104.48 319.736 104.48 319.736Z" fill="#E4897B"/>
<path d="M84.744 329.712C84.5832 328.845 84.2631 328.015 83.8 327.264C83.8 327.264 83.504 323.752 87.44 317.28L85.496 314.504C85.1602 314.04 84.69 313.691 84.1491 313.504C83.6082 313.316 83.0227 313.3 82.472 313.456C82.3174 313.5 82.1694 313.565 82.032 313.648C81.3864 314.143 80.7719 314.677 80.192 315.248C78.2816 317.213 76.4916 319.291 74.832 321.472L75.288 321.856L78.808 318.08C80.008 316.808 79.696 319.24 78.768 320.92C77.84 322.6 77.168 324.656 80.016 327.216C83.368 330.208 84.896 331.28 84.744 329.712Z" fill="#2E353A"/>
<path d="M88.7441 314.88C88.7441 314.88 87.0881 317.952 85.4481 321.536C84.5394 323.323 83.9801 325.267 83.8001 327.264C83.8001 327.264 81.2881 325.784 81.6001 323.504C81.9121 321.224 84.9201 315.136 82.4721 313.456C82.9582 313.235 83.4683 313.072 83.9921 312.968C84.8001 312.8 88.7441 314.88 88.7441 314.88Z" fill="#E4897B"/>
<path d="M89.84 184.296L89.696 188.16L116.152 187.128L116.328 182.56L89.84 184.296Z" fill="#263238"/>
<path opacity="0.2" d="M89.84 184.296L89.696 188.16L116.152 187.128L116.328 182.56L89.84 184.296Z" fill="white"/>
<path d="M98.7784 183L97.4666 183.017L97.5563 189.697L98.8682 189.679L98.7784 183Z" fill="#263238"/>
<path d="M110.183 183.012L104.399 183.311L104.625 187.697L110.41 187.398L110.183 183.012Z" fill="white"/>
<path d="M114.954 181.835L113.642 181.852L113.731 188.532L115.043 188.514L114.954 181.835Z" fill="#263238"/>
<path d="M82.656 185.928L88.704 189.384C90.1147 189.92 91.2906 190.937 92.024 192.256C93.504 194.656 91.376 203.808 90.224 203.808C89.072 203.808 82.568 202.384 82.656 201.12C82.744 199.856 85.264 193.84 85.264 193.84L79.416 190.2L82.656 185.928Z" fill="#E4897B"/>
<path d="M89.696 184.288C89.696 184.288 88.096 160.832 82.656 147.424C82.656 147.424 93.856 141.408 115.024 137.024C115.024 137.024 121.088 151.784 116.328 182.84L89.696 184.288Z" fill="#244BA5"/>
<path opacity="0.6" d="M107.288 161.808C107.703 161.808 108.04 161.471 108.04 161.056C108.04 160.641 107.703 160.304 107.288 160.304C106.873 160.304 106.536 160.641 106.536 161.056C106.536 161.471 106.873 161.808 107.288 161.808Z" fill="white"/>
<path opacity="0.6" d="M108.8 170.16C108.781 170.347 108.693 170.52 108.553 170.646C108.413 170.772 108.232 170.842 108.044 170.842C107.856 170.842 107.674 170.772 107.535 170.646C107.395 170.52 107.307 170.347 107.288 170.16C107.277 170.054 107.288 169.947 107.322 169.846C107.355 169.745 107.408 169.652 107.48 169.573C107.551 169.494 107.638 169.431 107.735 169.388C107.832 169.344 107.938 169.322 108.044 169.322C108.15 169.322 108.255 169.344 108.353 169.388C108.45 169.431 108.537 169.494 108.608 169.573C108.679 169.652 108.733 169.745 108.766 169.846C108.799 169.947 108.811 170.054 108.8 170.16Z" fill="white"/>
<path opacity="0.6" d="M108.8 178.808C108.781 178.995 108.693 179.168 108.553 179.294C108.413 179.42 108.232 179.49 108.044 179.49C107.856 179.49 107.674 179.42 107.535 179.294C107.395 179.168 107.307 178.995 107.288 178.808C107.277 178.702 107.288 178.595 107.322 178.494C107.355 178.393 107.408 178.3 107.48 178.221C107.551 178.142 107.638 178.079 107.735 178.036C107.832 177.992 107.938 177.97 108.044 177.97C108.15 177.97 108.255 177.992 108.353 178.036C108.45 178.079 108.537 178.142 108.608 178.221C108.679 178.3 108.733 178.393 108.766 178.494C108.799 178.595 108.811 178.702 108.8 178.808Z" fill="white"/>
<path d="M82.656 147.424C77.68 150.16 59.64 170.896 61.056 177.064C62.472 183.232 82.656 192.888 82.656 192.888L86.12 186.912C86.12 186.912 72.904 177.064 72.272 175.48C71.64 173.896 86.816 161.96 86.816 161.96C87.0082 158.793 86.9145 155.614 86.536 152.464C86.3749 151.362 85.9335 150.32 85.2541 149.437C84.5747 148.555 83.6801 147.862 82.656 147.424Z" fill="#244BA5"/>
<path opacity="0.6" d="M82.656 147.424C77.68 150.16 59.64 170.896 61.056 177.064C62.472 183.232 82.656 192.888 82.656 192.888L86.12 186.912C86.12 186.912 72.904 177.064 72.272 175.48C71.64 173.896 86.816 161.96 86.816 161.96C87.0082 158.793 86.9145 155.614 86.536 152.464C86.3749 151.362 85.9335 150.32 85.2541 149.437C84.5747 148.555 83.6801 147.862 82.656 147.424Z" fill="white"/>
<path d="M92.0001 151.584C92.0001 151.584 86.9361 143.312 98.0161 140.456C109.096 137.6 112.472 144.256 112.472 144.256L106.952 143.304L106.256 156.496C103.704 151.93 99.552 148.47 94.6001 146.784L92.0001 151.584Z" fill="#244BA5"/>
<path opacity="0.6" d="M92.0001 151.584C92.0001 151.584 86.9361 143.312 98.0161 140.456C109.096 137.6 112.472 144.256 112.472 144.256L106.952 143.304L106.256 156.496C103.704 151.93 99.552 148.47 94.6001 146.784L92.0001 151.584Z" fill="white"/>
<path d="M104.584 150.008C100.87 148.273 97.311 146.226 93.9441 143.888C96.5441 141.44 96.0721 137.824 95.4081 135.568C95.2018 134.853 94.9341 134.157 94.6081 133.488L102.264 134.92C102.088 135.978 101.989 137.048 101.968 138.12C101.94 138.926 102.012 139.732 102.184 140.52C102.704 142.808 104.008 142.84 104.008 142.84C105.368 145.344 104.584 150.008 104.584 150.008Z" fill="#E4897B"/>
<path opacity="0.2" d="M101.984 138.144C101.955 138.95 102.028 139.756 102.2 140.544C99.1599 140.144 96.8559 137.712 95.4079 135.6C95.2016 134.885 94.9339 134.189 94.6079 133.52L102.264 134.952C102.093 136.008 102 137.075 101.984 138.144Z" fill="black"/>
<path d="M100.464 113.368C108.712 113.368 109.4 117.368 109.872 124.224C110.464 132.8 108.552 138.896 100.224 137.024C88.92 134.528 89.4 113.368 100.464 113.368Z" fill="#E4897B"/>
<path d="M105.6 123.84C106.131 124.837 106.781 125.767 107.536 126.608C107.339 126.882 107.071 127.097 106.761 127.23C106.451 127.362 106.11 127.407 105.776 127.36L105.6 123.84Z" fill="#DE5753"/>
<path d="M101.496 123.288C101.496 123.832 101.216 124.28 100.856 124.288C100.496 124.296 100.184 123.864 100.176 123.312C100.168 122.76 100.448 122.32 100.808 122.312C101.168 122.304 101.48 122.736 101.496 123.288Z" fill="#263238"/>
<path d="M100.664 122.336L101.84 121.848C101.84 121.848 101.272 122.864 100.664 122.336Z" fill="#263238"/>
<path d="M108.296 123.032C108.296 123.576 108.016 124.024 107.656 124.032C107.296 124.04 106.984 123.6 106.976 123.056C106.968 122.512 107.248 122.056 107.616 122.048C107.984 122.04 108.28 122.48 108.296 123.032Z" fill="#263238"/>
<path d="M107.464 122.08L108.64 121.592C108.64 121.592 108.072 122.6 107.464 122.08Z" fill="#263238"/>
<path d="M101.44 118.688C100.913 118.623 100.378 118.679 99.876 118.852C99.374 119.025 98.9184 119.311 98.5439 119.688" stroke="#263238" stroke-width="0.707962" stroke-linecap="round" stroke-linejoin="round"/>
<path d="M106.28 118.4C106.736 118.286 107.211 118.277 107.671 118.372C108.131 118.468 108.563 118.666 108.936 118.952" stroke="#263238" stroke-width="0.707962" stroke-linecap="round" stroke-linejoin="round"/>
<path d="M93.296 124.984C93.296 124.984 96.424 119.512 95.96 115.288C95.96 115.288 100.664 110.44 106.992 115.232C106.992 115.232 109.632 119.784 109.8 123.328C109.8 123.328 111.112 111.432 99.664 111.136C88.216 110.84 88.224 127.6 94.128 132.608C94.128 132.608 91.36 128.4 93.296 124.984Z" fill="#263238"/>
<path d="M94.4 126.4C94.3697 126.018 94.2643 125.645 94.0899 125.303C93.9155 124.961 93.6754 124.657 93.3834 124.408C93.0914 124.16 92.7532 123.971 92.3882 123.853C92.0232 123.734 91.6385 123.689 91.256 123.72C89.192 123.944 88.2 128.176 93.336 129.208C94.056 129.344 94.472 128.632 94.4 126.4Z" fill="#E4897B"/>
<path d="M104.84 130.968C104.84 130.968 102.048 131.6 100.896 129.104" stroke="#263238" stroke-width="0.707962" stroke-linecap="round" stroke-linejoin="round"/>
<path d="M96.0001 115.288C96.0001 115.288 103.616 111.912 108.656 116.368C108.656 116.368 110.632 110.496 103.856 108.496C97.0801 106.496 90.2561 113.24 90.2561 113.24L96.0001 115.288Z" fill="#263238"/>
<path d="M96 115.288C96 115.288 91.56 119.672 92.2 128.408C92.84 137.144 92 142.656 90.264 148.12C88.528 153.584 93.072 155.216 93.072 155.216C93.072 155.216 87.896 156.496 86.832 150.952C86.128 147.32 87.792 139.448 86.96 130.072C86.128 120.696 89.424 114.064 96 115.288Z" fill="#263238"/>
<path d="M219.56 95.824C218.105 95.824 216.682 96.2557 215.471 97.0644C214.261 97.8731 213.318 99.0226 212.76 100.367C212.203 101.712 212.058 103.192 212.342 104.62C212.626 106.048 213.327 107.359 214.356 108.388C215.385 109.418 216.697 110.119 218.124 110.403C219.552 110.687 221.032 110.541 222.377 109.984C223.722 109.427 224.871 108.483 225.68 107.273C226.489 106.063 226.92 104.64 226.92 103.184C226.92 101.232 226.145 99.36 224.764 97.9797C223.384 96.5994 221.512 95.824 219.56 95.824ZM219.56 102.472C219.138 102.472 218.725 102.347 218.373 102.112C218.022 101.877 217.748 101.544 217.587 101.153C217.425 100.763 217.383 100.334 217.465 99.9193C217.548 99.5049 217.751 99.1243 218.05 98.8256C218.349 98.5269 218.729 98.3235 219.143 98.241C219.558 98.1586 219.987 98.2009 220.378 98.3626C220.768 98.5243 221.101 98.798 221.336 99.1493C221.571 99.5006 221.696 99.9135 221.696 100.336C221.696 100.617 221.641 100.894 221.534 101.153C221.426 101.413 221.269 101.648 221.071 101.846C220.872 102.045 220.637 102.202 220.378 102.309C220.118 102.417 219.841 102.472 219.56 102.472Z" fill="#244BA5"/>
<path opacity="0.6" d="M219.56 95.824C218.105 95.824 216.682 96.2557 215.471 97.0644C214.261 97.8731 213.318 99.0226 212.76 100.367C212.203 101.712 212.058 103.192 212.342 104.62C212.626 106.048 213.327 107.359 214.356 108.388C215.385 109.418 216.697 110.119 218.124 110.403C219.552 110.687 221.032 110.541 222.377 109.984C223.722 109.427 224.871 108.483 225.68 107.273C226.489 106.063 226.92 104.64 226.92 103.184C226.92 101.232 226.145 99.36 224.764 97.9797C223.384 96.5994 221.512 95.824 219.56 95.824ZM219.56 102.472C219.138 102.472 218.725 102.347 218.373 102.112C218.022 101.877 217.748 101.544 217.587 101.153C217.425 100.763 217.383 100.334 217.465 99.9193C217.548 99.5049 217.751 99.1243 218.05 98.8256C218.349 98.5269 218.729 98.3235 219.143 98.241C219.558 98.1586 219.987 98.2009 220.378 98.3626C220.768 98.5243 221.101 98.798 221.336 99.1493C221.571 99.5006 221.696 99.9135 221.696 100.336C221.696 100.617 221.641 100.894 221.534 101.153C221.426 101.413 221.269 101.648 221.071 101.846C220.872 102.045 220.637 102.202 220.378 102.309C220.118 102.417 219.841 102.472 219.56 102.472Z" fill="white"/>
<path d="M292.384 105.488H146.728C143.419 105.488 140.736 108.171 140.736 111.48V328.536C140.736 331.845 143.419 334.528 146.728 334.528H292.384C295.693 334.528 298.376 331.845 298.376 328.536V111.48C298.376 108.171 295.693 105.488 292.384 105.488Z" fill="#244BA5"/>
<path opacity="0.8" d="M290.032 118.8H149.08V323.632H290.032V118.8Z" fill="white"/>
<path d="M257.048 103.536H182.072C181.219 103.536 180.528 104.227 180.528 105.08V114.696C180.528 115.549 181.219 116.24 182.072 116.24H257.048C257.901 116.24 258.592 115.549 258.592 114.696V105.08C258.592 104.227 257.901 103.536 257.048 103.536Z" fill="#244BA5"/>
<path opacity="0.4" d="M257.048 103.536H182.072C181.219 103.536 180.528 104.227 180.528 105.08V114.696C180.528 115.549 181.219 116.24 182.072 116.24H257.048C257.901 116.24 258.592 115.549 258.592 114.696V105.08C258.592 104.227 257.901 103.536 257.048 103.536Z" fill="white"/>
<path d="M248.416 128.04H225.824C225.364 128.048 224.911 127.93 224.513 127.699C224.115 127.468 223.789 127.132 223.568 126.728C223.181 126.004 222.604 125.398 221.9 124.976C221.195 124.554 220.389 124.331 219.568 124.331C218.747 124.331 217.941 124.554 217.237 124.976C216.532 125.398 215.955 126.004 215.568 126.728C215.347 127.131 215.02 127.466 214.623 127.698C214.225 127.929 213.772 128.047 213.312 128.04H190.696C190.06 128.04 189.449 127.787 188.999 127.337C188.549 126.887 188.296 126.277 188.296 125.64V112.16C188.296 111.523 188.549 110.913 188.999 110.463C189.449 110.013 190.06 109.76 190.696 109.76H248.416C249.053 109.76 249.663 110.013 250.113 110.463C250.563 110.913 250.816 111.523 250.816 112.16V125.6C250.821 125.919 250.763 126.235 250.645 126.531C250.527 126.827 250.351 127.096 250.128 127.323C249.904 127.55 249.638 127.73 249.344 127.854C249.05 127.977 248.735 128.04 248.416 128.04ZM219.56 122.72C220.674 122.718 221.767 123.02 222.722 123.594C223.676 124.168 224.456 124.991 224.976 125.976C225.063 126.122 225.188 126.242 225.337 126.324C225.486 126.405 225.654 126.445 225.824 126.44H248.416C248.628 126.44 248.832 126.356 248.982 126.206C249.132 126.056 249.216 125.852 249.216 125.64V112.16C249.216 111.948 249.132 111.744 248.982 111.594C248.832 111.444 248.628 111.36 248.416 111.36H190.696C190.484 111.36 190.28 111.444 190.13 111.594C189.98 111.744 189.896 111.948 189.896 112.16V125.6C189.896 125.812 189.98 126.016 190.13 126.166C190.28 126.316 190.484 126.4 190.696 126.4H213.304C213.473 126.405 213.64 126.364 213.788 126.283C213.935 126.201 214.058 126.081 214.144 125.936C214.671 124.959 215.453 124.144 216.407 123.578C217.361 123.011 218.451 122.715 219.56 122.72Z" fill="#263238"/>
<g opacity="0.2">
<path d="M248.416 128.04H225.824C225.364 128.048 224.911 127.93 224.513 127.699C224.115 127.468 223.789 127.132 223.568 126.728C223.181 126.004 222.604 125.398 221.9 124.976C221.195 124.554 220.389 124.331 219.568 124.331C218.747 124.331 217.941 124.554 217.237 124.976C216.532 125.398 215.955 126.004 215.568 126.728C215.347 127.131 215.02 127.466 214.623 127.698C214.225 127.929 213.772 128.047 213.312 128.04H190.696C190.06 128.04 189.449 127.787 188.999 127.337C188.549 126.887 188.296 126.277 188.296 125.64V112.16C188.296 111.523 188.549 110.913 188.999 110.463C189.449 110.013 190.06 109.76 190.696 109.76H248.416C249.053 109.76 249.663 110.013 250.113 110.463C250.563 110.913 250.816 111.523 250.816 112.16V125.6C250.821 125.919 250.763 126.235 250.645 126.531C250.527 126.827 250.351 127.096 250.128 127.323C249.904 127.55 249.638 127.73 249.344 127.854C249.05 127.977 248.735 128.04 248.416 128.04ZM219.56 122.72C220.674 122.718 221.767 123.02 222.722 123.594C223.676 124.168 224.456 124.991 224.976 125.976C225.063 126.122 225.188 126.242 225.337 126.324C225.486 126.405 225.654 126.445 225.824 126.44H248.416C248.628 126.44 248.832 126.356 248.982 126.206C249.132 126.056 249.216 125.852 249.216 125.64V112.16C249.216 111.948 249.132 111.744 248.982 111.594C248.832 111.444 248.628 111.36 248.416 111.36H190.696C190.484 111.36 190.28 111.444 190.13 111.594C189.98 111.744 189.896 111.948 189.896 112.16V125.6C189.896 125.812 189.98 126.016 190.13 126.166C190.28 126.316 190.484 126.4 190.696 126.4H213.304C213.473 126.405 213.64 126.364 213.788 126.283C213.935 126.201 214.058 126.081 214.144 125.936C214.671 124.959 215.453 124.144 216.407 123.578C217.361 123.011 218.451 122.715 219.56 122.72Z" fill="white"/>
</g>
<path d="M244.992 107.416H194.152C193.64 107.416 193.224 107.831 193.224 108.344V111.944C193.224 112.457 193.64 112.872 194.152 112.872H244.992C245.505 112.872 245.92 112.457 245.92 111.944V108.344C245.92 107.831 245.505 107.416 244.992 107.416Z" fill="#244BA5"/>
<path opacity="0.6" d="M244.968 107.416H194.128C193.616 107.416 193.2 107.831 193.2 108.344V111.944C193.2 112.457 193.616 112.872 194.128 112.872H244.968C245.481 112.872 245.896 112.457 245.896 111.944V108.344C245.896 107.831 245.481 107.416 244.968 107.416Z" fill="white"/>
<path opacity="0.3" d="M232.648 230.672H218.408V244.912H232.648V230.672Z" fill="black"/>
<path opacity="0.3" d="M230.984 250.64H220.072C219.631 250.64 219.208 250.465 218.896 250.153C218.584 249.841 218.408 249.417 218.408 248.976C218.41 248.536 218.587 248.115 218.898 247.805C219.21 247.494 219.632 247.32 220.072 247.32H230.984C231.424 247.32 231.846 247.494 232.158 247.805C232.47 248.115 232.646 248.536 232.648 248.976C232.648 249.417 232.473 249.841 232.161 250.153C231.849 250.465 231.426 250.64 230.984 250.64Z" fill="black"/>
<path opacity="0.3" d="M276.808 230.672H240.184C239.345 230.672 238.664 231.353 238.664 232.192V232.2C238.664 233.039 239.345 233.72 240.184 233.72H276.808C277.648 233.72 278.328 233.039 278.328 232.2V232.192C278.328 231.353 277.648 230.672 276.808 230.672Z" fill="black"/>
<path opacity="0.3" d="M268.808 238.672H240.184C239.345 238.672 238.664 239.353 238.664 240.192V240.2C238.664 241.039 239.345 241.72 240.184 241.72H268.808C269.648 241.72 270.328 241.039 270.328 240.2V240.192C270.328 239.353 269.648 238.672 268.808 238.672Z" fill="black"/>
<path opacity="0.3" d="M276.808 246.672H240.184C239.345 246.672 238.664 247.353 238.664 248.192V248.2C238.664 249.039 239.345 249.72 240.184 249.72H276.808C277.648 249.72 278.328 249.039 278.328 248.2V248.192C278.328 247.353 277.648 246.672 276.808 246.672Z" fill="black"/>
<path opacity="0.3" d="M256.008 254.672H240.184C239.345 254.672 238.664 255.353 238.664 256.192V256.2C238.664 257.039 239.345 257.72 240.184 257.72H256.008C256.848 257.72 257.528 257.039 257.528 256.2V256.192C257.528 255.353 256.848 254.672 256.008 254.672Z" fill="black"/>
<path opacity="0.3" d="M261.648 139.896H177.072C176.341 139.894 175.64 139.602 175.123 139.085C174.606 138.568 174.314 137.867 174.312 137.136C174.312 136.404 174.603 135.702 175.12 135.184C175.638 134.667 176.34 134.376 177.072 134.376H261.648C262.38 134.376 263.082 134.667 263.6 135.184C264.117 135.702 264.408 136.404 264.408 137.136C264.406 137.867 264.114 138.568 263.597 139.085C263.08 139.602 262.379 139.894 261.648 139.896Z" fill="black"/>
<path opacity="0.3" d="M275.752 156.232H219.928C219.524 156.23 219.138 156.068 218.853 155.782C218.568 155.495 218.408 155.108 218.408 154.704C218.408 154.301 218.568 153.914 218.853 153.629C219.138 153.344 219.525 153.184 219.928 153.184H275.752C276.155 153.184 276.542 153.344 276.827 153.629C277.112 153.914 277.272 154.301 277.272 154.704C277.272 155.108 277.112 155.495 276.827 155.782C276.543 156.068 276.156 156.23 275.752 156.232Z" fill="black"/>
<path opacity="0.3" d="M267.752 164.232H219.928C219.524 164.23 219.138 164.068 218.853 163.782C218.568 163.495 218.408 163.108 218.408 162.704C218.408 162.301 218.568 161.914 218.853 161.629C219.138 161.344 219.525 161.184 219.928 161.184H267.752C268.155 161.184 268.542 161.344 268.827 161.629C269.112 161.914 269.272 162.301 269.272 162.704C269.272 163.108 269.112 163.495 268.827 163.782C268.543 164.068 268.156 164.23 267.752 164.232Z" fill="black"/>
<path opacity="0.3" d="M275.752 172.232H219.928C219.524 172.23 219.138 172.068 218.853 171.782C218.568 171.495 218.408 171.108 218.408 170.704C218.408 170.301 218.568 169.914 218.853 169.629C219.138 169.344 219.525 169.184 219.928 169.184H275.752C276.155 169.184 276.542 169.344 276.827 169.629C277.112 169.914 277.272 170.301 277.272 170.704C277.272 171.108 277.112 171.495 276.827 171.782C276.543 172.068 276.156 172.23 275.752 172.232Z" fill="black"/>
<path opacity="0.3" d="M259.752 180.232H219.928C219.524 180.23 219.138 180.068 218.853 179.782C218.568 179.495 218.408 179.108 218.408 178.704C218.408 178.301 218.568 177.914 218.853 177.629C219.138 177.344 219.525 177.184 219.928 177.184H259.752C260.155 177.184 260.542 177.344 260.827 177.629C261.112 177.914 261.272 178.301 261.272 178.704C261.272 179.108 261.112 179.495 260.827 179.782C260.543 180.068 260.156 180.23 259.752 180.232Z" fill="black"/>
<path opacity="0.3" d="M222.4 189.768L223.28 191.544L225.248 191.832L223.824 193.216L224.16 195.176L222.4 194.248L220.648 195.176L220.984 193.216L219.56 191.832L221.52 191.544L222.4 189.768Z" fill="black"/>
<path opacity="0.3" d="M232.336 189.768L233.216 191.544L235.176 191.832L233.752 193.216L234.088 195.176L232.336 194.248L230.576 195.176L230.912 193.216L229.488 191.832L231.456 191.544L232.336 189.768Z" fill="black"/>
<path opacity="0.3" d="M242.264 189.768L243.144 191.544L245.112 191.832L243.688 193.216L244.024 195.176L242.264 194.248L240.504 195.176L240.84 193.216L239.424 191.832L241.384 191.544L242.264 189.768Z" fill="black"/>
<path opacity="0.3" d="M252.2 189.768L253.072 191.544L255.04 191.832L253.616 193.216L253.952 195.176L252.2 194.248L250.44 195.176L250.776 193.216L249.352 191.832L251.32 191.544L252.2 189.768Z" fill="black"/>
<path opacity="0.3" d="M262.128 189.768L263.008 191.544L264.968 191.832L263.552 193.216L263.888 195.176L262.128 194.248L260.368 195.176L260.704 193.216L259.288 191.832L261.248 191.544L262.128 189.768Z" fill="black"/>
<path opacity="0.3" d="M222.4 199.96L223.28 201.736L225.248 202.024L223.824 203.408L224.16 205.368L222.4 204.44L220.648 205.368L220.984 203.408L219.56 202.024L221.52 201.736L222.4 199.96Z" fill="black"/>
<path opacity="0.3" d="M232.336 199.96L233.216 201.736L235.176 202.024L233.752 203.408L234.088 205.368L232.336 204.44L230.576 205.368L230.912 203.408L229.488 202.024L231.456 201.736L232.336 199.96Z" fill="black"/>
<path opacity="0.3" d="M242.264 199.96L243.144 201.736L245.112 202.024L243.688 203.408L244.024 205.368L242.264 204.44L240.504 205.368L240.84 203.408L239.424 202.024L241.384 201.736L242.264 199.96Z" fill="black"/>
<path opacity="0.1" d="M252.2 199.96L253.072 201.736L255.04 202.024L253.616 203.408L253.952 205.368L252.2 204.44L250.44 205.368L250.776 203.408L249.352 202.024L251.32 201.736L252.2 199.96Z" fill="black"/>
<path opacity="0.1" d="M262.128 199.96L263.008 201.736L264.968 202.024L263.552 203.408L263.888 205.368L262.128 204.44L260.368 205.368L260.704 203.408L259.288 202.024L261.248 201.736L262.128 199.96Z" fill="black"/>
<path opacity="0.3" d="M222.4 210.152L223.28 211.928L225.248 212.216L223.824 213.6L224.16 215.56L222.4 214.632L220.648 215.56L220.984 213.6L219.56 212.216L221.52 211.928L222.4 210.152Z" fill="black"/>
<path opacity="0.3" d="M232.336 210.152L233.216 211.928L235.176 212.216L233.752 213.6L234.088 215.56L232.336 214.632L230.576 215.56L230.912 213.6L229.488 212.216L231.456 211.928L232.336 210.152Z" fill="black"/>
<path opacity="0.3" d="M242.264 210.152L243.144 211.928L245.112 212.216L243.688 213.6L244.024 215.56L242.264 214.632L240.504 215.56L240.84 213.6L239.424 212.216L241.384 211.928L242.264 210.152Z" fill="black"/>
<path opacity="0.3" d="M252.2 210.152L253.072 211.928L255.04 212.216L253.616 213.6L253.952 215.56L252.2 214.632L250.44 215.56L250.776 213.6L249.352 212.216L251.32 211.928L252.2 210.152Z" fill="black"/>
<path opacity="0.1" d="M262.128 210.152L263.008 211.928L264.968 212.216L263.552 213.6L263.888 215.56L262.128 214.632L260.368 215.56L260.704 213.6L259.288 212.216L261.248 211.928L262.128 210.152Z" fill="black"/>
<path opacity="0.3" d="M232.648 270.672H218.408V284.912H232.648V270.672Z" fill="black"/>
<path opacity="0.3" d="M230.984 290.64H220.072C219.631 290.64 219.208 290.465 218.896 290.153C218.584 289.841 218.408 289.417 218.408 288.976C218.41 288.536 218.587 288.115 218.898 287.805C219.21 287.494 219.632 287.32 220.072 287.32H230.984C231.424 287.32 231.846 287.494 232.158 287.805C232.47 288.115 232.646 288.536 232.648 288.976C232.648 289.417 232.473 289.841 232.161 290.153C231.849 290.465 231.426 290.64 230.984 290.64Z" fill="black"/>
<path opacity="0.3" d="M276.808 270.672H240.184C239.345 270.672 238.664 271.353 238.664 272.192V272.2C238.664 273.039 239.345 273.72 240.184 273.72H276.808C277.648 273.72 278.328 273.039 278.328 272.2V272.192C278.328 271.353 277.648 270.672 276.808 270.672Z" fill="black"/>
<path opacity="0.3" d="M268.808 278.672H240.184C239.345 278.672 238.664 279.353 238.664 280.192V280.2C238.664 281.039 239.345 281.72 240.184 281.72H268.808C269.648 281.72 270.328 281.039 270.328 280.2V280.192C270.328 279.353 269.648 278.672 268.808 278.672Z" fill="black"/>
<path opacity="0.3" d="M276.808 286.672H240.184C239.345 286.672 238.664 287.353 238.664 288.192V288.2C238.664 289.039 239.345 289.72 240.184 289.72H276.808C277.648 289.72 278.328 289.039 278.328 288.2V288.192C278.328 287.353 277.648 286.672 276.808 286.672Z" fill="black"/>
<path opacity="0.3" d="M256.008 294.672H240.184C239.345 294.672 238.664 295.353 238.664 296.192V296.2C238.664 297.039 239.345 297.72 240.184 297.72H256.008C256.848 297.72 257.528 297.039 257.528 296.2V296.192C257.528 295.353 256.848 294.672 256.008 294.672Z" fill="black"/>
<path d="M209.32 153.184H157.976V221.36H209.32V153.184Z" fill="white"/>
<path d="M206.92 155.584H160.376V218.96H206.92V155.584Z" fill="#244BA5"/>
<path opacity="0.4" d="M206.92 155.584H160.376V218.96H206.92V155.584Z" fill="white"/>
<path d="M206.92 204.8V218.96H203.304C202.304 218.007 201.201 217.167 200.016 216.456C199.445 216.112 198.832 215.843 198.192 215.656C192.76 214.184 200.592 199.656 200.592 199.656C202.4 200.232 204.648 202.28 206.92 204.8Z" fill="#244BA5"/>
<path opacity="0.6" d="M206.92 204.8V218.96H203.304C202.304 218.007 201.201 217.167 200.016 216.456C199.445 216.112 198.832 215.843 198.192 215.656C192.76 214.184 200.592 199.656 200.592 199.656C202.4 200.232 204.648 202.28 206.92 204.8Z" fill="white"/>
<path opacity="0.2" d="M206.92 218.912V218.96H203.304C202.304 218.007 201.201 217.167 200.016 216.456L201.088 209.76C202.134 210.628 203.062 211.628 203.848 212.736C205.216 214.605 206.255 216.694 206.92 218.912Z" fill="black"/>
<path d="M196.952 199.072C196.84 199.648 196.728 200.232 196.6 200.808C196.472 201.384 196.296 202.176 196.128 202.856C194.384 209.872 191.504 216.016 187.376 218.96H173.264C169.16 216.872 168.376 213.36 168.512 209.68C168.6 207.192 169.112 204.656 169.312 202.48C169.376 201.729 169.376 200.975 169.312 200.224C169.208 199.088 168.992 197.72 168.728 196.224C167.504 189.256 165.112 179.2 166.328 174.04C167.776 167.768 172.352 166.04 172.352 166.04C172.352 166.04 173.904 165.936 176.288 165.952C178.048 165.952 180.288 166.04 182.632 166.264H182.8C185.429 166.501 188.033 166.961 190.584 167.64L191.168 167.808C191.672 167.96 192.176 168.12 192.664 168.296C192.984 168.408 193.296 168.528 193.608 168.656C194.013 168.828 194.378 169.081 194.68 169.4C198.304 173.12 199.2 186.76 196.952 199.072Z" fill="#263238"/>
<path d="M192.736 169.432C197.816 167.032 200.008 183.6 198.192 195.56" stroke="#263238" stroke-width="0.5" stroke-linecap="round" stroke-linejoin="round"/>
<path d="M204.232 218.96H167.72C167.568 218.272 167.416 217.584 167.256 216.904C166.355 212.922 165.159 209.013 163.68 205.208C165.176 204.319 166.738 203.546 168.352 202.896C168.656 202.76 168.968 202.632 169.304 202.504C170.568 202 172.04 201.48 173.688 200.984L174.216 200.832C175.456 200.472 176.792 200.136 178.216 199.84C181.188 199.216 184.206 198.836 187.24 198.704C189.55 198.595 191.864 198.633 194.168 198.816C195.072 198.88 195.992 198.968 196.928 199.088C198.104 199.232 199.328 199.416 200.536 199.648C200.672 199.864 202.896 203.4 203.816 212.744C204.04 214.584 204.176 216.648 204.232 218.96Z" fill="#244BA5"/>
<path d="M173.896 208.112C173.896 208.112 169.72 197.824 182.76 196.664C195.8 195.504 198.4 203.632 198.4 203.632L192.344 201.536L189.144 216.296C187.088 210.667 183.018 206.001 177.72 203.2L173.896 208.112Z" fill="#244BA5"/>
<path opacity="0.6" d="M173.896 208.112C173.896 208.112 169.72 197.824 182.76 196.664C195.8 195.504 198.4 203.632 198.4 203.632L192.344 201.536L189.144 216.296C187.088 210.667 183.018 206.001 177.72 203.2L173.896 208.112Z" fill="white"/>
<path d="M188.6 209.76C185.242 206.277 181.429 203.263 177.264 200.8C180.384 198.16 180.064 194 179.44 191.384C179.242 190.563 178.974 189.76 178.64 188.984L187.304 191.08C187.037 192.287 186.858 193.511 186.768 194.744C186.693 195.652 186.728 196.565 186.872 197.464C187.328 200.112 188.816 200.224 188.816 200.224C190.232 203.2 188.6 209.76 188.6 209.76Z" fill="#E4897B"/>
<path opacity="0.2" d="M186.8 194.736C186.725 195.644 186.76 196.557 186.904 197.456C183.456 196.816 180.968 193.896 179.44 191.4C179.242 190.579 178.974 189.776 178.64 189L187.304 191.096C187.049 192.296 186.88 193.512 186.8 194.736Z" fill="black"/>
<path d="M184.056 166.224C193.488 166.224 194.28 170.784 194.824 178.64C195.496 188.464 193.304 195.44 183.776 193.312C170.84 190.44 171.392 166.224 184.056 166.224Z" fill="#E4897B"/>
<path d="M189.896 178.208C190.501 179.359 191.243 180.433 192.104 181.408C191.882 181.724 191.577 181.972 191.223 182.125C190.868 182.278 190.478 182.329 190.096 182.272L189.896 178.208Z" fill="#DE5753"/>
<path d="M185.232 177.6C185.232 178.232 184.92 178.744 184.496 178.752C184.072 178.76 183.696 178.264 183.696 177.632C183.696 177 184.008 176.496 184.424 176.488C184.84 176.48 185.216 176.944 185.232 177.6Z" fill="#263238"/>
<path d="M184.28 176.488L185.632 175.92C185.632 175.92 184.976 177.08 184.28 176.488Z" fill="#263238"/>
<path d="M193.016 177.272C193.016 177.904 192.704 178.416 192.28 178.424C191.856 178.432 191.48 177.936 191.48 177.304C191.48 176.672 191.792 176.168 192.208 176.16C192.624 176.152 193 176.648 193.016 177.272Z" fill="#263238"/>
<path d="M192.064 176.192L193.408 175.632C193.408 175.632 192.8 176.8 192.064 176.192Z" fill="#263238"/>
<path d="M185.168 172.304C185.168 172.304 183.024 172.024 181.856 173.448" stroke="#263238" stroke-width="0.707962" stroke-linecap="round" stroke-linejoin="round"/>
<path d="M190.712 172C191.232 171.869 191.776 171.858 192.301 171.967C192.826 172.077 193.32 172.304 193.744 172.632" stroke="#263238" stroke-width="0.707962" stroke-linecap="round" stroke-linejoin="round"/>
<path d="M175.856 179.512C175.856 179.512 179.432 173.256 178.904 168.416C178.904 168.416 184.28 162.872 191.52 168.352C191.52 168.352 194.552 173.568 194.72 177.616C194.72 177.616 196.224 164.016 183.12 163.672C170.016 163.328 170.048 182.512 176.8 188.24C176.8 188.24 173.64 183.424 175.856 179.512Z" fill="#263238"/>
<path d="M177.096 181.12C177.023 180.239 176.604 179.422 175.931 178.848C175.258 178.274 174.386 177.99 173.504 178.056C171.104 178.312 170 183.16 175.904 184.336C176.72 184.504 177.2 183.68 177.096 181.12Z" fill="#E4897B"/>
<path d="M189.064 186.4C189.064 186.4 185.864 187.12 184.544 184.264" stroke="#263238" stroke-width="0.707962" stroke-linecap="round" stroke-linejoin="round"/>
<path d="M178.904 168.416C178.904 168.416 187.616 164.552 193.384 169.656C193.384 169.656 195.648 162.936 187.92 160.64C180.192 158.344 172.336 166.072 172.336 166.072L178.904 168.416Z" fill="#263238"/>
<path d="M178.904 168.416C178.904 168.416 173.816 173.432 174.552 183.424C175.288 193.416 174.32 199.736 172.336 205.992C170.352 212.248 175.536 214.112 175.536 214.112C175.536 214.112 169.616 215.568 168.4 209.232C167.6 205.072 169.504 196.064 168.544 185.336C167.584 174.608 171.416 167.016 178.904 168.416Z" fill="#263238"/>
<path opacity="0.2" d="M169.408 218.96H167.72C167.568 218.272 167.416 217.584 167.256 216.904L168.528 215.792C168.887 216.829 169.181 217.887 169.408 218.96Z" fill="black"/>
<path d="M168.536 218.96H160.376V207.76C161.385 206.804 162.49 205.954 163.672 205.224C164.846 205.72 165.871 206.511 166.649 207.52C167.427 208.529 167.931 209.723 168.112 210.984C168.348 212.574 168.484 214.177 168.52 215.784C168.56 216.928 168.552 218.024 168.536 218.96Z" fill="#244BA5"/>
<path opacity="0.6" d="M168.536 218.96H160.376V207.76C161.385 206.804 162.49 205.954 163.672 205.224C164.846 205.72 165.871 206.511 166.649 207.52C167.427 208.529 167.931 209.723 168.112 210.984C168.348 212.574 168.484 214.177 168.52 215.784C168.56 216.928 168.552 218.024 168.536 218.96Z" fill="white"/>
<path opacity="0.3" d="M209.32 229.304H157.976V297.384H209.32V229.304Z" fill="black"/>
<path opacity="0.3" d="M200.688 239.856H165.672C165.268 239.854 164.882 239.692 164.597 239.406C164.312 239.119 164.152 238.732 164.152 238.328C164.152 237.925 164.312 237.538 164.597 237.253C164.882 236.968 165.269 236.808 165.672 236.808H200.688C200.888 236.807 201.087 236.845 201.272 236.921C201.458 236.997 201.626 237.109 201.768 237.25C201.91 237.392 202.023 237.56 202.1 237.744C202.177 237.929 202.216 238.128 202.216 238.328C202.216 238.529 202.177 238.727 202.1 238.913C202.023 239.098 201.91 239.267 201.769 239.408C201.627 239.55 201.458 239.663 201.273 239.74C201.087 239.816 200.889 239.856 200.688 239.856Z" fill="white"/>
<path opacity="0.3" d="M200.696 245.32H165.672C164.833 245.32 164.152 246.001 164.152 246.84V246.848C164.152 247.687 164.833 248.368 165.672 248.368H200.696C201.536 248.368 202.216 247.687 202.216 246.848V246.84C202.216 246.001 201.536 245.32 200.696 245.32Z" fill="white"/>
<path opacity="0.3" d="M184.688 256.888H165.672C165.268 256.886 164.882 256.724 164.597 256.438C164.312 256.151 164.152 255.764 164.152 255.36C164.152 254.957 164.312 254.57 164.597 254.285C164.882 254 165.269 253.84 165.672 253.84H184.688C184.888 253.839 185.087 253.877 185.272 253.953C185.458 254.029 185.626 254.141 185.768 254.282C185.91 254.424 186.023 254.592 186.1 254.776C186.177 254.961 186.216 255.16 186.216 255.36C186.216 255.765 186.055 256.154 185.769 256.44C185.482 256.727 185.093 256.888 184.688 256.888Z" fill="white"/>
<path opacity="0.3" d="M200.688 265.4H165.672C165.269 265.4 164.882 265.24 164.597 264.955C164.312 264.67 164.152 264.283 164.152 263.88C164.152 263.476 164.312 263.089 164.597 262.802C164.882 262.516 165.268 262.354 165.672 262.352H200.688C201.093 262.352 201.482 262.513 201.769 262.8C202.055 263.086 202.216 263.475 202.216 263.88C202.216 264.08 202.177 264.279 202.1 264.464C202.023 264.648 201.91 264.816 201.768 264.958C201.626 265.099 201.458 265.211 201.272 265.287C201.087 265.363 200.888 265.401 200.688 265.4Z" fill="white"/>
<path opacity="0.3" d="M200.688 273.912H165.672C165.269 273.912 164.882 273.752 164.597 273.467C164.312 273.182 164.152 272.795 164.152 272.392C164.152 271.989 164.312 271.602 164.597 271.317C164.882 271.032 165.269 270.872 165.672 270.872H200.688C200.888 270.871 201.087 270.909 201.272 270.985C201.458 271.061 201.626 271.173 201.768 271.314C201.91 271.456 202.023 271.624 202.1 271.808C202.177 271.993 202.216 272.192 202.216 272.392C202.216 272.592 202.177 272.791 202.1 272.976C202.023 273.16 201.91 273.328 201.768 273.47C201.626 273.611 201.458 273.723 201.272 273.799C201.087 273.875 200.888 273.913 200.688 273.912Z" fill="white"/>
<path opacity="0.3" d="M176.688 282.4H165.672C165.269 282.4 164.882 282.24 164.597 281.955C164.312 281.67 164.152 281.283 164.152 280.88C164.151 280.68 164.19 280.481 164.266 280.296C164.341 280.111 164.453 279.942 164.594 279.8C164.736 279.658 164.904 279.545 165.089 279.468C165.274 279.392 165.472 279.352 165.672 279.352H176.688C176.889 279.351 177.088 279.39 177.274 279.466C177.46 279.543 177.629 279.655 177.771 279.797C177.913 279.939 178.026 280.108 178.102 280.294C178.178 280.48 178.217 280.679 178.216 280.88C178.216 281.08 178.177 281.279 178.1 281.464C178.023 281.648 177.91 281.816 177.768 281.958C177.626 282.099 177.458 282.211 177.272 282.287C177.087 282.363 176.888 282.401 176.688 282.4Z" fill="white"/>
<path opacity="0.3" d="M192.688 290.944H165.672C165.269 290.944 164.882 290.784 164.597 290.499C164.312 290.214 164.152 289.827 164.152 289.424C164.152 289.021 164.312 288.634 164.597 288.349C164.882 288.064 165.269 287.904 165.672 287.904H192.688C192.888 287.903 193.087 287.942 193.272 288.017C193.458 288.093 193.626 288.205 193.768 288.346C193.91 288.488 194.023 288.656 194.1 288.84C194.177 289.025 194.216 289.224 194.216 289.424C194.216 289.624 194.177 289.823 194.1 290.008C194.023 290.192 193.91 290.36 193.768 290.502C193.626 290.643 193.458 290.755 193.272 290.831C193.087 290.907 192.888 290.945 192.688 290.944Z" fill="white"/>
<path d="M323.624 284.712C322.945 284.441 322.21 284.336 321.482 284.407C320.754 284.478 320.054 284.723 319.44 285.12C315.56 287.336 313.936 296.44 313.256 303.52C313.504 293.48 315.152 279.592 321.736 272.032L321.136 271.512C315.624 277.832 313.48 288.2 312.736 297.296C312.632 293.424 312.392 289.232 311.88 285.24C312.056 276.672 312.8 268.896 314.76 266.248L314.112 265.768C312.384 268.104 311.552 274.04 311.216 280.968C310.232 275.776 308.664 271.368 306.208 269.104L305.672 269.688C308.6 272.384 310.216 278.536 311.064 285.336C311.064 286.296 311.064 287.272 311.024 288.248C310.264 284.248 309.24 280.96 307.888 279.64C303.328 275.208 297.968 279.576 297.92 279.64L298.432 280.248C298.624 280.088 303.288 276.304 307.328 280.248C309.104 281.968 310.28 287.592 311.048 293.528C311.152 300.64 311.504 307.328 311.744 311.216C311.744 311.832 311.688 312.184 311.688 312.216H311.808C311.896 313.56 311.96 314.424 311.976 314.616L312.68 314.56C312.68 315.048 312.752 315.36 312.76 315.48L313.56 315.408C313.56 315.344 313.44 314.16 313.352 312.208H313.6C313.6 311.984 313.864 289.248 319.88 285.808C320.388 285.472 320.97 285.263 321.576 285.201C322.182 285.138 322.794 285.223 323.36 285.448C326.88 286.904 328.76 293.64 328.776 293.712L329.576 293.496C329.424 293.208 327.512 286.32 323.624 284.712Z" fill="#039700"/>
<path d="M302.816 285.44C299.32 285.688 296.616 290.416 296.496 290.616L297.2 291.008C297.2 290.96 299.808 286.456 302.872 286.208C304.16 286.128 305.384 286.824 306.52 288.296C311.24 294.464 310.288 311.984 310.28 312.16L311.08 312.208C311.08 311.472 312.056 294.208 307.152 287.816C305.848 286.136 304.384 285.328 302.816 285.44Z" fill="#039700"/>
<g opacity="0.2">
<path d="M323.624 284.712C322.945 284.441 322.211 284.336 321.483 284.407C320.755 284.478 320.054 284.723 319.44 285.12C315.56 287.336 313.936 296.44 313.256 303.52C313.504 293.48 315.152 279.592 321.736 272.032L321.136 271.512C315.624 277.832 313.48 288.2 312.736 297.296C312.632 293.424 312.392 289.232 311.88 285.24C312.056 276.672 312.8 268.896 314.76 266.248L314.112 265.768C312.384 268.104 311.552 274.04 311.216 280.968C310.232 275.776 308.664 271.368 306.208 269.104L305.672 269.688C308.6 272.384 310.216 278.536 311.064 285.336C311.064 286.296 311.064 287.272 311.024 288.248C310.264 284.248 309.24 280.96 307.888 279.64C303.328 275.208 297.968 279.576 297.92 279.64L298.432 280.248C298.624 280.088 303.288 276.304 307.328 280.248C309.104 281.968 310.28 287.592 311.048 293.528C311.152 300.64 311.504 307.328 311.744 311.216C311.744 311.832 311.688 312.184 311.688 312.216H311.808C311.896 313.56 311.96 314.424 311.976 314.616L312.68 314.56C312.68 315.048 312.752 315.36 312.76 315.48L313.56 315.408C313.56 315.344 313.44 314.16 313.352 312.208H313.6C313.6 311.984 313.864 289.248 319.88 285.808C320.388 285.472 320.97 285.263 321.576 285.201C322.182 285.138 322.794 285.223 323.36 285.448C326.88 286.904 328.76 293.64 328.776 293.712L329.576 293.496C329.424 293.208 327.512 286.32 323.624 284.712Z" fill="white"/>
<path d="M302.816 285.44C299.32 285.688 296.616 290.416 296.496 290.616L297.2 291.008C297.2 290.96 299.808 286.456 302.872 286.208C304.16 286.128 305.384 286.824 306.52 288.296C311.24 294.464 310.288 311.984 310.28 312.16L311.08 312.208C311.08 311.472 312.056 294.208 307.152 287.816C305.848 286.136 304.384 285.328 302.816 285.44Z" fill="white"/>
</g>
<path d="M325.016 288.84C325.016 288.84 321.888 289.992 322.816 292.72C323.744 295.448 333.648 299.92 333.648 299.92C333.648 299.92 337.8 296.12 333.992 289.936C330.184 283.752 325.104 286.888 325.016 288.84Z" fill="#039700"/>
<path d="M311.4 283.648C311.4 283.648 314.736 283.504 314.928 286.384C315.12 289.264 307.728 297.208 307.728 297.208C307.728 297.208 302.432 295.296 303.568 288.12C304.704 280.944 310.576 281.88 311.4 283.648Z" fill="#039700"/>
<path d="M308.576 269.888C308.576 269.888 310.8 269.648 310.624 268.288C310.448 266.928 301.976 263.448 297.024 269.088C297.024 269.088 300.224 274.576 304.848 274.648C309.472 274.72 308.576 269.888 308.576 269.888Z" fill="#039700"/>
<path d="M312.72 266.6C312.72 266.6 310.712 267.576 310.144 266.328C309.576 265.08 314.944 257.648 322.144 259.792C322.144 259.792 322.336 266.144 318.456 268.648C314.576 271.152 312.72 266.6 312.72 266.6Z" fill="#039700"/>
<path d="M302.192 287.744C302.192 287.744 303.728 286.504 302.072 285.896C300.416 285.288 292.288 285.464 292.208 293.512C292.208 293.512 301.672 295.112 302.84 292.024C304.008 288.936 302.192 287.744 302.192 287.744Z" fill="#039700"/>
<path d="M321.496 269.688C321.496 269.688 319.96 268.448 321.616 267.84C323.272 267.232 331.4 267.408 331.48 275.456C331.48 275.456 322.016 277.056 320.848 273.968C319.68 270.88 321.496 269.688 321.496 269.688Z" fill="#039700"/>
<path d="M316.488 276.168C316.488 276.168 316.352 274.664 317.568 275.256C318.784 275.848 323.024 280.416 318.632 284.752C318.632 284.752 312.72 280.376 313.784 278.096C314.848 275.816 316.488 276.168 316.488 276.168Z" fill="#039700"/>
<path d="M300.8 278.32C300.8 278.32 301.712 277.112 300.376 276.968C299.04 276.824 293.008 278.424 294.408 284.432C294.408 284.432 301.744 283.88 302.056 281.384C302.368 278.888 300.8 278.32 300.8 278.32Z" fill="#039700"/>
<path d="M325.6 334.528H300.432L297.72 306.976H328.32L325.6 334.528Z" fill="#244BA5"/>
<path opacity="0.2" d="M325.6 334.528H300.432L297.72 306.976H328.32L325.6 334.528Z" fill="white"/>
<path d="M329.664 303.936H296.376V310.016H329.664V303.936Z" fill="#244BA5"/>
<path opacity="0.5" d="M329.664 303.936H296.376V310.016H329.664V303.936Z" fill="white"/>
</svg>
