<svg width="72" height="72" viewBox="0 0 72 72" fill="none" xmlns="http://www.w3.org/2000/svg">
<path d="M11.073 18.876C15.282 14.313 21.651 12 30 12H33V20.457L30.588 20.94C26.478 21.762 23.619 23.379 22.089 25.752C21.2907 27.0304 20.8379 28.4941 20.775 30H30C30.7957 30 31.5587 30.3161 32.1213 30.8787C32.6839 31.4413 33 32.2044 33 33V54C33 57.309 30.309 60 27 60H9C8.20435 60 7.44129 59.6839 6.87868 59.1213C6.31607 58.5587 6 57.7957 6 57V42L6.009 33.243C5.982 32.91 5.412 25.02 11.073 18.876ZM60 60H42C41.2044 60 40.4413 59.6839 39.8787 59.1213C39.3161 58.5587 39 57.7957 39 57V42L39.009 33.243C38.982 32.91 38.412 25.02 44.073 18.876C48.282 14.313 54.651 12 63 12H66V20.457L63.588 20.94C59.478 21.762 56.619 23.379 55.089 25.752C54.2907 27.0304 53.8379 28.4941 53.775 30H63C63.7957 30 64.5587 30.3161 65.1213 30.8787C65.6839 31.4413 66 32.2044 66 33V54C66 57.309 63.309 60 60 60Z" fill="#F7811F"/>
</svg>
