<svg width="20" height="20" viewBox="0 0 20 20" fill="none" xmlns="http://www.w3.org/2000/svg">
<path d="M16.7801 3.22C15.3232 1.75868 13.4342 0.80567 11.3932 0.502229C9.35216 0.198787 7.26766 0.561065 5.44869 1.53536C3.62972 2.50966 2.17309 4.04413 1.2947 5.9113C0.416319 7.77848 0.162935 9.87899 0.572111 11.9015C0.981286 13.924 2.03124 15.7608 3.56635 17.1397C5.10145 18.5186 7.04 19.3662 9.09465 19.5568C11.1493 19.7474 13.2107 19.2709 14.9733 18.198C16.7358 17.125 18.1058 15.5127 18.8801 13.6H16.2161C15.4743 14.91 14.3407 15.9547 12.9744 16.5869C11.6082 17.2192 10.0781 17.4073 8.59945 17.1248C7.12076 16.8423 5.76781 16.1034 4.73086 15.012C3.69392 13.9207 3.02516 12.5317 2.81862 11.0405C2.61208 9.54929 2.87816 8.03086 3.57944 6.69873C4.28071 5.36661 5.38191 4.28781 6.72816 3.61404C8.07441 2.94028 9.59799 2.70545 11.0846 2.94258C12.5713 3.1797 13.9462 3.87686 15.0161 4.936L11.2001 8.8H19.6V0.4L16.7801 3.22Z" fill="#0A286C"/>
</svg>
